%TF.GenerationSoftware,KiCad,Pcbnew,6.0.0-rc1-unknown-2c0fe8f~66~ubuntu18.04.1*%
%TF.CreationDate,2018-10-10T11:30:18+02:00*%
%TF.ProjectId,stspin220,73747370696E3232302E6B696361645F,rev?*%
%TF.SameCoordinates,Original*%
%TF.FileFunction,Copper,L1,Top,Signal*%
%TF.FilePolarity,Positive*%
%FSLAX46Y46*%
G04 Gerber Fmt 4.6, Leading zero omitted, Abs format (unit mm)*
G04 Created by KiCad (PCBNEW 6.0.0-rc1-unknown-2c0fe8f~66~ubuntu18.04.1) date Wed Oct 10 11:30:18 2018*
%MOMM*%
%LPD*%
G01*
G04 APERTURE LIST*
%ADD10R,1.300000X1.600000*%
%ADD11R,2.000000X1.600000*%
%ADD12R,1.800000X1.800000*%
%ADD13O,0.750000X0.300000*%
%ADD14O,0.300000X0.750000*%
%ADD15C,0.100000*%
%ADD16C,1.250000*%
%ADD17C,0.590000*%
%ADD18O,1.700000X1.700000*%
%ADD19R,1.700000X1.700000*%
%ADD20C,1.325000*%
%ADD21C,0.875000*%
%ADD22C,0.600000*%
%ADD23C,0.152400*%
%ADD24C,0.279400*%
%ADD25C,0.457200*%
%ADD26C,0.254000*%
G04 APERTURE END LIST*
D10*
X141498000Y-96340000D03*
D11*
X142748000Y-99240000D03*
D10*
X143998000Y-96340000D03*
D12*
X145288000Y-107442000D03*
D13*
X143813000Y-108192000D03*
X143813000Y-107692000D03*
X143813000Y-107192000D03*
X143813000Y-106692000D03*
D14*
X144538000Y-105967000D03*
X145038000Y-105967000D03*
X145538000Y-105967000D03*
X146038000Y-105967000D03*
D13*
X146763000Y-106692000D03*
X146763000Y-107192000D03*
X146763000Y-107692000D03*
X146763000Y-108192000D03*
D14*
X146038000Y-108917000D03*
X145538000Y-108917000D03*
X145038000Y-108917000D03*
X144538000Y-108917000D03*
D15*
G36*
X147461504Y-98566204D02*
X147485773Y-98569804D01*
X147509571Y-98575765D01*
X147532671Y-98584030D01*
X147554849Y-98594520D01*
X147575893Y-98607133D01*
X147595598Y-98621747D01*
X147613777Y-98638223D01*
X147630253Y-98656402D01*
X147644867Y-98676107D01*
X147657480Y-98697151D01*
X147667970Y-98719329D01*
X147676235Y-98742429D01*
X147682196Y-98766227D01*
X147685796Y-98790496D01*
X147687000Y-98815000D01*
X147687000Y-99565000D01*
X147685796Y-99589504D01*
X147682196Y-99613773D01*
X147676235Y-99637571D01*
X147667970Y-99660671D01*
X147657480Y-99682849D01*
X147644867Y-99703893D01*
X147630253Y-99723598D01*
X147613777Y-99741777D01*
X147595598Y-99758253D01*
X147575893Y-99772867D01*
X147554849Y-99785480D01*
X147532671Y-99795970D01*
X147509571Y-99804235D01*
X147485773Y-99810196D01*
X147461504Y-99813796D01*
X147437000Y-99815000D01*
X146187000Y-99815000D01*
X146162496Y-99813796D01*
X146138227Y-99810196D01*
X146114429Y-99804235D01*
X146091329Y-99795970D01*
X146069151Y-99785480D01*
X146048107Y-99772867D01*
X146028402Y-99758253D01*
X146010223Y-99741777D01*
X145993747Y-99723598D01*
X145979133Y-99703893D01*
X145966520Y-99682849D01*
X145956030Y-99660671D01*
X145947765Y-99637571D01*
X145941804Y-99613773D01*
X145938204Y-99589504D01*
X145937000Y-99565000D01*
X145937000Y-98815000D01*
X145938204Y-98790496D01*
X145941804Y-98766227D01*
X145947765Y-98742429D01*
X145956030Y-98719329D01*
X145966520Y-98697151D01*
X145979133Y-98676107D01*
X145993747Y-98656402D01*
X146010223Y-98638223D01*
X146028402Y-98621747D01*
X146048107Y-98607133D01*
X146069151Y-98594520D01*
X146091329Y-98584030D01*
X146114429Y-98575765D01*
X146138227Y-98569804D01*
X146162496Y-98566204D01*
X146187000Y-98565000D01*
X147437000Y-98565000D01*
X147461504Y-98566204D01*
X147461504Y-98566204D01*
G37*
D16*
X146812000Y-99190000D03*
D15*
G36*
X147461504Y-95766204D02*
X147485773Y-95769804D01*
X147509571Y-95775765D01*
X147532671Y-95784030D01*
X147554849Y-95794520D01*
X147575893Y-95807133D01*
X147595598Y-95821747D01*
X147613777Y-95838223D01*
X147630253Y-95856402D01*
X147644867Y-95876107D01*
X147657480Y-95897151D01*
X147667970Y-95919329D01*
X147676235Y-95942429D01*
X147682196Y-95966227D01*
X147685796Y-95990496D01*
X147687000Y-96015000D01*
X147687000Y-96765000D01*
X147685796Y-96789504D01*
X147682196Y-96813773D01*
X147676235Y-96837571D01*
X147667970Y-96860671D01*
X147657480Y-96882849D01*
X147644867Y-96903893D01*
X147630253Y-96923598D01*
X147613777Y-96941777D01*
X147595598Y-96958253D01*
X147575893Y-96972867D01*
X147554849Y-96985480D01*
X147532671Y-96995970D01*
X147509571Y-97004235D01*
X147485773Y-97010196D01*
X147461504Y-97013796D01*
X147437000Y-97015000D01*
X146187000Y-97015000D01*
X146162496Y-97013796D01*
X146138227Y-97010196D01*
X146114429Y-97004235D01*
X146091329Y-96995970D01*
X146069151Y-96985480D01*
X146048107Y-96972867D01*
X146028402Y-96958253D01*
X146010223Y-96941777D01*
X145993747Y-96923598D01*
X145979133Y-96903893D01*
X145966520Y-96882849D01*
X145956030Y-96860671D01*
X145947765Y-96837571D01*
X145941804Y-96813773D01*
X145938204Y-96789504D01*
X145937000Y-96765000D01*
X145937000Y-96015000D01*
X145938204Y-95990496D01*
X145941804Y-95966227D01*
X145947765Y-95942429D01*
X145956030Y-95919329D01*
X145966520Y-95897151D01*
X145979133Y-95876107D01*
X145993747Y-95856402D01*
X146010223Y-95838223D01*
X146028402Y-95821747D01*
X146048107Y-95807133D01*
X146069151Y-95794520D01*
X146091329Y-95784030D01*
X146114429Y-95775765D01*
X146138227Y-95769804D01*
X146162496Y-95766204D01*
X146187000Y-95765000D01*
X147437000Y-95765000D01*
X147461504Y-95766204D01*
X147461504Y-95766204D01*
G37*
D16*
X146812000Y-96390000D03*
D15*
G36*
X145683504Y-113298204D02*
X145707773Y-113301804D01*
X145731571Y-113307765D01*
X145754671Y-113316030D01*
X145776849Y-113326520D01*
X145797893Y-113339133D01*
X145817598Y-113353747D01*
X145835777Y-113370223D01*
X145852253Y-113388402D01*
X145866867Y-113408107D01*
X145879480Y-113429151D01*
X145889970Y-113451329D01*
X145898235Y-113474429D01*
X145904196Y-113498227D01*
X145907796Y-113522496D01*
X145909000Y-113547000D01*
X145909000Y-114297000D01*
X145907796Y-114321504D01*
X145904196Y-114345773D01*
X145898235Y-114369571D01*
X145889970Y-114392671D01*
X145879480Y-114414849D01*
X145866867Y-114435893D01*
X145852253Y-114455598D01*
X145835777Y-114473777D01*
X145817598Y-114490253D01*
X145797893Y-114504867D01*
X145776849Y-114517480D01*
X145754671Y-114527970D01*
X145731571Y-114536235D01*
X145707773Y-114542196D01*
X145683504Y-114545796D01*
X145659000Y-114547000D01*
X144409000Y-114547000D01*
X144384496Y-114545796D01*
X144360227Y-114542196D01*
X144336429Y-114536235D01*
X144313329Y-114527970D01*
X144291151Y-114517480D01*
X144270107Y-114504867D01*
X144250402Y-114490253D01*
X144232223Y-114473777D01*
X144215747Y-114455598D01*
X144201133Y-114435893D01*
X144188520Y-114414849D01*
X144178030Y-114392671D01*
X144169765Y-114369571D01*
X144163804Y-114345773D01*
X144160204Y-114321504D01*
X144159000Y-114297000D01*
X144159000Y-113547000D01*
X144160204Y-113522496D01*
X144163804Y-113498227D01*
X144169765Y-113474429D01*
X144178030Y-113451329D01*
X144188520Y-113429151D01*
X144201133Y-113408107D01*
X144215747Y-113388402D01*
X144232223Y-113370223D01*
X144250402Y-113353747D01*
X144270107Y-113339133D01*
X144291151Y-113326520D01*
X144313329Y-113316030D01*
X144336429Y-113307765D01*
X144360227Y-113301804D01*
X144384496Y-113298204D01*
X144409000Y-113297000D01*
X145659000Y-113297000D01*
X145683504Y-113298204D01*
X145683504Y-113298204D01*
G37*
D16*
X145034000Y-113922000D03*
D15*
G36*
X145683504Y-110498204D02*
X145707773Y-110501804D01*
X145731571Y-110507765D01*
X145754671Y-110516030D01*
X145776849Y-110526520D01*
X145797893Y-110539133D01*
X145817598Y-110553747D01*
X145835777Y-110570223D01*
X145852253Y-110588402D01*
X145866867Y-110608107D01*
X145879480Y-110629151D01*
X145889970Y-110651329D01*
X145898235Y-110674429D01*
X145904196Y-110698227D01*
X145907796Y-110722496D01*
X145909000Y-110747000D01*
X145909000Y-111497000D01*
X145907796Y-111521504D01*
X145904196Y-111545773D01*
X145898235Y-111569571D01*
X145889970Y-111592671D01*
X145879480Y-111614849D01*
X145866867Y-111635893D01*
X145852253Y-111655598D01*
X145835777Y-111673777D01*
X145817598Y-111690253D01*
X145797893Y-111704867D01*
X145776849Y-111717480D01*
X145754671Y-111727970D01*
X145731571Y-111736235D01*
X145707773Y-111742196D01*
X145683504Y-111745796D01*
X145659000Y-111747000D01*
X144409000Y-111747000D01*
X144384496Y-111745796D01*
X144360227Y-111742196D01*
X144336429Y-111736235D01*
X144313329Y-111727970D01*
X144291151Y-111717480D01*
X144270107Y-111704867D01*
X144250402Y-111690253D01*
X144232223Y-111673777D01*
X144215747Y-111655598D01*
X144201133Y-111635893D01*
X144188520Y-111614849D01*
X144178030Y-111592671D01*
X144169765Y-111569571D01*
X144163804Y-111545773D01*
X144160204Y-111521504D01*
X144159000Y-111497000D01*
X144159000Y-110747000D01*
X144160204Y-110722496D01*
X144163804Y-110698227D01*
X144169765Y-110674429D01*
X144178030Y-110651329D01*
X144188520Y-110629151D01*
X144201133Y-110608107D01*
X144215747Y-110588402D01*
X144232223Y-110570223D01*
X144250402Y-110553747D01*
X144270107Y-110539133D01*
X144291151Y-110526520D01*
X144313329Y-110516030D01*
X144336429Y-110507765D01*
X144360227Y-110501804D01*
X144384496Y-110498204D01*
X144409000Y-110497000D01*
X145659000Y-110497000D01*
X145683504Y-110498204D01*
X145683504Y-110498204D01*
G37*
D16*
X145034000Y-111122000D03*
D15*
G36*
X140646958Y-103820710D02*
X140661276Y-103822834D01*
X140675317Y-103826351D01*
X140688946Y-103831228D01*
X140702031Y-103837417D01*
X140714447Y-103844858D01*
X140726073Y-103853481D01*
X140736798Y-103863202D01*
X140746519Y-103873927D01*
X140755142Y-103885553D01*
X140762583Y-103897969D01*
X140768772Y-103911054D01*
X140773649Y-103924683D01*
X140777166Y-103938724D01*
X140779290Y-103953042D01*
X140780000Y-103967500D01*
X140780000Y-104312500D01*
X140779290Y-104326958D01*
X140777166Y-104341276D01*
X140773649Y-104355317D01*
X140768772Y-104368946D01*
X140762583Y-104382031D01*
X140755142Y-104394447D01*
X140746519Y-104406073D01*
X140736798Y-104416798D01*
X140726073Y-104426519D01*
X140714447Y-104435142D01*
X140702031Y-104442583D01*
X140688946Y-104448772D01*
X140675317Y-104453649D01*
X140661276Y-104457166D01*
X140646958Y-104459290D01*
X140632500Y-104460000D01*
X140337500Y-104460000D01*
X140323042Y-104459290D01*
X140308724Y-104457166D01*
X140294683Y-104453649D01*
X140281054Y-104448772D01*
X140267969Y-104442583D01*
X140255553Y-104435142D01*
X140243927Y-104426519D01*
X140233202Y-104416798D01*
X140223481Y-104406073D01*
X140214858Y-104394447D01*
X140207417Y-104382031D01*
X140201228Y-104368946D01*
X140196351Y-104355317D01*
X140192834Y-104341276D01*
X140190710Y-104326958D01*
X140190000Y-104312500D01*
X140190000Y-103967500D01*
X140190710Y-103953042D01*
X140192834Y-103938724D01*
X140196351Y-103924683D01*
X140201228Y-103911054D01*
X140207417Y-103897969D01*
X140214858Y-103885553D01*
X140223481Y-103873927D01*
X140233202Y-103863202D01*
X140243927Y-103853481D01*
X140255553Y-103844858D01*
X140267969Y-103837417D01*
X140281054Y-103831228D01*
X140294683Y-103826351D01*
X140308724Y-103822834D01*
X140323042Y-103820710D01*
X140337500Y-103820000D01*
X140632500Y-103820000D01*
X140646958Y-103820710D01*
X140646958Y-103820710D01*
G37*
D17*
X140485000Y-104140000D03*
D15*
G36*
X141616958Y-103820710D02*
X141631276Y-103822834D01*
X141645317Y-103826351D01*
X141658946Y-103831228D01*
X141672031Y-103837417D01*
X141684447Y-103844858D01*
X141696073Y-103853481D01*
X141706798Y-103863202D01*
X141716519Y-103873927D01*
X141725142Y-103885553D01*
X141732583Y-103897969D01*
X141738772Y-103911054D01*
X141743649Y-103924683D01*
X141747166Y-103938724D01*
X141749290Y-103953042D01*
X141750000Y-103967500D01*
X141750000Y-104312500D01*
X141749290Y-104326958D01*
X141747166Y-104341276D01*
X141743649Y-104355317D01*
X141738772Y-104368946D01*
X141732583Y-104382031D01*
X141725142Y-104394447D01*
X141716519Y-104406073D01*
X141706798Y-104416798D01*
X141696073Y-104426519D01*
X141684447Y-104435142D01*
X141672031Y-104442583D01*
X141658946Y-104448772D01*
X141645317Y-104453649D01*
X141631276Y-104457166D01*
X141616958Y-104459290D01*
X141602500Y-104460000D01*
X141307500Y-104460000D01*
X141293042Y-104459290D01*
X141278724Y-104457166D01*
X141264683Y-104453649D01*
X141251054Y-104448772D01*
X141237969Y-104442583D01*
X141225553Y-104435142D01*
X141213927Y-104426519D01*
X141203202Y-104416798D01*
X141193481Y-104406073D01*
X141184858Y-104394447D01*
X141177417Y-104382031D01*
X141171228Y-104368946D01*
X141166351Y-104355317D01*
X141162834Y-104341276D01*
X141160710Y-104326958D01*
X141160000Y-104312500D01*
X141160000Y-103967500D01*
X141160710Y-103953042D01*
X141162834Y-103938724D01*
X141166351Y-103924683D01*
X141171228Y-103911054D01*
X141177417Y-103897969D01*
X141184858Y-103885553D01*
X141193481Y-103873927D01*
X141203202Y-103863202D01*
X141213927Y-103853481D01*
X141225553Y-103844858D01*
X141237969Y-103837417D01*
X141251054Y-103831228D01*
X141264683Y-103826351D01*
X141278724Y-103822834D01*
X141293042Y-103820710D01*
X141307500Y-103820000D01*
X141602500Y-103820000D01*
X141616958Y-103820710D01*
X141616958Y-103820710D01*
G37*
D17*
X141455000Y-104140000D03*
D15*
G36*
X140648958Y-105138710D02*
X140663276Y-105140834D01*
X140677317Y-105144351D01*
X140690946Y-105149228D01*
X140704031Y-105155417D01*
X140716447Y-105162858D01*
X140728073Y-105171481D01*
X140738798Y-105181202D01*
X140748519Y-105191927D01*
X140757142Y-105203553D01*
X140764583Y-105215969D01*
X140770772Y-105229054D01*
X140775649Y-105242683D01*
X140779166Y-105256724D01*
X140781290Y-105271042D01*
X140782000Y-105285500D01*
X140782000Y-105580500D01*
X140781290Y-105594958D01*
X140779166Y-105609276D01*
X140775649Y-105623317D01*
X140770772Y-105636946D01*
X140764583Y-105650031D01*
X140757142Y-105662447D01*
X140748519Y-105674073D01*
X140738798Y-105684798D01*
X140728073Y-105694519D01*
X140716447Y-105703142D01*
X140704031Y-105710583D01*
X140690946Y-105716772D01*
X140677317Y-105721649D01*
X140663276Y-105725166D01*
X140648958Y-105727290D01*
X140634500Y-105728000D01*
X140289500Y-105728000D01*
X140275042Y-105727290D01*
X140260724Y-105725166D01*
X140246683Y-105721649D01*
X140233054Y-105716772D01*
X140219969Y-105710583D01*
X140207553Y-105703142D01*
X140195927Y-105694519D01*
X140185202Y-105684798D01*
X140175481Y-105674073D01*
X140166858Y-105662447D01*
X140159417Y-105650031D01*
X140153228Y-105636946D01*
X140148351Y-105623317D01*
X140144834Y-105609276D01*
X140142710Y-105594958D01*
X140142000Y-105580500D01*
X140142000Y-105285500D01*
X140142710Y-105271042D01*
X140144834Y-105256724D01*
X140148351Y-105242683D01*
X140153228Y-105229054D01*
X140159417Y-105215969D01*
X140166858Y-105203553D01*
X140175481Y-105191927D01*
X140185202Y-105181202D01*
X140195927Y-105171481D01*
X140207553Y-105162858D01*
X140219969Y-105155417D01*
X140233054Y-105149228D01*
X140246683Y-105144351D01*
X140260724Y-105140834D01*
X140275042Y-105138710D01*
X140289500Y-105138000D01*
X140634500Y-105138000D01*
X140648958Y-105138710D01*
X140648958Y-105138710D01*
G37*
D17*
X140462000Y-105433000D03*
D15*
G36*
X140648958Y-106108710D02*
X140663276Y-106110834D01*
X140677317Y-106114351D01*
X140690946Y-106119228D01*
X140704031Y-106125417D01*
X140716447Y-106132858D01*
X140728073Y-106141481D01*
X140738798Y-106151202D01*
X140748519Y-106161927D01*
X140757142Y-106173553D01*
X140764583Y-106185969D01*
X140770772Y-106199054D01*
X140775649Y-106212683D01*
X140779166Y-106226724D01*
X140781290Y-106241042D01*
X140782000Y-106255500D01*
X140782000Y-106550500D01*
X140781290Y-106564958D01*
X140779166Y-106579276D01*
X140775649Y-106593317D01*
X140770772Y-106606946D01*
X140764583Y-106620031D01*
X140757142Y-106632447D01*
X140748519Y-106644073D01*
X140738798Y-106654798D01*
X140728073Y-106664519D01*
X140716447Y-106673142D01*
X140704031Y-106680583D01*
X140690946Y-106686772D01*
X140677317Y-106691649D01*
X140663276Y-106695166D01*
X140648958Y-106697290D01*
X140634500Y-106698000D01*
X140289500Y-106698000D01*
X140275042Y-106697290D01*
X140260724Y-106695166D01*
X140246683Y-106691649D01*
X140233054Y-106686772D01*
X140219969Y-106680583D01*
X140207553Y-106673142D01*
X140195927Y-106664519D01*
X140185202Y-106654798D01*
X140175481Y-106644073D01*
X140166858Y-106632447D01*
X140159417Y-106620031D01*
X140153228Y-106606946D01*
X140148351Y-106593317D01*
X140144834Y-106579276D01*
X140142710Y-106564958D01*
X140142000Y-106550500D01*
X140142000Y-106255500D01*
X140142710Y-106241042D01*
X140144834Y-106226724D01*
X140148351Y-106212683D01*
X140153228Y-106199054D01*
X140159417Y-106185969D01*
X140166858Y-106173553D01*
X140175481Y-106161927D01*
X140185202Y-106151202D01*
X140195927Y-106141481D01*
X140207553Y-106132858D01*
X140219969Y-106125417D01*
X140233054Y-106119228D01*
X140246683Y-106114351D01*
X140260724Y-106110834D01*
X140275042Y-106108710D01*
X140289500Y-106108000D01*
X140634500Y-106108000D01*
X140648958Y-106108710D01*
X140648958Y-106108710D01*
G37*
D17*
X140462000Y-106403000D03*
D15*
G36*
X141918958Y-102552710D02*
X141933276Y-102554834D01*
X141947317Y-102558351D01*
X141960946Y-102563228D01*
X141974031Y-102569417D01*
X141986447Y-102576858D01*
X141998073Y-102585481D01*
X142008798Y-102595202D01*
X142018519Y-102605927D01*
X142027142Y-102617553D01*
X142034583Y-102629969D01*
X142040772Y-102643054D01*
X142045649Y-102656683D01*
X142049166Y-102670724D01*
X142051290Y-102685042D01*
X142052000Y-102699500D01*
X142052000Y-102994500D01*
X142051290Y-103008958D01*
X142049166Y-103023276D01*
X142045649Y-103037317D01*
X142040772Y-103050946D01*
X142034583Y-103064031D01*
X142027142Y-103076447D01*
X142018519Y-103088073D01*
X142008798Y-103098798D01*
X141998073Y-103108519D01*
X141986447Y-103117142D01*
X141974031Y-103124583D01*
X141960946Y-103130772D01*
X141947317Y-103135649D01*
X141933276Y-103139166D01*
X141918958Y-103141290D01*
X141904500Y-103142000D01*
X141559500Y-103142000D01*
X141545042Y-103141290D01*
X141530724Y-103139166D01*
X141516683Y-103135649D01*
X141503054Y-103130772D01*
X141489969Y-103124583D01*
X141477553Y-103117142D01*
X141465927Y-103108519D01*
X141455202Y-103098798D01*
X141445481Y-103088073D01*
X141436858Y-103076447D01*
X141429417Y-103064031D01*
X141423228Y-103050946D01*
X141418351Y-103037317D01*
X141414834Y-103023276D01*
X141412710Y-103008958D01*
X141412000Y-102994500D01*
X141412000Y-102699500D01*
X141412710Y-102685042D01*
X141414834Y-102670724D01*
X141418351Y-102656683D01*
X141423228Y-102643054D01*
X141429417Y-102629969D01*
X141436858Y-102617553D01*
X141445481Y-102605927D01*
X141455202Y-102595202D01*
X141465927Y-102585481D01*
X141477553Y-102576858D01*
X141489969Y-102569417D01*
X141503054Y-102563228D01*
X141516683Y-102558351D01*
X141530724Y-102554834D01*
X141545042Y-102552710D01*
X141559500Y-102552000D01*
X141904500Y-102552000D01*
X141918958Y-102552710D01*
X141918958Y-102552710D01*
G37*
D17*
X141732000Y-102847000D03*
D15*
G36*
X141918958Y-101582710D02*
X141933276Y-101584834D01*
X141947317Y-101588351D01*
X141960946Y-101593228D01*
X141974031Y-101599417D01*
X141986447Y-101606858D01*
X141998073Y-101615481D01*
X142008798Y-101625202D01*
X142018519Y-101635927D01*
X142027142Y-101647553D01*
X142034583Y-101659969D01*
X142040772Y-101673054D01*
X142045649Y-101686683D01*
X142049166Y-101700724D01*
X142051290Y-101715042D01*
X142052000Y-101729500D01*
X142052000Y-102024500D01*
X142051290Y-102038958D01*
X142049166Y-102053276D01*
X142045649Y-102067317D01*
X142040772Y-102080946D01*
X142034583Y-102094031D01*
X142027142Y-102106447D01*
X142018519Y-102118073D01*
X142008798Y-102128798D01*
X141998073Y-102138519D01*
X141986447Y-102147142D01*
X141974031Y-102154583D01*
X141960946Y-102160772D01*
X141947317Y-102165649D01*
X141933276Y-102169166D01*
X141918958Y-102171290D01*
X141904500Y-102172000D01*
X141559500Y-102172000D01*
X141545042Y-102171290D01*
X141530724Y-102169166D01*
X141516683Y-102165649D01*
X141503054Y-102160772D01*
X141489969Y-102154583D01*
X141477553Y-102147142D01*
X141465927Y-102138519D01*
X141455202Y-102128798D01*
X141445481Y-102118073D01*
X141436858Y-102106447D01*
X141429417Y-102094031D01*
X141423228Y-102080946D01*
X141418351Y-102067317D01*
X141414834Y-102053276D01*
X141412710Y-102038958D01*
X141412000Y-102024500D01*
X141412000Y-101729500D01*
X141412710Y-101715042D01*
X141414834Y-101700724D01*
X141418351Y-101686683D01*
X141423228Y-101673054D01*
X141429417Y-101659969D01*
X141436858Y-101647553D01*
X141445481Y-101635927D01*
X141455202Y-101625202D01*
X141465927Y-101615481D01*
X141477553Y-101606858D01*
X141489969Y-101599417D01*
X141503054Y-101593228D01*
X141516683Y-101588351D01*
X141530724Y-101584834D01*
X141545042Y-101582710D01*
X141559500Y-101582000D01*
X141904500Y-101582000D01*
X141918958Y-101582710D01*
X141918958Y-101582710D01*
G37*
D17*
X141732000Y-101877000D03*
D15*
G36*
X139630958Y-113980710D02*
X139645276Y-113982834D01*
X139659317Y-113986351D01*
X139672946Y-113991228D01*
X139686031Y-113997417D01*
X139698447Y-114004858D01*
X139710073Y-114013481D01*
X139720798Y-114023202D01*
X139730519Y-114033927D01*
X139739142Y-114045553D01*
X139746583Y-114057969D01*
X139752772Y-114071054D01*
X139757649Y-114084683D01*
X139761166Y-114098724D01*
X139763290Y-114113042D01*
X139764000Y-114127500D01*
X139764000Y-114472500D01*
X139763290Y-114486958D01*
X139761166Y-114501276D01*
X139757649Y-114515317D01*
X139752772Y-114528946D01*
X139746583Y-114542031D01*
X139739142Y-114554447D01*
X139730519Y-114566073D01*
X139720798Y-114576798D01*
X139710073Y-114586519D01*
X139698447Y-114595142D01*
X139686031Y-114602583D01*
X139672946Y-114608772D01*
X139659317Y-114613649D01*
X139645276Y-114617166D01*
X139630958Y-114619290D01*
X139616500Y-114620000D01*
X139321500Y-114620000D01*
X139307042Y-114619290D01*
X139292724Y-114617166D01*
X139278683Y-114613649D01*
X139265054Y-114608772D01*
X139251969Y-114602583D01*
X139239553Y-114595142D01*
X139227927Y-114586519D01*
X139217202Y-114576798D01*
X139207481Y-114566073D01*
X139198858Y-114554447D01*
X139191417Y-114542031D01*
X139185228Y-114528946D01*
X139180351Y-114515317D01*
X139176834Y-114501276D01*
X139174710Y-114486958D01*
X139174000Y-114472500D01*
X139174000Y-114127500D01*
X139174710Y-114113042D01*
X139176834Y-114098724D01*
X139180351Y-114084683D01*
X139185228Y-114071054D01*
X139191417Y-114057969D01*
X139198858Y-114045553D01*
X139207481Y-114033927D01*
X139217202Y-114023202D01*
X139227927Y-114013481D01*
X139239553Y-114004858D01*
X139251969Y-113997417D01*
X139265054Y-113991228D01*
X139278683Y-113986351D01*
X139292724Y-113982834D01*
X139307042Y-113980710D01*
X139321500Y-113980000D01*
X139616500Y-113980000D01*
X139630958Y-113980710D01*
X139630958Y-113980710D01*
G37*
D17*
X139469000Y-114300000D03*
D15*
G36*
X140600958Y-113980710D02*
X140615276Y-113982834D01*
X140629317Y-113986351D01*
X140642946Y-113991228D01*
X140656031Y-113997417D01*
X140668447Y-114004858D01*
X140680073Y-114013481D01*
X140690798Y-114023202D01*
X140700519Y-114033927D01*
X140709142Y-114045553D01*
X140716583Y-114057969D01*
X140722772Y-114071054D01*
X140727649Y-114084683D01*
X140731166Y-114098724D01*
X140733290Y-114113042D01*
X140734000Y-114127500D01*
X140734000Y-114472500D01*
X140733290Y-114486958D01*
X140731166Y-114501276D01*
X140727649Y-114515317D01*
X140722772Y-114528946D01*
X140716583Y-114542031D01*
X140709142Y-114554447D01*
X140700519Y-114566073D01*
X140690798Y-114576798D01*
X140680073Y-114586519D01*
X140668447Y-114595142D01*
X140656031Y-114602583D01*
X140642946Y-114608772D01*
X140629317Y-114613649D01*
X140615276Y-114617166D01*
X140600958Y-114619290D01*
X140586500Y-114620000D01*
X140291500Y-114620000D01*
X140277042Y-114619290D01*
X140262724Y-114617166D01*
X140248683Y-114613649D01*
X140235054Y-114608772D01*
X140221969Y-114602583D01*
X140209553Y-114595142D01*
X140197927Y-114586519D01*
X140187202Y-114576798D01*
X140177481Y-114566073D01*
X140168858Y-114554447D01*
X140161417Y-114542031D01*
X140155228Y-114528946D01*
X140150351Y-114515317D01*
X140146834Y-114501276D01*
X140144710Y-114486958D01*
X140144000Y-114472500D01*
X140144000Y-114127500D01*
X140144710Y-114113042D01*
X140146834Y-114098724D01*
X140150351Y-114084683D01*
X140155228Y-114071054D01*
X140161417Y-114057969D01*
X140168858Y-114045553D01*
X140177481Y-114033927D01*
X140187202Y-114023202D01*
X140197927Y-114013481D01*
X140209553Y-114004858D01*
X140221969Y-113997417D01*
X140235054Y-113991228D01*
X140248683Y-113986351D01*
X140262724Y-113982834D01*
X140277042Y-113980710D01*
X140291500Y-113980000D01*
X140586500Y-113980000D01*
X140600958Y-113980710D01*
X140600958Y-113980710D01*
G37*
D17*
X140439000Y-114300000D03*
D15*
G36*
X139378958Y-101582710D02*
X139393276Y-101584834D01*
X139407317Y-101588351D01*
X139420946Y-101593228D01*
X139434031Y-101599417D01*
X139446447Y-101606858D01*
X139458073Y-101615481D01*
X139468798Y-101625202D01*
X139478519Y-101635927D01*
X139487142Y-101647553D01*
X139494583Y-101659969D01*
X139500772Y-101673054D01*
X139505649Y-101686683D01*
X139509166Y-101700724D01*
X139511290Y-101715042D01*
X139512000Y-101729500D01*
X139512000Y-102024500D01*
X139511290Y-102038958D01*
X139509166Y-102053276D01*
X139505649Y-102067317D01*
X139500772Y-102080946D01*
X139494583Y-102094031D01*
X139487142Y-102106447D01*
X139478519Y-102118073D01*
X139468798Y-102128798D01*
X139458073Y-102138519D01*
X139446447Y-102147142D01*
X139434031Y-102154583D01*
X139420946Y-102160772D01*
X139407317Y-102165649D01*
X139393276Y-102169166D01*
X139378958Y-102171290D01*
X139364500Y-102172000D01*
X139019500Y-102172000D01*
X139005042Y-102171290D01*
X138990724Y-102169166D01*
X138976683Y-102165649D01*
X138963054Y-102160772D01*
X138949969Y-102154583D01*
X138937553Y-102147142D01*
X138925927Y-102138519D01*
X138915202Y-102128798D01*
X138905481Y-102118073D01*
X138896858Y-102106447D01*
X138889417Y-102094031D01*
X138883228Y-102080946D01*
X138878351Y-102067317D01*
X138874834Y-102053276D01*
X138872710Y-102038958D01*
X138872000Y-102024500D01*
X138872000Y-101729500D01*
X138872710Y-101715042D01*
X138874834Y-101700724D01*
X138878351Y-101686683D01*
X138883228Y-101673054D01*
X138889417Y-101659969D01*
X138896858Y-101647553D01*
X138905481Y-101635927D01*
X138915202Y-101625202D01*
X138925927Y-101615481D01*
X138937553Y-101606858D01*
X138949969Y-101599417D01*
X138963054Y-101593228D01*
X138976683Y-101588351D01*
X138990724Y-101584834D01*
X139005042Y-101582710D01*
X139019500Y-101582000D01*
X139364500Y-101582000D01*
X139378958Y-101582710D01*
X139378958Y-101582710D01*
G37*
D17*
X139192000Y-101877000D03*
D15*
G36*
X139378958Y-102552710D02*
X139393276Y-102554834D01*
X139407317Y-102558351D01*
X139420946Y-102563228D01*
X139434031Y-102569417D01*
X139446447Y-102576858D01*
X139458073Y-102585481D01*
X139468798Y-102595202D01*
X139478519Y-102605927D01*
X139487142Y-102617553D01*
X139494583Y-102629969D01*
X139500772Y-102643054D01*
X139505649Y-102656683D01*
X139509166Y-102670724D01*
X139511290Y-102685042D01*
X139512000Y-102699500D01*
X139512000Y-102994500D01*
X139511290Y-103008958D01*
X139509166Y-103023276D01*
X139505649Y-103037317D01*
X139500772Y-103050946D01*
X139494583Y-103064031D01*
X139487142Y-103076447D01*
X139478519Y-103088073D01*
X139468798Y-103098798D01*
X139458073Y-103108519D01*
X139446447Y-103117142D01*
X139434031Y-103124583D01*
X139420946Y-103130772D01*
X139407317Y-103135649D01*
X139393276Y-103139166D01*
X139378958Y-103141290D01*
X139364500Y-103142000D01*
X139019500Y-103142000D01*
X139005042Y-103141290D01*
X138990724Y-103139166D01*
X138976683Y-103135649D01*
X138963054Y-103130772D01*
X138949969Y-103124583D01*
X138937553Y-103117142D01*
X138925927Y-103108519D01*
X138915202Y-103098798D01*
X138905481Y-103088073D01*
X138896858Y-103076447D01*
X138889417Y-103064031D01*
X138883228Y-103050946D01*
X138878351Y-103037317D01*
X138874834Y-103023276D01*
X138872710Y-103008958D01*
X138872000Y-102994500D01*
X138872000Y-102699500D01*
X138872710Y-102685042D01*
X138874834Y-102670724D01*
X138878351Y-102656683D01*
X138883228Y-102643054D01*
X138889417Y-102629969D01*
X138896858Y-102617553D01*
X138905481Y-102605927D01*
X138915202Y-102595202D01*
X138925927Y-102585481D01*
X138937553Y-102576858D01*
X138949969Y-102569417D01*
X138963054Y-102563228D01*
X138976683Y-102558351D01*
X138990724Y-102554834D01*
X139005042Y-102552710D01*
X139019500Y-102552000D01*
X139364500Y-102552000D01*
X139378958Y-102552710D01*
X139378958Y-102552710D01*
G37*
D17*
X139192000Y-102847000D03*
D15*
G36*
X140646958Y-100518710D02*
X140661276Y-100520834D01*
X140675317Y-100524351D01*
X140688946Y-100529228D01*
X140702031Y-100535417D01*
X140714447Y-100542858D01*
X140726073Y-100551481D01*
X140736798Y-100561202D01*
X140746519Y-100571927D01*
X140755142Y-100583553D01*
X140762583Y-100595969D01*
X140768772Y-100609054D01*
X140773649Y-100622683D01*
X140777166Y-100636724D01*
X140779290Y-100651042D01*
X140780000Y-100665500D01*
X140780000Y-101010500D01*
X140779290Y-101024958D01*
X140777166Y-101039276D01*
X140773649Y-101053317D01*
X140768772Y-101066946D01*
X140762583Y-101080031D01*
X140755142Y-101092447D01*
X140746519Y-101104073D01*
X140736798Y-101114798D01*
X140726073Y-101124519D01*
X140714447Y-101133142D01*
X140702031Y-101140583D01*
X140688946Y-101146772D01*
X140675317Y-101151649D01*
X140661276Y-101155166D01*
X140646958Y-101157290D01*
X140632500Y-101158000D01*
X140337500Y-101158000D01*
X140323042Y-101157290D01*
X140308724Y-101155166D01*
X140294683Y-101151649D01*
X140281054Y-101146772D01*
X140267969Y-101140583D01*
X140255553Y-101133142D01*
X140243927Y-101124519D01*
X140233202Y-101114798D01*
X140223481Y-101104073D01*
X140214858Y-101092447D01*
X140207417Y-101080031D01*
X140201228Y-101066946D01*
X140196351Y-101053317D01*
X140192834Y-101039276D01*
X140190710Y-101024958D01*
X140190000Y-101010500D01*
X140190000Y-100665500D01*
X140190710Y-100651042D01*
X140192834Y-100636724D01*
X140196351Y-100622683D01*
X140201228Y-100609054D01*
X140207417Y-100595969D01*
X140214858Y-100583553D01*
X140223481Y-100571927D01*
X140233202Y-100561202D01*
X140243927Y-100551481D01*
X140255553Y-100542858D01*
X140267969Y-100535417D01*
X140281054Y-100529228D01*
X140294683Y-100524351D01*
X140308724Y-100520834D01*
X140323042Y-100518710D01*
X140337500Y-100518000D01*
X140632500Y-100518000D01*
X140646958Y-100518710D01*
X140646958Y-100518710D01*
G37*
D17*
X140485000Y-100838000D03*
D15*
G36*
X141616958Y-100518710D02*
X141631276Y-100520834D01*
X141645317Y-100524351D01*
X141658946Y-100529228D01*
X141672031Y-100535417D01*
X141684447Y-100542858D01*
X141696073Y-100551481D01*
X141706798Y-100561202D01*
X141716519Y-100571927D01*
X141725142Y-100583553D01*
X141732583Y-100595969D01*
X141738772Y-100609054D01*
X141743649Y-100622683D01*
X141747166Y-100636724D01*
X141749290Y-100651042D01*
X141750000Y-100665500D01*
X141750000Y-101010500D01*
X141749290Y-101024958D01*
X141747166Y-101039276D01*
X141743649Y-101053317D01*
X141738772Y-101066946D01*
X141732583Y-101080031D01*
X141725142Y-101092447D01*
X141716519Y-101104073D01*
X141706798Y-101114798D01*
X141696073Y-101124519D01*
X141684447Y-101133142D01*
X141672031Y-101140583D01*
X141658946Y-101146772D01*
X141645317Y-101151649D01*
X141631276Y-101155166D01*
X141616958Y-101157290D01*
X141602500Y-101158000D01*
X141307500Y-101158000D01*
X141293042Y-101157290D01*
X141278724Y-101155166D01*
X141264683Y-101151649D01*
X141251054Y-101146772D01*
X141237969Y-101140583D01*
X141225553Y-101133142D01*
X141213927Y-101124519D01*
X141203202Y-101114798D01*
X141193481Y-101104073D01*
X141184858Y-101092447D01*
X141177417Y-101080031D01*
X141171228Y-101066946D01*
X141166351Y-101053317D01*
X141162834Y-101039276D01*
X141160710Y-101024958D01*
X141160000Y-101010500D01*
X141160000Y-100665500D01*
X141160710Y-100651042D01*
X141162834Y-100636724D01*
X141166351Y-100622683D01*
X141171228Y-100609054D01*
X141177417Y-100595969D01*
X141184858Y-100583553D01*
X141193481Y-100571927D01*
X141203202Y-100561202D01*
X141213927Y-100551481D01*
X141225553Y-100542858D01*
X141237969Y-100535417D01*
X141251054Y-100529228D01*
X141264683Y-100524351D01*
X141278724Y-100520834D01*
X141293042Y-100518710D01*
X141307500Y-100518000D01*
X141602500Y-100518000D01*
X141616958Y-100518710D01*
X141616958Y-100518710D01*
G37*
D17*
X141455000Y-100838000D03*
D15*
G36*
X139630958Y-111440710D02*
X139645276Y-111442834D01*
X139659317Y-111446351D01*
X139672946Y-111451228D01*
X139686031Y-111457417D01*
X139698447Y-111464858D01*
X139710073Y-111473481D01*
X139720798Y-111483202D01*
X139730519Y-111493927D01*
X139739142Y-111505553D01*
X139746583Y-111517969D01*
X139752772Y-111531054D01*
X139757649Y-111544683D01*
X139761166Y-111558724D01*
X139763290Y-111573042D01*
X139764000Y-111587500D01*
X139764000Y-111932500D01*
X139763290Y-111946958D01*
X139761166Y-111961276D01*
X139757649Y-111975317D01*
X139752772Y-111988946D01*
X139746583Y-112002031D01*
X139739142Y-112014447D01*
X139730519Y-112026073D01*
X139720798Y-112036798D01*
X139710073Y-112046519D01*
X139698447Y-112055142D01*
X139686031Y-112062583D01*
X139672946Y-112068772D01*
X139659317Y-112073649D01*
X139645276Y-112077166D01*
X139630958Y-112079290D01*
X139616500Y-112080000D01*
X139321500Y-112080000D01*
X139307042Y-112079290D01*
X139292724Y-112077166D01*
X139278683Y-112073649D01*
X139265054Y-112068772D01*
X139251969Y-112062583D01*
X139239553Y-112055142D01*
X139227927Y-112046519D01*
X139217202Y-112036798D01*
X139207481Y-112026073D01*
X139198858Y-112014447D01*
X139191417Y-112002031D01*
X139185228Y-111988946D01*
X139180351Y-111975317D01*
X139176834Y-111961276D01*
X139174710Y-111946958D01*
X139174000Y-111932500D01*
X139174000Y-111587500D01*
X139174710Y-111573042D01*
X139176834Y-111558724D01*
X139180351Y-111544683D01*
X139185228Y-111531054D01*
X139191417Y-111517969D01*
X139198858Y-111505553D01*
X139207481Y-111493927D01*
X139217202Y-111483202D01*
X139227927Y-111473481D01*
X139239553Y-111464858D01*
X139251969Y-111457417D01*
X139265054Y-111451228D01*
X139278683Y-111446351D01*
X139292724Y-111442834D01*
X139307042Y-111440710D01*
X139321500Y-111440000D01*
X139616500Y-111440000D01*
X139630958Y-111440710D01*
X139630958Y-111440710D01*
G37*
D17*
X139469000Y-111760000D03*
D15*
G36*
X140600958Y-111440710D02*
X140615276Y-111442834D01*
X140629317Y-111446351D01*
X140642946Y-111451228D01*
X140656031Y-111457417D01*
X140668447Y-111464858D01*
X140680073Y-111473481D01*
X140690798Y-111483202D01*
X140700519Y-111493927D01*
X140709142Y-111505553D01*
X140716583Y-111517969D01*
X140722772Y-111531054D01*
X140727649Y-111544683D01*
X140731166Y-111558724D01*
X140733290Y-111573042D01*
X140734000Y-111587500D01*
X140734000Y-111932500D01*
X140733290Y-111946958D01*
X140731166Y-111961276D01*
X140727649Y-111975317D01*
X140722772Y-111988946D01*
X140716583Y-112002031D01*
X140709142Y-112014447D01*
X140700519Y-112026073D01*
X140690798Y-112036798D01*
X140680073Y-112046519D01*
X140668447Y-112055142D01*
X140656031Y-112062583D01*
X140642946Y-112068772D01*
X140629317Y-112073649D01*
X140615276Y-112077166D01*
X140600958Y-112079290D01*
X140586500Y-112080000D01*
X140291500Y-112080000D01*
X140277042Y-112079290D01*
X140262724Y-112077166D01*
X140248683Y-112073649D01*
X140235054Y-112068772D01*
X140221969Y-112062583D01*
X140209553Y-112055142D01*
X140197927Y-112046519D01*
X140187202Y-112036798D01*
X140177481Y-112026073D01*
X140168858Y-112014447D01*
X140161417Y-112002031D01*
X140155228Y-111988946D01*
X140150351Y-111975317D01*
X140146834Y-111961276D01*
X140144710Y-111946958D01*
X140144000Y-111932500D01*
X140144000Y-111587500D01*
X140144710Y-111573042D01*
X140146834Y-111558724D01*
X140150351Y-111544683D01*
X140155228Y-111531054D01*
X140161417Y-111517969D01*
X140168858Y-111505553D01*
X140177481Y-111493927D01*
X140187202Y-111483202D01*
X140197927Y-111473481D01*
X140209553Y-111464858D01*
X140221969Y-111457417D01*
X140235054Y-111451228D01*
X140248683Y-111446351D01*
X140262724Y-111442834D01*
X140277042Y-111440710D01*
X140291500Y-111440000D01*
X140586500Y-111440000D01*
X140600958Y-111440710D01*
X140600958Y-111440710D01*
G37*
D17*
X140439000Y-111760000D03*
D15*
G36*
X139632958Y-98788710D02*
X139647276Y-98790834D01*
X139661317Y-98794351D01*
X139674946Y-98799228D01*
X139688031Y-98805417D01*
X139700447Y-98812858D01*
X139712073Y-98821481D01*
X139722798Y-98831202D01*
X139732519Y-98841927D01*
X139741142Y-98853553D01*
X139748583Y-98865969D01*
X139754772Y-98879054D01*
X139759649Y-98892683D01*
X139763166Y-98906724D01*
X139765290Y-98921042D01*
X139766000Y-98935500D01*
X139766000Y-99230500D01*
X139765290Y-99244958D01*
X139763166Y-99259276D01*
X139759649Y-99273317D01*
X139754772Y-99286946D01*
X139748583Y-99300031D01*
X139741142Y-99312447D01*
X139732519Y-99324073D01*
X139722798Y-99334798D01*
X139712073Y-99344519D01*
X139700447Y-99353142D01*
X139688031Y-99360583D01*
X139674946Y-99366772D01*
X139661317Y-99371649D01*
X139647276Y-99375166D01*
X139632958Y-99377290D01*
X139618500Y-99378000D01*
X139273500Y-99378000D01*
X139259042Y-99377290D01*
X139244724Y-99375166D01*
X139230683Y-99371649D01*
X139217054Y-99366772D01*
X139203969Y-99360583D01*
X139191553Y-99353142D01*
X139179927Y-99344519D01*
X139169202Y-99334798D01*
X139159481Y-99324073D01*
X139150858Y-99312447D01*
X139143417Y-99300031D01*
X139137228Y-99286946D01*
X139132351Y-99273317D01*
X139128834Y-99259276D01*
X139126710Y-99244958D01*
X139126000Y-99230500D01*
X139126000Y-98935500D01*
X139126710Y-98921042D01*
X139128834Y-98906724D01*
X139132351Y-98892683D01*
X139137228Y-98879054D01*
X139143417Y-98865969D01*
X139150858Y-98853553D01*
X139159481Y-98841927D01*
X139169202Y-98831202D01*
X139179927Y-98821481D01*
X139191553Y-98812858D01*
X139203969Y-98805417D01*
X139217054Y-98799228D01*
X139230683Y-98794351D01*
X139244724Y-98790834D01*
X139259042Y-98788710D01*
X139273500Y-98788000D01*
X139618500Y-98788000D01*
X139632958Y-98788710D01*
X139632958Y-98788710D01*
G37*
D17*
X139446000Y-99083000D03*
D15*
G36*
X139632958Y-99758710D02*
X139647276Y-99760834D01*
X139661317Y-99764351D01*
X139674946Y-99769228D01*
X139688031Y-99775417D01*
X139700447Y-99782858D01*
X139712073Y-99791481D01*
X139722798Y-99801202D01*
X139732519Y-99811927D01*
X139741142Y-99823553D01*
X139748583Y-99835969D01*
X139754772Y-99849054D01*
X139759649Y-99862683D01*
X139763166Y-99876724D01*
X139765290Y-99891042D01*
X139766000Y-99905500D01*
X139766000Y-100200500D01*
X139765290Y-100214958D01*
X139763166Y-100229276D01*
X139759649Y-100243317D01*
X139754772Y-100256946D01*
X139748583Y-100270031D01*
X139741142Y-100282447D01*
X139732519Y-100294073D01*
X139722798Y-100304798D01*
X139712073Y-100314519D01*
X139700447Y-100323142D01*
X139688031Y-100330583D01*
X139674946Y-100336772D01*
X139661317Y-100341649D01*
X139647276Y-100345166D01*
X139632958Y-100347290D01*
X139618500Y-100348000D01*
X139273500Y-100348000D01*
X139259042Y-100347290D01*
X139244724Y-100345166D01*
X139230683Y-100341649D01*
X139217054Y-100336772D01*
X139203969Y-100330583D01*
X139191553Y-100323142D01*
X139179927Y-100314519D01*
X139169202Y-100304798D01*
X139159481Y-100294073D01*
X139150858Y-100282447D01*
X139143417Y-100270031D01*
X139137228Y-100256946D01*
X139132351Y-100243317D01*
X139128834Y-100229276D01*
X139126710Y-100214958D01*
X139126000Y-100200500D01*
X139126000Y-99905500D01*
X139126710Y-99891042D01*
X139128834Y-99876724D01*
X139132351Y-99862683D01*
X139137228Y-99849054D01*
X139143417Y-99835969D01*
X139150858Y-99823553D01*
X139159481Y-99811927D01*
X139169202Y-99801202D01*
X139179927Y-99791481D01*
X139191553Y-99782858D01*
X139203969Y-99775417D01*
X139217054Y-99769228D01*
X139230683Y-99764351D01*
X139244724Y-99760834D01*
X139259042Y-99758710D01*
X139273500Y-99758000D01*
X139618500Y-99758000D01*
X139632958Y-99758710D01*
X139632958Y-99758710D01*
G37*
D17*
X139446000Y-100053000D03*
D15*
G36*
X143188958Y-102552710D02*
X143203276Y-102554834D01*
X143217317Y-102558351D01*
X143230946Y-102563228D01*
X143244031Y-102569417D01*
X143256447Y-102576858D01*
X143268073Y-102585481D01*
X143278798Y-102595202D01*
X143288519Y-102605927D01*
X143297142Y-102617553D01*
X143304583Y-102629969D01*
X143310772Y-102643054D01*
X143315649Y-102656683D01*
X143319166Y-102670724D01*
X143321290Y-102685042D01*
X143322000Y-102699500D01*
X143322000Y-102994500D01*
X143321290Y-103008958D01*
X143319166Y-103023276D01*
X143315649Y-103037317D01*
X143310772Y-103050946D01*
X143304583Y-103064031D01*
X143297142Y-103076447D01*
X143288519Y-103088073D01*
X143278798Y-103098798D01*
X143268073Y-103108519D01*
X143256447Y-103117142D01*
X143244031Y-103124583D01*
X143230946Y-103130772D01*
X143217317Y-103135649D01*
X143203276Y-103139166D01*
X143188958Y-103141290D01*
X143174500Y-103142000D01*
X142829500Y-103142000D01*
X142815042Y-103141290D01*
X142800724Y-103139166D01*
X142786683Y-103135649D01*
X142773054Y-103130772D01*
X142759969Y-103124583D01*
X142747553Y-103117142D01*
X142735927Y-103108519D01*
X142725202Y-103098798D01*
X142715481Y-103088073D01*
X142706858Y-103076447D01*
X142699417Y-103064031D01*
X142693228Y-103050946D01*
X142688351Y-103037317D01*
X142684834Y-103023276D01*
X142682710Y-103008958D01*
X142682000Y-102994500D01*
X142682000Y-102699500D01*
X142682710Y-102685042D01*
X142684834Y-102670724D01*
X142688351Y-102656683D01*
X142693228Y-102643054D01*
X142699417Y-102629969D01*
X142706858Y-102617553D01*
X142715481Y-102605927D01*
X142725202Y-102595202D01*
X142735927Y-102585481D01*
X142747553Y-102576858D01*
X142759969Y-102569417D01*
X142773054Y-102563228D01*
X142786683Y-102558351D01*
X142800724Y-102554834D01*
X142815042Y-102552710D01*
X142829500Y-102552000D01*
X143174500Y-102552000D01*
X143188958Y-102552710D01*
X143188958Y-102552710D01*
G37*
D17*
X143002000Y-102847000D03*
D15*
G36*
X143188958Y-101582710D02*
X143203276Y-101584834D01*
X143217317Y-101588351D01*
X143230946Y-101593228D01*
X143244031Y-101599417D01*
X143256447Y-101606858D01*
X143268073Y-101615481D01*
X143278798Y-101625202D01*
X143288519Y-101635927D01*
X143297142Y-101647553D01*
X143304583Y-101659969D01*
X143310772Y-101673054D01*
X143315649Y-101686683D01*
X143319166Y-101700724D01*
X143321290Y-101715042D01*
X143322000Y-101729500D01*
X143322000Y-102024500D01*
X143321290Y-102038958D01*
X143319166Y-102053276D01*
X143315649Y-102067317D01*
X143310772Y-102080946D01*
X143304583Y-102094031D01*
X143297142Y-102106447D01*
X143288519Y-102118073D01*
X143278798Y-102128798D01*
X143268073Y-102138519D01*
X143256447Y-102147142D01*
X143244031Y-102154583D01*
X143230946Y-102160772D01*
X143217317Y-102165649D01*
X143203276Y-102169166D01*
X143188958Y-102171290D01*
X143174500Y-102172000D01*
X142829500Y-102172000D01*
X142815042Y-102171290D01*
X142800724Y-102169166D01*
X142786683Y-102165649D01*
X142773054Y-102160772D01*
X142759969Y-102154583D01*
X142747553Y-102147142D01*
X142735927Y-102138519D01*
X142725202Y-102128798D01*
X142715481Y-102118073D01*
X142706858Y-102106447D01*
X142699417Y-102094031D01*
X142693228Y-102080946D01*
X142688351Y-102067317D01*
X142684834Y-102053276D01*
X142682710Y-102038958D01*
X142682000Y-102024500D01*
X142682000Y-101729500D01*
X142682710Y-101715042D01*
X142684834Y-101700724D01*
X142688351Y-101686683D01*
X142693228Y-101673054D01*
X142699417Y-101659969D01*
X142706858Y-101647553D01*
X142715481Y-101635927D01*
X142725202Y-101625202D01*
X142735927Y-101615481D01*
X142747553Y-101606858D01*
X142759969Y-101599417D01*
X142773054Y-101593228D01*
X142786683Y-101588351D01*
X142800724Y-101584834D01*
X142815042Y-101582710D01*
X142829500Y-101582000D01*
X143174500Y-101582000D01*
X143188958Y-101582710D01*
X143188958Y-101582710D01*
G37*
D17*
X143002000Y-101877000D03*
D15*
G36*
X140646958Y-109916710D02*
X140661276Y-109918834D01*
X140675317Y-109922351D01*
X140688946Y-109927228D01*
X140702031Y-109933417D01*
X140714447Y-109940858D01*
X140726073Y-109949481D01*
X140736798Y-109959202D01*
X140746519Y-109969927D01*
X140755142Y-109981553D01*
X140762583Y-109993969D01*
X140768772Y-110007054D01*
X140773649Y-110020683D01*
X140777166Y-110034724D01*
X140779290Y-110049042D01*
X140780000Y-110063500D01*
X140780000Y-110408500D01*
X140779290Y-110422958D01*
X140777166Y-110437276D01*
X140773649Y-110451317D01*
X140768772Y-110464946D01*
X140762583Y-110478031D01*
X140755142Y-110490447D01*
X140746519Y-110502073D01*
X140736798Y-110512798D01*
X140726073Y-110522519D01*
X140714447Y-110531142D01*
X140702031Y-110538583D01*
X140688946Y-110544772D01*
X140675317Y-110549649D01*
X140661276Y-110553166D01*
X140646958Y-110555290D01*
X140632500Y-110556000D01*
X140337500Y-110556000D01*
X140323042Y-110555290D01*
X140308724Y-110553166D01*
X140294683Y-110549649D01*
X140281054Y-110544772D01*
X140267969Y-110538583D01*
X140255553Y-110531142D01*
X140243927Y-110522519D01*
X140233202Y-110512798D01*
X140223481Y-110502073D01*
X140214858Y-110490447D01*
X140207417Y-110478031D01*
X140201228Y-110464946D01*
X140196351Y-110451317D01*
X140192834Y-110437276D01*
X140190710Y-110422958D01*
X140190000Y-110408500D01*
X140190000Y-110063500D01*
X140190710Y-110049042D01*
X140192834Y-110034724D01*
X140196351Y-110020683D01*
X140201228Y-110007054D01*
X140207417Y-109993969D01*
X140214858Y-109981553D01*
X140223481Y-109969927D01*
X140233202Y-109959202D01*
X140243927Y-109949481D01*
X140255553Y-109940858D01*
X140267969Y-109933417D01*
X140281054Y-109927228D01*
X140294683Y-109922351D01*
X140308724Y-109918834D01*
X140323042Y-109916710D01*
X140337500Y-109916000D01*
X140632500Y-109916000D01*
X140646958Y-109916710D01*
X140646958Y-109916710D01*
G37*
D17*
X140485000Y-110236000D03*
D15*
G36*
X141616958Y-109916710D02*
X141631276Y-109918834D01*
X141645317Y-109922351D01*
X141658946Y-109927228D01*
X141672031Y-109933417D01*
X141684447Y-109940858D01*
X141696073Y-109949481D01*
X141706798Y-109959202D01*
X141716519Y-109969927D01*
X141725142Y-109981553D01*
X141732583Y-109993969D01*
X141738772Y-110007054D01*
X141743649Y-110020683D01*
X141747166Y-110034724D01*
X141749290Y-110049042D01*
X141750000Y-110063500D01*
X141750000Y-110408500D01*
X141749290Y-110422958D01*
X141747166Y-110437276D01*
X141743649Y-110451317D01*
X141738772Y-110464946D01*
X141732583Y-110478031D01*
X141725142Y-110490447D01*
X141716519Y-110502073D01*
X141706798Y-110512798D01*
X141696073Y-110522519D01*
X141684447Y-110531142D01*
X141672031Y-110538583D01*
X141658946Y-110544772D01*
X141645317Y-110549649D01*
X141631276Y-110553166D01*
X141616958Y-110555290D01*
X141602500Y-110556000D01*
X141307500Y-110556000D01*
X141293042Y-110555290D01*
X141278724Y-110553166D01*
X141264683Y-110549649D01*
X141251054Y-110544772D01*
X141237969Y-110538583D01*
X141225553Y-110531142D01*
X141213927Y-110522519D01*
X141203202Y-110512798D01*
X141193481Y-110502073D01*
X141184858Y-110490447D01*
X141177417Y-110478031D01*
X141171228Y-110464946D01*
X141166351Y-110451317D01*
X141162834Y-110437276D01*
X141160710Y-110422958D01*
X141160000Y-110408500D01*
X141160000Y-110063500D01*
X141160710Y-110049042D01*
X141162834Y-110034724D01*
X141166351Y-110020683D01*
X141171228Y-110007054D01*
X141177417Y-109993969D01*
X141184858Y-109981553D01*
X141193481Y-109969927D01*
X141203202Y-109959202D01*
X141213927Y-109949481D01*
X141225553Y-109940858D01*
X141237969Y-109933417D01*
X141251054Y-109927228D01*
X141264683Y-109922351D01*
X141278724Y-109918834D01*
X141293042Y-109916710D01*
X141307500Y-109916000D01*
X141602500Y-109916000D01*
X141616958Y-109916710D01*
X141616958Y-109916710D01*
G37*
D17*
X141455000Y-110236000D03*
D15*
G36*
X140394958Y-108625710D02*
X140409276Y-108627834D01*
X140423317Y-108631351D01*
X140436946Y-108636228D01*
X140450031Y-108642417D01*
X140462447Y-108649858D01*
X140474073Y-108658481D01*
X140484798Y-108668202D01*
X140494519Y-108678927D01*
X140503142Y-108690553D01*
X140510583Y-108702969D01*
X140516772Y-108716054D01*
X140521649Y-108729683D01*
X140525166Y-108743724D01*
X140527290Y-108758042D01*
X140528000Y-108772500D01*
X140528000Y-109067500D01*
X140527290Y-109081958D01*
X140525166Y-109096276D01*
X140521649Y-109110317D01*
X140516772Y-109123946D01*
X140510583Y-109137031D01*
X140503142Y-109149447D01*
X140494519Y-109161073D01*
X140484798Y-109171798D01*
X140474073Y-109181519D01*
X140462447Y-109190142D01*
X140450031Y-109197583D01*
X140436946Y-109203772D01*
X140423317Y-109208649D01*
X140409276Y-109212166D01*
X140394958Y-109214290D01*
X140380500Y-109215000D01*
X140035500Y-109215000D01*
X140021042Y-109214290D01*
X140006724Y-109212166D01*
X139992683Y-109208649D01*
X139979054Y-109203772D01*
X139965969Y-109197583D01*
X139953553Y-109190142D01*
X139941927Y-109181519D01*
X139931202Y-109171798D01*
X139921481Y-109161073D01*
X139912858Y-109149447D01*
X139905417Y-109137031D01*
X139899228Y-109123946D01*
X139894351Y-109110317D01*
X139890834Y-109096276D01*
X139888710Y-109081958D01*
X139888000Y-109067500D01*
X139888000Y-108772500D01*
X139888710Y-108758042D01*
X139890834Y-108743724D01*
X139894351Y-108729683D01*
X139899228Y-108716054D01*
X139905417Y-108702969D01*
X139912858Y-108690553D01*
X139921481Y-108678927D01*
X139931202Y-108668202D01*
X139941927Y-108658481D01*
X139953553Y-108649858D01*
X139965969Y-108642417D01*
X139979054Y-108636228D01*
X139992683Y-108631351D01*
X140006724Y-108627834D01*
X140021042Y-108625710D01*
X140035500Y-108625000D01*
X140380500Y-108625000D01*
X140394958Y-108625710D01*
X140394958Y-108625710D01*
G37*
D17*
X140208000Y-108920000D03*
D15*
G36*
X140394958Y-107655710D02*
X140409276Y-107657834D01*
X140423317Y-107661351D01*
X140436946Y-107666228D01*
X140450031Y-107672417D01*
X140462447Y-107679858D01*
X140474073Y-107688481D01*
X140484798Y-107698202D01*
X140494519Y-107708927D01*
X140503142Y-107720553D01*
X140510583Y-107732969D01*
X140516772Y-107746054D01*
X140521649Y-107759683D01*
X140525166Y-107773724D01*
X140527290Y-107788042D01*
X140528000Y-107802500D01*
X140528000Y-108097500D01*
X140527290Y-108111958D01*
X140525166Y-108126276D01*
X140521649Y-108140317D01*
X140516772Y-108153946D01*
X140510583Y-108167031D01*
X140503142Y-108179447D01*
X140494519Y-108191073D01*
X140484798Y-108201798D01*
X140474073Y-108211519D01*
X140462447Y-108220142D01*
X140450031Y-108227583D01*
X140436946Y-108233772D01*
X140423317Y-108238649D01*
X140409276Y-108242166D01*
X140394958Y-108244290D01*
X140380500Y-108245000D01*
X140035500Y-108245000D01*
X140021042Y-108244290D01*
X140006724Y-108242166D01*
X139992683Y-108238649D01*
X139979054Y-108233772D01*
X139965969Y-108227583D01*
X139953553Y-108220142D01*
X139941927Y-108211519D01*
X139931202Y-108201798D01*
X139921481Y-108191073D01*
X139912858Y-108179447D01*
X139905417Y-108167031D01*
X139899228Y-108153946D01*
X139894351Y-108140317D01*
X139890834Y-108126276D01*
X139888710Y-108111958D01*
X139888000Y-108097500D01*
X139888000Y-107802500D01*
X139888710Y-107788042D01*
X139890834Y-107773724D01*
X139894351Y-107759683D01*
X139899228Y-107746054D01*
X139905417Y-107732969D01*
X139912858Y-107720553D01*
X139921481Y-107708927D01*
X139931202Y-107698202D01*
X139941927Y-107688481D01*
X139953553Y-107679858D01*
X139965969Y-107672417D01*
X139979054Y-107666228D01*
X139992683Y-107661351D01*
X140006724Y-107657834D01*
X140021042Y-107655710D01*
X140035500Y-107655000D01*
X140380500Y-107655000D01*
X140394958Y-107655710D01*
X140394958Y-107655710D01*
G37*
D17*
X140208000Y-107950000D03*
D18*
X149860000Y-114300000D03*
X149860000Y-111760000D03*
X149860000Y-109220000D03*
X149860000Y-106680000D03*
X149860000Y-104140000D03*
X149860000Y-101600000D03*
X149860000Y-99060000D03*
D19*
X149860000Y-96520000D03*
D18*
X137160000Y-96520000D03*
X137160000Y-99060000D03*
X137160000Y-101600000D03*
X137160000Y-104140000D03*
X137160000Y-106680000D03*
X137160000Y-109220000D03*
X137160000Y-111760000D03*
D19*
X137160000Y-114300000D03*
D15*
G36*
X144949505Y-100934204D02*
X144973773Y-100937804D01*
X144997572Y-100943765D01*
X145020671Y-100952030D01*
X145042850Y-100962520D01*
X145063893Y-100975132D01*
X145083599Y-100989747D01*
X145101777Y-101006223D01*
X145118253Y-101024401D01*
X145132868Y-101044107D01*
X145145480Y-101065150D01*
X145155970Y-101087329D01*
X145164235Y-101110428D01*
X145170196Y-101134227D01*
X145173796Y-101158495D01*
X145175000Y-101182999D01*
X145175000Y-103033001D01*
X145173796Y-103057505D01*
X145170196Y-103081773D01*
X145164235Y-103105572D01*
X145155970Y-103128671D01*
X145145480Y-103150850D01*
X145132868Y-103171893D01*
X145118253Y-103191599D01*
X145101777Y-103209777D01*
X145083599Y-103226253D01*
X145063893Y-103240868D01*
X145042850Y-103253480D01*
X145020671Y-103263970D01*
X144997572Y-103272235D01*
X144973773Y-103278196D01*
X144949505Y-103281796D01*
X144925001Y-103283000D01*
X144099999Y-103283000D01*
X144075495Y-103281796D01*
X144051227Y-103278196D01*
X144027428Y-103272235D01*
X144004329Y-103263970D01*
X143982150Y-103253480D01*
X143961107Y-103240868D01*
X143941401Y-103226253D01*
X143923223Y-103209777D01*
X143906747Y-103191599D01*
X143892132Y-103171893D01*
X143879520Y-103150850D01*
X143869030Y-103128671D01*
X143860765Y-103105572D01*
X143854804Y-103081773D01*
X143851204Y-103057505D01*
X143850000Y-103033001D01*
X143850000Y-101182999D01*
X143851204Y-101158495D01*
X143854804Y-101134227D01*
X143860765Y-101110428D01*
X143869030Y-101087329D01*
X143879520Y-101065150D01*
X143892132Y-101044107D01*
X143906747Y-101024401D01*
X143923223Y-101006223D01*
X143941401Y-100989747D01*
X143961107Y-100975132D01*
X143982150Y-100962520D01*
X144004329Y-100952030D01*
X144027428Y-100943765D01*
X144051227Y-100937804D01*
X144075495Y-100934204D01*
X144099999Y-100933000D01*
X144925001Y-100933000D01*
X144949505Y-100934204D01*
X144949505Y-100934204D01*
G37*
D20*
X144512500Y-102108000D03*
D15*
G36*
X148024505Y-100934204D02*
X148048773Y-100937804D01*
X148072572Y-100943765D01*
X148095671Y-100952030D01*
X148117850Y-100962520D01*
X148138893Y-100975132D01*
X148158599Y-100989747D01*
X148176777Y-101006223D01*
X148193253Y-101024401D01*
X148207868Y-101044107D01*
X148220480Y-101065150D01*
X148230970Y-101087329D01*
X148239235Y-101110428D01*
X148245196Y-101134227D01*
X148248796Y-101158495D01*
X148250000Y-101182999D01*
X148250000Y-103033001D01*
X148248796Y-103057505D01*
X148245196Y-103081773D01*
X148239235Y-103105572D01*
X148230970Y-103128671D01*
X148220480Y-103150850D01*
X148207868Y-103171893D01*
X148193253Y-103191599D01*
X148176777Y-103209777D01*
X148158599Y-103226253D01*
X148138893Y-103240868D01*
X148117850Y-103253480D01*
X148095671Y-103263970D01*
X148072572Y-103272235D01*
X148048773Y-103278196D01*
X148024505Y-103281796D01*
X148000001Y-103283000D01*
X147174999Y-103283000D01*
X147150495Y-103281796D01*
X147126227Y-103278196D01*
X147102428Y-103272235D01*
X147079329Y-103263970D01*
X147057150Y-103253480D01*
X147036107Y-103240868D01*
X147016401Y-103226253D01*
X146998223Y-103209777D01*
X146981747Y-103191599D01*
X146967132Y-103171893D01*
X146954520Y-103150850D01*
X146944030Y-103128671D01*
X146935765Y-103105572D01*
X146929804Y-103081773D01*
X146926204Y-103057505D01*
X146925000Y-103033001D01*
X146925000Y-101182999D01*
X146926204Y-101158495D01*
X146929804Y-101134227D01*
X146935765Y-101110428D01*
X146944030Y-101087329D01*
X146954520Y-101065150D01*
X146967132Y-101044107D01*
X146981747Y-101024401D01*
X146998223Y-101006223D01*
X147016401Y-100989747D01*
X147036107Y-100975132D01*
X147057150Y-100962520D01*
X147079329Y-100952030D01*
X147102428Y-100943765D01*
X147126227Y-100937804D01*
X147150495Y-100934204D01*
X147174999Y-100933000D01*
X148000001Y-100933000D01*
X148024505Y-100934204D01*
X148024505Y-100934204D01*
G37*
D20*
X147587500Y-102108000D03*
D15*
G36*
X147343691Y-110536053D02*
X147364926Y-110539203D01*
X147385750Y-110544419D01*
X147405962Y-110551651D01*
X147425368Y-110560830D01*
X147443781Y-110571866D01*
X147461024Y-110584654D01*
X147476930Y-110599070D01*
X147491346Y-110614976D01*
X147504134Y-110632219D01*
X147515170Y-110650632D01*
X147524349Y-110670038D01*
X147531581Y-110690250D01*
X147536797Y-110711074D01*
X147539947Y-110732309D01*
X147541000Y-110753750D01*
X147541000Y-111191250D01*
X147539947Y-111212691D01*
X147536797Y-111233926D01*
X147531581Y-111254750D01*
X147524349Y-111274962D01*
X147515170Y-111294368D01*
X147504134Y-111312781D01*
X147491346Y-111330024D01*
X147476930Y-111345930D01*
X147461024Y-111360346D01*
X147443781Y-111373134D01*
X147425368Y-111384170D01*
X147405962Y-111393349D01*
X147385750Y-111400581D01*
X147364926Y-111405797D01*
X147343691Y-111408947D01*
X147322250Y-111410000D01*
X146809750Y-111410000D01*
X146788309Y-111408947D01*
X146767074Y-111405797D01*
X146746250Y-111400581D01*
X146726038Y-111393349D01*
X146706632Y-111384170D01*
X146688219Y-111373134D01*
X146670976Y-111360346D01*
X146655070Y-111345930D01*
X146640654Y-111330024D01*
X146627866Y-111312781D01*
X146616830Y-111294368D01*
X146607651Y-111274962D01*
X146600419Y-111254750D01*
X146595203Y-111233926D01*
X146592053Y-111212691D01*
X146591000Y-111191250D01*
X146591000Y-110753750D01*
X146592053Y-110732309D01*
X146595203Y-110711074D01*
X146600419Y-110690250D01*
X146607651Y-110670038D01*
X146616830Y-110650632D01*
X146627866Y-110632219D01*
X146640654Y-110614976D01*
X146655070Y-110599070D01*
X146670976Y-110584654D01*
X146688219Y-110571866D01*
X146706632Y-110560830D01*
X146726038Y-110551651D01*
X146746250Y-110544419D01*
X146767074Y-110539203D01*
X146788309Y-110536053D01*
X146809750Y-110535000D01*
X147322250Y-110535000D01*
X147343691Y-110536053D01*
X147343691Y-110536053D01*
G37*
D21*
X147066000Y-110972500D03*
D15*
G36*
X147343691Y-112111053D02*
X147364926Y-112114203D01*
X147385750Y-112119419D01*
X147405962Y-112126651D01*
X147425368Y-112135830D01*
X147443781Y-112146866D01*
X147461024Y-112159654D01*
X147476930Y-112174070D01*
X147491346Y-112189976D01*
X147504134Y-112207219D01*
X147515170Y-112225632D01*
X147524349Y-112245038D01*
X147531581Y-112265250D01*
X147536797Y-112286074D01*
X147539947Y-112307309D01*
X147541000Y-112328750D01*
X147541000Y-112766250D01*
X147539947Y-112787691D01*
X147536797Y-112808926D01*
X147531581Y-112829750D01*
X147524349Y-112849962D01*
X147515170Y-112869368D01*
X147504134Y-112887781D01*
X147491346Y-112905024D01*
X147476930Y-112920930D01*
X147461024Y-112935346D01*
X147443781Y-112948134D01*
X147425368Y-112959170D01*
X147405962Y-112968349D01*
X147385750Y-112975581D01*
X147364926Y-112980797D01*
X147343691Y-112983947D01*
X147322250Y-112985000D01*
X146809750Y-112985000D01*
X146788309Y-112983947D01*
X146767074Y-112980797D01*
X146746250Y-112975581D01*
X146726038Y-112968349D01*
X146706632Y-112959170D01*
X146688219Y-112948134D01*
X146670976Y-112935346D01*
X146655070Y-112920930D01*
X146640654Y-112905024D01*
X146627866Y-112887781D01*
X146616830Y-112869368D01*
X146607651Y-112849962D01*
X146600419Y-112829750D01*
X146595203Y-112808926D01*
X146592053Y-112787691D01*
X146591000Y-112766250D01*
X146591000Y-112328750D01*
X146592053Y-112307309D01*
X146595203Y-112286074D01*
X146600419Y-112265250D01*
X146607651Y-112245038D01*
X146616830Y-112225632D01*
X146627866Y-112207219D01*
X146640654Y-112189976D01*
X146655070Y-112174070D01*
X146670976Y-112159654D01*
X146688219Y-112146866D01*
X146706632Y-112135830D01*
X146726038Y-112126651D01*
X146746250Y-112119419D01*
X146767074Y-112114203D01*
X146788309Y-112111053D01*
X146809750Y-112110000D01*
X147322250Y-112110000D01*
X147343691Y-112111053D01*
X147343691Y-112111053D01*
G37*
D21*
X147066000Y-112547500D03*
D15*
G36*
X141918958Y-105138710D02*
X141933276Y-105140834D01*
X141947317Y-105144351D01*
X141960946Y-105149228D01*
X141974031Y-105155417D01*
X141986447Y-105162858D01*
X141998073Y-105171481D01*
X142008798Y-105181202D01*
X142018519Y-105191927D01*
X142027142Y-105203553D01*
X142034583Y-105215969D01*
X142040772Y-105229054D01*
X142045649Y-105242683D01*
X142049166Y-105256724D01*
X142051290Y-105271042D01*
X142052000Y-105285500D01*
X142052000Y-105580500D01*
X142051290Y-105594958D01*
X142049166Y-105609276D01*
X142045649Y-105623317D01*
X142040772Y-105636946D01*
X142034583Y-105650031D01*
X142027142Y-105662447D01*
X142018519Y-105674073D01*
X142008798Y-105684798D01*
X141998073Y-105694519D01*
X141986447Y-105703142D01*
X141974031Y-105710583D01*
X141960946Y-105716772D01*
X141947317Y-105721649D01*
X141933276Y-105725166D01*
X141918958Y-105727290D01*
X141904500Y-105728000D01*
X141559500Y-105728000D01*
X141545042Y-105727290D01*
X141530724Y-105725166D01*
X141516683Y-105721649D01*
X141503054Y-105716772D01*
X141489969Y-105710583D01*
X141477553Y-105703142D01*
X141465927Y-105694519D01*
X141455202Y-105684798D01*
X141445481Y-105674073D01*
X141436858Y-105662447D01*
X141429417Y-105650031D01*
X141423228Y-105636946D01*
X141418351Y-105623317D01*
X141414834Y-105609276D01*
X141412710Y-105594958D01*
X141412000Y-105580500D01*
X141412000Y-105285500D01*
X141412710Y-105271042D01*
X141414834Y-105256724D01*
X141418351Y-105242683D01*
X141423228Y-105229054D01*
X141429417Y-105215969D01*
X141436858Y-105203553D01*
X141445481Y-105191927D01*
X141455202Y-105181202D01*
X141465927Y-105171481D01*
X141477553Y-105162858D01*
X141489969Y-105155417D01*
X141503054Y-105149228D01*
X141516683Y-105144351D01*
X141530724Y-105140834D01*
X141545042Y-105138710D01*
X141559500Y-105138000D01*
X141904500Y-105138000D01*
X141918958Y-105138710D01*
X141918958Y-105138710D01*
G37*
D17*
X141732000Y-105433000D03*
D15*
G36*
X141918958Y-106108710D02*
X141933276Y-106110834D01*
X141947317Y-106114351D01*
X141960946Y-106119228D01*
X141974031Y-106125417D01*
X141986447Y-106132858D01*
X141998073Y-106141481D01*
X142008798Y-106151202D01*
X142018519Y-106161927D01*
X142027142Y-106173553D01*
X142034583Y-106185969D01*
X142040772Y-106199054D01*
X142045649Y-106212683D01*
X142049166Y-106226724D01*
X142051290Y-106241042D01*
X142052000Y-106255500D01*
X142052000Y-106550500D01*
X142051290Y-106564958D01*
X142049166Y-106579276D01*
X142045649Y-106593317D01*
X142040772Y-106606946D01*
X142034583Y-106620031D01*
X142027142Y-106632447D01*
X142018519Y-106644073D01*
X142008798Y-106654798D01*
X141998073Y-106664519D01*
X141986447Y-106673142D01*
X141974031Y-106680583D01*
X141960946Y-106686772D01*
X141947317Y-106691649D01*
X141933276Y-106695166D01*
X141918958Y-106697290D01*
X141904500Y-106698000D01*
X141559500Y-106698000D01*
X141545042Y-106697290D01*
X141530724Y-106695166D01*
X141516683Y-106691649D01*
X141503054Y-106686772D01*
X141489969Y-106680583D01*
X141477553Y-106673142D01*
X141465927Y-106664519D01*
X141455202Y-106654798D01*
X141445481Y-106644073D01*
X141436858Y-106632447D01*
X141429417Y-106620031D01*
X141423228Y-106606946D01*
X141418351Y-106593317D01*
X141414834Y-106579276D01*
X141412710Y-106564958D01*
X141412000Y-106550500D01*
X141412000Y-106255500D01*
X141412710Y-106241042D01*
X141414834Y-106226724D01*
X141418351Y-106212683D01*
X141423228Y-106199054D01*
X141429417Y-106185969D01*
X141436858Y-106173553D01*
X141445481Y-106161927D01*
X141455202Y-106151202D01*
X141465927Y-106141481D01*
X141477553Y-106132858D01*
X141489969Y-106125417D01*
X141503054Y-106119228D01*
X141516683Y-106114351D01*
X141530724Y-106110834D01*
X141545042Y-106108710D01*
X141559500Y-106108000D01*
X141904500Y-106108000D01*
X141918958Y-106108710D01*
X141918958Y-106108710D01*
G37*
D17*
X141732000Y-106403000D03*
D15*
G36*
X140648958Y-101582710D02*
X140663276Y-101584834D01*
X140677317Y-101588351D01*
X140690946Y-101593228D01*
X140704031Y-101599417D01*
X140716447Y-101606858D01*
X140728073Y-101615481D01*
X140738798Y-101625202D01*
X140748519Y-101635927D01*
X140757142Y-101647553D01*
X140764583Y-101659969D01*
X140770772Y-101673054D01*
X140775649Y-101686683D01*
X140779166Y-101700724D01*
X140781290Y-101715042D01*
X140782000Y-101729500D01*
X140782000Y-102024500D01*
X140781290Y-102038958D01*
X140779166Y-102053276D01*
X140775649Y-102067317D01*
X140770772Y-102080946D01*
X140764583Y-102094031D01*
X140757142Y-102106447D01*
X140748519Y-102118073D01*
X140738798Y-102128798D01*
X140728073Y-102138519D01*
X140716447Y-102147142D01*
X140704031Y-102154583D01*
X140690946Y-102160772D01*
X140677317Y-102165649D01*
X140663276Y-102169166D01*
X140648958Y-102171290D01*
X140634500Y-102172000D01*
X140289500Y-102172000D01*
X140275042Y-102171290D01*
X140260724Y-102169166D01*
X140246683Y-102165649D01*
X140233054Y-102160772D01*
X140219969Y-102154583D01*
X140207553Y-102147142D01*
X140195927Y-102138519D01*
X140185202Y-102128798D01*
X140175481Y-102118073D01*
X140166858Y-102106447D01*
X140159417Y-102094031D01*
X140153228Y-102080946D01*
X140148351Y-102067317D01*
X140144834Y-102053276D01*
X140142710Y-102038958D01*
X140142000Y-102024500D01*
X140142000Y-101729500D01*
X140142710Y-101715042D01*
X140144834Y-101700724D01*
X140148351Y-101686683D01*
X140153228Y-101673054D01*
X140159417Y-101659969D01*
X140166858Y-101647553D01*
X140175481Y-101635927D01*
X140185202Y-101625202D01*
X140195927Y-101615481D01*
X140207553Y-101606858D01*
X140219969Y-101599417D01*
X140233054Y-101593228D01*
X140246683Y-101588351D01*
X140260724Y-101584834D01*
X140275042Y-101582710D01*
X140289500Y-101582000D01*
X140634500Y-101582000D01*
X140648958Y-101582710D01*
X140648958Y-101582710D01*
G37*
D17*
X140462000Y-101877000D03*
D15*
G36*
X140648958Y-102552710D02*
X140663276Y-102554834D01*
X140677317Y-102558351D01*
X140690946Y-102563228D01*
X140704031Y-102569417D01*
X140716447Y-102576858D01*
X140728073Y-102585481D01*
X140738798Y-102595202D01*
X140748519Y-102605927D01*
X140757142Y-102617553D01*
X140764583Y-102629969D01*
X140770772Y-102643054D01*
X140775649Y-102656683D01*
X140779166Y-102670724D01*
X140781290Y-102685042D01*
X140782000Y-102699500D01*
X140782000Y-102994500D01*
X140781290Y-103008958D01*
X140779166Y-103023276D01*
X140775649Y-103037317D01*
X140770772Y-103050946D01*
X140764583Y-103064031D01*
X140757142Y-103076447D01*
X140748519Y-103088073D01*
X140738798Y-103098798D01*
X140728073Y-103108519D01*
X140716447Y-103117142D01*
X140704031Y-103124583D01*
X140690946Y-103130772D01*
X140677317Y-103135649D01*
X140663276Y-103139166D01*
X140648958Y-103141290D01*
X140634500Y-103142000D01*
X140289500Y-103142000D01*
X140275042Y-103141290D01*
X140260724Y-103139166D01*
X140246683Y-103135649D01*
X140233054Y-103130772D01*
X140219969Y-103124583D01*
X140207553Y-103117142D01*
X140195927Y-103108519D01*
X140185202Y-103098798D01*
X140175481Y-103088073D01*
X140166858Y-103076447D01*
X140159417Y-103064031D01*
X140153228Y-103050946D01*
X140148351Y-103037317D01*
X140144834Y-103023276D01*
X140142710Y-103008958D01*
X140142000Y-102994500D01*
X140142000Y-102699500D01*
X140142710Y-102685042D01*
X140144834Y-102670724D01*
X140148351Y-102656683D01*
X140153228Y-102643054D01*
X140159417Y-102629969D01*
X140166858Y-102617553D01*
X140175481Y-102605927D01*
X140185202Y-102595202D01*
X140195927Y-102585481D01*
X140207553Y-102576858D01*
X140219969Y-102569417D01*
X140233054Y-102563228D01*
X140246683Y-102558351D01*
X140260724Y-102554834D01*
X140275042Y-102552710D01*
X140289500Y-102552000D01*
X140634500Y-102552000D01*
X140648958Y-102552710D01*
X140648958Y-102552710D01*
G37*
D17*
X140462000Y-102847000D03*
D15*
G36*
X145172958Y-104328710D02*
X145187276Y-104330834D01*
X145201317Y-104334351D01*
X145214946Y-104339228D01*
X145228031Y-104345417D01*
X145240447Y-104352858D01*
X145252073Y-104361481D01*
X145262798Y-104371202D01*
X145272519Y-104381927D01*
X145281142Y-104393553D01*
X145288583Y-104405969D01*
X145294772Y-104419054D01*
X145299649Y-104432683D01*
X145303166Y-104446724D01*
X145305290Y-104461042D01*
X145306000Y-104475500D01*
X145306000Y-104820500D01*
X145305290Y-104834958D01*
X145303166Y-104849276D01*
X145299649Y-104863317D01*
X145294772Y-104876946D01*
X145288583Y-104890031D01*
X145281142Y-104902447D01*
X145272519Y-104914073D01*
X145262798Y-104924798D01*
X145252073Y-104934519D01*
X145240447Y-104943142D01*
X145228031Y-104950583D01*
X145214946Y-104956772D01*
X145201317Y-104961649D01*
X145187276Y-104965166D01*
X145172958Y-104967290D01*
X145158500Y-104968000D01*
X144863500Y-104968000D01*
X144849042Y-104967290D01*
X144834724Y-104965166D01*
X144820683Y-104961649D01*
X144807054Y-104956772D01*
X144793969Y-104950583D01*
X144781553Y-104943142D01*
X144769927Y-104934519D01*
X144759202Y-104924798D01*
X144749481Y-104914073D01*
X144740858Y-104902447D01*
X144733417Y-104890031D01*
X144727228Y-104876946D01*
X144722351Y-104863317D01*
X144718834Y-104849276D01*
X144716710Y-104834958D01*
X144716000Y-104820500D01*
X144716000Y-104475500D01*
X144716710Y-104461042D01*
X144718834Y-104446724D01*
X144722351Y-104432683D01*
X144727228Y-104419054D01*
X144733417Y-104405969D01*
X144740858Y-104393553D01*
X144749481Y-104381927D01*
X144759202Y-104371202D01*
X144769927Y-104361481D01*
X144781553Y-104352858D01*
X144793969Y-104345417D01*
X144807054Y-104339228D01*
X144820683Y-104334351D01*
X144834724Y-104330834D01*
X144849042Y-104328710D01*
X144863500Y-104328000D01*
X145158500Y-104328000D01*
X145172958Y-104328710D01*
X145172958Y-104328710D01*
G37*
D17*
X145011000Y-104648000D03*
D15*
G36*
X144202958Y-104328710D02*
X144217276Y-104330834D01*
X144231317Y-104334351D01*
X144244946Y-104339228D01*
X144258031Y-104345417D01*
X144270447Y-104352858D01*
X144282073Y-104361481D01*
X144292798Y-104371202D01*
X144302519Y-104381927D01*
X144311142Y-104393553D01*
X144318583Y-104405969D01*
X144324772Y-104419054D01*
X144329649Y-104432683D01*
X144333166Y-104446724D01*
X144335290Y-104461042D01*
X144336000Y-104475500D01*
X144336000Y-104820500D01*
X144335290Y-104834958D01*
X144333166Y-104849276D01*
X144329649Y-104863317D01*
X144324772Y-104876946D01*
X144318583Y-104890031D01*
X144311142Y-104902447D01*
X144302519Y-104914073D01*
X144292798Y-104924798D01*
X144282073Y-104934519D01*
X144270447Y-104943142D01*
X144258031Y-104950583D01*
X144244946Y-104956772D01*
X144231317Y-104961649D01*
X144217276Y-104965166D01*
X144202958Y-104967290D01*
X144188500Y-104968000D01*
X143893500Y-104968000D01*
X143879042Y-104967290D01*
X143864724Y-104965166D01*
X143850683Y-104961649D01*
X143837054Y-104956772D01*
X143823969Y-104950583D01*
X143811553Y-104943142D01*
X143799927Y-104934519D01*
X143789202Y-104924798D01*
X143779481Y-104914073D01*
X143770858Y-104902447D01*
X143763417Y-104890031D01*
X143757228Y-104876946D01*
X143752351Y-104863317D01*
X143748834Y-104849276D01*
X143746710Y-104834958D01*
X143746000Y-104820500D01*
X143746000Y-104475500D01*
X143746710Y-104461042D01*
X143748834Y-104446724D01*
X143752351Y-104432683D01*
X143757228Y-104419054D01*
X143763417Y-104405969D01*
X143770858Y-104393553D01*
X143779481Y-104381927D01*
X143789202Y-104371202D01*
X143799927Y-104361481D01*
X143811553Y-104352858D01*
X143823969Y-104345417D01*
X143837054Y-104339228D01*
X143850683Y-104334351D01*
X143864724Y-104330834D01*
X143879042Y-104328710D01*
X143893500Y-104328000D01*
X144188500Y-104328000D01*
X144202958Y-104328710D01*
X144202958Y-104328710D01*
G37*
D17*
X144041000Y-104648000D03*
D15*
G36*
X141664958Y-108648710D02*
X141679276Y-108650834D01*
X141693317Y-108654351D01*
X141706946Y-108659228D01*
X141720031Y-108665417D01*
X141732447Y-108672858D01*
X141744073Y-108681481D01*
X141754798Y-108691202D01*
X141764519Y-108701927D01*
X141773142Y-108713553D01*
X141780583Y-108725969D01*
X141786772Y-108739054D01*
X141791649Y-108752683D01*
X141795166Y-108766724D01*
X141797290Y-108781042D01*
X141798000Y-108795500D01*
X141798000Y-109090500D01*
X141797290Y-109104958D01*
X141795166Y-109119276D01*
X141791649Y-109133317D01*
X141786772Y-109146946D01*
X141780583Y-109160031D01*
X141773142Y-109172447D01*
X141764519Y-109184073D01*
X141754798Y-109194798D01*
X141744073Y-109204519D01*
X141732447Y-109213142D01*
X141720031Y-109220583D01*
X141706946Y-109226772D01*
X141693317Y-109231649D01*
X141679276Y-109235166D01*
X141664958Y-109237290D01*
X141650500Y-109238000D01*
X141305500Y-109238000D01*
X141291042Y-109237290D01*
X141276724Y-109235166D01*
X141262683Y-109231649D01*
X141249054Y-109226772D01*
X141235969Y-109220583D01*
X141223553Y-109213142D01*
X141211927Y-109204519D01*
X141201202Y-109194798D01*
X141191481Y-109184073D01*
X141182858Y-109172447D01*
X141175417Y-109160031D01*
X141169228Y-109146946D01*
X141164351Y-109133317D01*
X141160834Y-109119276D01*
X141158710Y-109104958D01*
X141158000Y-109090500D01*
X141158000Y-108795500D01*
X141158710Y-108781042D01*
X141160834Y-108766724D01*
X141164351Y-108752683D01*
X141169228Y-108739054D01*
X141175417Y-108725969D01*
X141182858Y-108713553D01*
X141191481Y-108701927D01*
X141201202Y-108691202D01*
X141211927Y-108681481D01*
X141223553Y-108672858D01*
X141235969Y-108665417D01*
X141249054Y-108659228D01*
X141262683Y-108654351D01*
X141276724Y-108650834D01*
X141291042Y-108648710D01*
X141305500Y-108648000D01*
X141650500Y-108648000D01*
X141664958Y-108648710D01*
X141664958Y-108648710D01*
G37*
D17*
X141478000Y-108943000D03*
D15*
G36*
X141664958Y-107678710D02*
X141679276Y-107680834D01*
X141693317Y-107684351D01*
X141706946Y-107689228D01*
X141720031Y-107695417D01*
X141732447Y-107702858D01*
X141744073Y-107711481D01*
X141754798Y-107721202D01*
X141764519Y-107731927D01*
X141773142Y-107743553D01*
X141780583Y-107755969D01*
X141786772Y-107769054D01*
X141791649Y-107782683D01*
X141795166Y-107796724D01*
X141797290Y-107811042D01*
X141798000Y-107825500D01*
X141798000Y-108120500D01*
X141797290Y-108134958D01*
X141795166Y-108149276D01*
X141791649Y-108163317D01*
X141786772Y-108176946D01*
X141780583Y-108190031D01*
X141773142Y-108202447D01*
X141764519Y-108214073D01*
X141754798Y-108224798D01*
X141744073Y-108234519D01*
X141732447Y-108243142D01*
X141720031Y-108250583D01*
X141706946Y-108256772D01*
X141693317Y-108261649D01*
X141679276Y-108265166D01*
X141664958Y-108267290D01*
X141650500Y-108268000D01*
X141305500Y-108268000D01*
X141291042Y-108267290D01*
X141276724Y-108265166D01*
X141262683Y-108261649D01*
X141249054Y-108256772D01*
X141235969Y-108250583D01*
X141223553Y-108243142D01*
X141211927Y-108234519D01*
X141201202Y-108224798D01*
X141191481Y-108214073D01*
X141182858Y-108202447D01*
X141175417Y-108190031D01*
X141169228Y-108176946D01*
X141164351Y-108163317D01*
X141160834Y-108149276D01*
X141158710Y-108134958D01*
X141158000Y-108120500D01*
X141158000Y-107825500D01*
X141158710Y-107811042D01*
X141160834Y-107796724D01*
X141164351Y-107782683D01*
X141169228Y-107769054D01*
X141175417Y-107755969D01*
X141182858Y-107743553D01*
X141191481Y-107731927D01*
X141201202Y-107721202D01*
X141211927Y-107711481D01*
X141223553Y-107702858D01*
X141235969Y-107695417D01*
X141249054Y-107689228D01*
X141262683Y-107684351D01*
X141276724Y-107680834D01*
X141291042Y-107678710D01*
X141305500Y-107678000D01*
X141650500Y-107678000D01*
X141664958Y-107678710D01*
X141664958Y-107678710D01*
G37*
D17*
X141478000Y-107973000D03*
D22*
X144780000Y-107950000D03*
X144780000Y-106934000D03*
X145796000Y-107950000D03*
X145796000Y-106934000D03*
X139700000Y-96266000D03*
X145288000Y-97790000D03*
X139700000Y-104648000D03*
X142494000Y-109474000D03*
X141986000Y-114300000D03*
X143002000Y-114300000D03*
X147066000Y-114300000D03*
X148082000Y-114300000D03*
X139192000Y-107188000D03*
X144780000Y-99568000D03*
X140970000Y-98044000D03*
X142748000Y-97790000D03*
X138938000Y-113030000D03*
X140462000Y-113030000D03*
X138684000Y-110744000D03*
X138430000Y-100330000D03*
X138430000Y-98298000D03*
X142494000Y-113030000D03*
X143256000Y-112522000D03*
X148844000Y-110490000D03*
X148336000Y-106426000D03*
X148590000Y-100076000D03*
X146050000Y-102108000D03*
X142240000Y-104394000D03*
X148336000Y-104394000D03*
X139446000Y-109982000D03*
X139192000Y-108458000D03*
X143002000Y-105410000D03*
X143002000Y-106606179D03*
X138430000Y-109982000D03*
X138430000Y-108458000D03*
X142494000Y-110236000D03*
X143002000Y-101092000D03*
X142494000Y-108458000D03*
X139446000Y-101092000D03*
X143002000Y-111506000D03*
X141478000Y-111506000D03*
X141732000Y-107188000D03*
X143001215Y-107663390D03*
X146812000Y-108966000D03*
X145139355Y-110087355D03*
X146812000Y-104902000D03*
X146304000Y-100584000D03*
X147574000Y-110236000D03*
X147562024Y-107599890D03*
X147543572Y-100584000D03*
D23*
X145538000Y-107192000D02*
X145288000Y-107442000D01*
X146763000Y-107192000D02*
X145538000Y-107192000D01*
X140150832Y-103805832D02*
X140485000Y-104140000D01*
X139740610Y-102178390D02*
X139740610Y-103395610D01*
X140042000Y-101877000D02*
X139740610Y-102178390D01*
X139740610Y-103395610D02*
X140150832Y-103805832D01*
X140462000Y-101877000D02*
X140042000Y-101877000D01*
X141478000Y-108943000D02*
X141963000Y-108943000D01*
X141963000Y-108943000D02*
X142494000Y-109474000D01*
X141455000Y-107950000D02*
X141478000Y-107973000D01*
X140208000Y-107950000D02*
X141455000Y-107950000D01*
X140485000Y-110236000D02*
X139700000Y-110236000D01*
X139700000Y-110236000D02*
X139446000Y-109982000D01*
X139700000Y-108458000D02*
X140208000Y-107950000D01*
X139192000Y-108458000D02*
X139700000Y-108458000D01*
X141909275Y-107973000D02*
X142747486Y-107134789D01*
X142747486Y-107134789D02*
X143228389Y-107134789D01*
X143228389Y-107134789D02*
X143285600Y-107192000D01*
X143285600Y-107192000D02*
X143813000Y-107192000D01*
X141478000Y-107973000D02*
X141909275Y-107973000D01*
X143002000Y-103609000D02*
X144041000Y-104648000D01*
X143002000Y-102847000D02*
X143002000Y-103609000D01*
X145038000Y-105645000D02*
X145038000Y-105967000D01*
X144041000Y-104648000D02*
X145038000Y-105645000D01*
X142948000Y-99240000D02*
X142748000Y-99240000D01*
X143998000Y-98190000D02*
X142948000Y-99240000D01*
X143998000Y-96340000D02*
X143998000Y-98190000D01*
X142748000Y-99240000D02*
X143550610Y-100042610D01*
X143550610Y-100042610D02*
X143550610Y-102298390D01*
X143336168Y-102512832D02*
X143002000Y-102847000D01*
X143550610Y-102298390D02*
X143336168Y-102512832D01*
X140462000Y-102847000D02*
X141732000Y-102847000D01*
X143002000Y-104117000D02*
X141732000Y-102847000D01*
X143002000Y-105410000D02*
X143002000Y-104117000D01*
X143813000Y-106692000D02*
X143087821Y-106692000D01*
X143087821Y-106692000D02*
X143002000Y-106606179D01*
X141120832Y-101172168D02*
X141455000Y-100838000D01*
X141120832Y-102235832D02*
X141120832Y-101172168D01*
X141732000Y-102847000D02*
X141120832Y-102235832D01*
X141455000Y-105156000D02*
X141732000Y-105433000D01*
X141455000Y-104140000D02*
X141455000Y-105156000D01*
X142168000Y-105967000D02*
X141732000Y-106403000D01*
X144538000Y-105967000D02*
X142168000Y-105967000D01*
X141732000Y-106403000D02*
X140462000Y-106403000D01*
X140462000Y-100815000D02*
X140485000Y-100838000D01*
X140462000Y-99247100D02*
X140462000Y-100815000D01*
X138584899Y-97369999D02*
X140462000Y-99247100D01*
X137160000Y-96520000D02*
X138009999Y-97369999D01*
X138009999Y-97369999D02*
X138584899Y-97369999D01*
X139423000Y-99060000D02*
X139446000Y-99083000D01*
X137160000Y-99060000D02*
X139423000Y-99060000D01*
X139169000Y-101854000D02*
X139192000Y-101877000D01*
X137160000Y-101600000D02*
X137414000Y-101854000D01*
X137414000Y-101854000D02*
X139169000Y-101854000D01*
X138362081Y-111760000D02*
X139469000Y-111760000D01*
X137160000Y-111760000D02*
X138362081Y-111760000D01*
X138009999Y-110402001D02*
X138430000Y-109982000D01*
X137160000Y-111760000D02*
X138009999Y-110910001D01*
X138009999Y-110910001D02*
X138009999Y-110402001D01*
X138430000Y-105410000D02*
X137160000Y-104140000D01*
X138430000Y-108458000D02*
X138430000Y-105410000D01*
X139908000Y-109220000D02*
X140208000Y-108920000D01*
X137160000Y-109220000D02*
X139908000Y-109220000D01*
X137160000Y-109220000D02*
X137160000Y-106680000D01*
X137160000Y-114300000D02*
X139469000Y-114300000D01*
X142494000Y-110236000D02*
X141455000Y-110236000D01*
X143002000Y-101092000D02*
X143002000Y-101877000D01*
X141732000Y-101877000D02*
X143002000Y-101877000D01*
D24*
X148657919Y-109220000D02*
X149860000Y-109220000D01*
X145538000Y-109571400D02*
X145550710Y-109584110D01*
X148293809Y-109584110D02*
X148657919Y-109220000D01*
X145550710Y-109584110D02*
X148293809Y-109584110D01*
X145538000Y-108917000D02*
X145538000Y-109571400D01*
X148348000Y-108192000D02*
X149860000Y-106680000D01*
X146763000Y-108192000D02*
X148348000Y-108192000D01*
X149540000Y-104140000D02*
X149860000Y-104140000D01*
X146988000Y-106692000D02*
X149540000Y-104140000D01*
X146763000Y-106692000D02*
X146988000Y-106692000D01*
X149010001Y-102449999D02*
X149860000Y-101600000D01*
X147275490Y-103575110D02*
X148224552Y-103575110D01*
X149010001Y-102789661D02*
X149010001Y-102449999D01*
X148224552Y-103575110D02*
X149010001Y-102789661D01*
X145538000Y-105312600D02*
X147275490Y-103575110D01*
X145538000Y-105967000D02*
X145538000Y-105312600D01*
D23*
X142760000Y-108192000D02*
X142494000Y-108458000D01*
X143813000Y-108192000D02*
X142760000Y-108192000D01*
X139446000Y-101092000D02*
X139446000Y-100053000D01*
X143002000Y-111477142D02*
X143002000Y-111506000D01*
X145038000Y-108917000D02*
X145038000Y-109441142D01*
X145038000Y-109441142D02*
X143002000Y-111477142D01*
X140693000Y-111506000D02*
X140439000Y-111760000D01*
X141478000Y-111506000D02*
X140693000Y-111506000D01*
X143813000Y-107692000D02*
X143029825Y-107692000D01*
X143029825Y-107692000D02*
X143001215Y-107663390D01*
X139192000Y-103242000D02*
X139192000Y-102847000D01*
X141732000Y-107188000D02*
X140395100Y-107188000D01*
X138938000Y-103496000D02*
X139192000Y-103242000D01*
X138938000Y-105730900D02*
X138938000Y-103496000D01*
X140395100Y-107188000D02*
X138938000Y-105730900D01*
X142006601Y-111673399D02*
X144538000Y-109142000D01*
X144538000Y-109142000D02*
X144538000Y-108917000D01*
X142006601Y-112732399D02*
X142006601Y-111673399D01*
X140439000Y-114300000D02*
X142006601Y-112732399D01*
D24*
X146038000Y-108917000D02*
X146763000Y-108917000D01*
X146763000Y-108917000D02*
X146812000Y-108966000D01*
X145034000Y-111122000D02*
X145034000Y-110192710D01*
X145034000Y-110192710D02*
X145139355Y-110087355D01*
X146038000Y-105967000D02*
X146038000Y-105676000D01*
X146038000Y-105676000D02*
X146812000Y-104902000D01*
X146304000Y-99698000D02*
X146812000Y-99190000D01*
X146304000Y-100584000D02*
X146304000Y-99698000D01*
D25*
X147574000Y-110464500D02*
X147066000Y-110972500D01*
X147574000Y-110236000D02*
X147574000Y-110464500D01*
D24*
X146763000Y-107692000D02*
X147539572Y-107692000D01*
D23*
X147562024Y-107669548D02*
X147562024Y-107599890D01*
X147539572Y-107692000D02*
X147562024Y-107669548D01*
D25*
X147587500Y-100627928D02*
X147543572Y-100584000D01*
X147587500Y-102108000D02*
X147587500Y-100627928D01*
D26*
G36*
X148972499Y-110107501D02*
X149379688Y-110379576D01*
X149738761Y-110451000D01*
X149981239Y-110451000D01*
X150340312Y-110379576D01*
X150689001Y-110146590D01*
X150689001Y-110833410D01*
X150340312Y-110600424D01*
X149981239Y-110529000D01*
X149738761Y-110529000D01*
X149379688Y-110600424D01*
X148972499Y-110872499D01*
X148700424Y-111279688D01*
X148604884Y-111760000D01*
X148700424Y-112240312D01*
X148972499Y-112647501D01*
X149379688Y-112919576D01*
X149738761Y-112991000D01*
X149981239Y-112991000D01*
X150340312Y-112919576D01*
X150689001Y-112686590D01*
X150689001Y-113414394D01*
X150608056Y-113322348D01*
X150176982Y-113110499D01*
X149987000Y-113170807D01*
X149987000Y-114173000D01*
X150007000Y-114173000D01*
X150007000Y-114427000D01*
X149987000Y-114427000D01*
X149987000Y-114447000D01*
X149733000Y-114447000D01*
X149733000Y-114427000D01*
X148731373Y-114427000D01*
X148670511Y-114616980D01*
X148794755Y-114916964D01*
X148981219Y-115129000D01*
X138398464Y-115129000D01*
X138398464Y-114757200D01*
X138879518Y-114757200D01*
X138942516Y-114851484D01*
X139116395Y-114967666D01*
X139321500Y-115008464D01*
X139616500Y-115008464D01*
X139821605Y-114967666D01*
X139954000Y-114879203D01*
X140086395Y-114967666D01*
X140291500Y-115008464D01*
X140586500Y-115008464D01*
X140791605Y-114967666D01*
X140965484Y-114851484D01*
X141081666Y-114677605D01*
X141122464Y-114472500D01*
X141122464Y-114263114D01*
X141241328Y-114144250D01*
X143778000Y-114144250D01*
X143778000Y-114622786D01*
X143836004Y-114762820D01*
X143943181Y-114869996D01*
X144083215Y-114928000D01*
X144811750Y-114928000D01*
X144907000Y-114832750D01*
X144907000Y-114049000D01*
X145161000Y-114049000D01*
X145161000Y-114832750D01*
X145256250Y-114928000D01*
X145984785Y-114928000D01*
X146124819Y-114869996D01*
X146231996Y-114762820D01*
X146290000Y-114622786D01*
X146290000Y-114144250D01*
X146194750Y-114049000D01*
X145161000Y-114049000D01*
X144907000Y-114049000D01*
X143873250Y-114049000D01*
X143778000Y-114144250D01*
X141241328Y-114144250D01*
X141402558Y-113983020D01*
X148670511Y-113983020D01*
X148731373Y-114173000D01*
X149733000Y-114173000D01*
X149733000Y-113170807D01*
X149543018Y-113110499D01*
X149111944Y-113322348D01*
X148794755Y-113683036D01*
X148670511Y-113983020D01*
X141402558Y-113983020D01*
X142164364Y-113221214D01*
X143778000Y-113221214D01*
X143778000Y-113699750D01*
X143873250Y-113795000D01*
X144907000Y-113795000D01*
X144907000Y-113011250D01*
X145161000Y-113011250D01*
X145161000Y-113795000D01*
X146194750Y-113795000D01*
X146290000Y-113699750D01*
X146290000Y-113222816D01*
X146375181Y-113307996D01*
X146515215Y-113366000D01*
X146843750Y-113366000D01*
X146939000Y-113270750D01*
X146939000Y-112674500D01*
X147193000Y-112674500D01*
X147193000Y-113270750D01*
X147288250Y-113366000D01*
X147616785Y-113366000D01*
X147756819Y-113307996D01*
X147863996Y-113200820D01*
X147922000Y-113060786D01*
X147922000Y-112769750D01*
X147826750Y-112674500D01*
X147193000Y-112674500D01*
X146939000Y-112674500D01*
X146305250Y-112674500D01*
X146210000Y-112769750D01*
X146210000Y-113059184D01*
X146124819Y-112974004D01*
X145984785Y-112916000D01*
X145256250Y-112916000D01*
X145161000Y-113011250D01*
X144907000Y-113011250D01*
X144811750Y-112916000D01*
X144083215Y-112916000D01*
X143943181Y-112974004D01*
X143836004Y-113081180D01*
X143778000Y-113221214D01*
X142164364Y-113221214D01*
X142298047Y-113087531D01*
X142336224Y-113062022D01*
X142437274Y-112910790D01*
X142463801Y-112777429D01*
X142463801Y-112777428D01*
X142472758Y-112732399D01*
X142463801Y-112687369D01*
X142463801Y-111930881D01*
X142616244Y-112083324D01*
X142866541Y-112187000D01*
X143137459Y-112187000D01*
X143387756Y-112083324D01*
X143579324Y-111891756D01*
X143683000Y-111641459D01*
X143683000Y-111442720D01*
X143770536Y-111355184D01*
X143770536Y-111497000D01*
X143819136Y-111741330D01*
X143957538Y-111948462D01*
X144164670Y-112086864D01*
X144409000Y-112135464D01*
X145659000Y-112135464D01*
X145903330Y-112086864D01*
X146110462Y-111948462D01*
X146248864Y-111741330D01*
X146297464Y-111497000D01*
X146297464Y-111496516D01*
X146380385Y-111620615D01*
X146542594Y-111729000D01*
X146515215Y-111729000D01*
X146375181Y-111787004D01*
X146268004Y-111894180D01*
X146210000Y-112034214D01*
X146210000Y-112325250D01*
X146305250Y-112420500D01*
X146939000Y-112420500D01*
X146939000Y-112400500D01*
X147193000Y-112400500D01*
X147193000Y-112420500D01*
X147826750Y-112420500D01*
X147922000Y-112325250D01*
X147922000Y-112034214D01*
X147863996Y-111894180D01*
X147756819Y-111787004D01*
X147616785Y-111729000D01*
X147589406Y-111729000D01*
X147751615Y-111620615D01*
X147883243Y-111423621D01*
X147929464Y-111191250D01*
X147929464Y-110971141D01*
X147962599Y-110938006D01*
X148013497Y-110903997D01*
X148148230Y-110702353D01*
X148176215Y-110561664D01*
X148255000Y-110371459D01*
X148255000Y-110107291D01*
X148293809Y-110115011D01*
X148345092Y-110104810D01*
X148345093Y-110104810D01*
X148496976Y-110074599D01*
X148669213Y-109959514D01*
X148698266Y-109916033D01*
X148785965Y-109828334D01*
X148972499Y-110107501D01*
X148972499Y-110107501D01*
G37*
X148972499Y-110107501D02*
X149379688Y-110379576D01*
X149738761Y-110451000D01*
X149981239Y-110451000D01*
X150340312Y-110379576D01*
X150689001Y-110146590D01*
X150689001Y-110833410D01*
X150340312Y-110600424D01*
X149981239Y-110529000D01*
X149738761Y-110529000D01*
X149379688Y-110600424D01*
X148972499Y-110872499D01*
X148700424Y-111279688D01*
X148604884Y-111760000D01*
X148700424Y-112240312D01*
X148972499Y-112647501D01*
X149379688Y-112919576D01*
X149738761Y-112991000D01*
X149981239Y-112991000D01*
X150340312Y-112919576D01*
X150689001Y-112686590D01*
X150689001Y-113414394D01*
X150608056Y-113322348D01*
X150176982Y-113110499D01*
X149987000Y-113170807D01*
X149987000Y-114173000D01*
X150007000Y-114173000D01*
X150007000Y-114427000D01*
X149987000Y-114427000D01*
X149987000Y-114447000D01*
X149733000Y-114447000D01*
X149733000Y-114427000D01*
X148731373Y-114427000D01*
X148670511Y-114616980D01*
X148794755Y-114916964D01*
X148981219Y-115129000D01*
X138398464Y-115129000D01*
X138398464Y-114757200D01*
X138879518Y-114757200D01*
X138942516Y-114851484D01*
X139116395Y-114967666D01*
X139321500Y-115008464D01*
X139616500Y-115008464D01*
X139821605Y-114967666D01*
X139954000Y-114879203D01*
X140086395Y-114967666D01*
X140291500Y-115008464D01*
X140586500Y-115008464D01*
X140791605Y-114967666D01*
X140965484Y-114851484D01*
X141081666Y-114677605D01*
X141122464Y-114472500D01*
X141122464Y-114263114D01*
X141241328Y-114144250D01*
X143778000Y-114144250D01*
X143778000Y-114622786D01*
X143836004Y-114762820D01*
X143943181Y-114869996D01*
X144083215Y-114928000D01*
X144811750Y-114928000D01*
X144907000Y-114832750D01*
X144907000Y-114049000D01*
X145161000Y-114049000D01*
X145161000Y-114832750D01*
X145256250Y-114928000D01*
X145984785Y-114928000D01*
X146124819Y-114869996D01*
X146231996Y-114762820D01*
X146290000Y-114622786D01*
X146290000Y-114144250D01*
X146194750Y-114049000D01*
X145161000Y-114049000D01*
X144907000Y-114049000D01*
X143873250Y-114049000D01*
X143778000Y-114144250D01*
X141241328Y-114144250D01*
X141402558Y-113983020D01*
X148670511Y-113983020D01*
X148731373Y-114173000D01*
X149733000Y-114173000D01*
X149733000Y-113170807D01*
X149543018Y-113110499D01*
X149111944Y-113322348D01*
X148794755Y-113683036D01*
X148670511Y-113983020D01*
X141402558Y-113983020D01*
X142164364Y-113221214D01*
X143778000Y-113221214D01*
X143778000Y-113699750D01*
X143873250Y-113795000D01*
X144907000Y-113795000D01*
X144907000Y-113011250D01*
X145161000Y-113011250D01*
X145161000Y-113795000D01*
X146194750Y-113795000D01*
X146290000Y-113699750D01*
X146290000Y-113222816D01*
X146375181Y-113307996D01*
X146515215Y-113366000D01*
X146843750Y-113366000D01*
X146939000Y-113270750D01*
X146939000Y-112674500D01*
X147193000Y-112674500D01*
X147193000Y-113270750D01*
X147288250Y-113366000D01*
X147616785Y-113366000D01*
X147756819Y-113307996D01*
X147863996Y-113200820D01*
X147922000Y-113060786D01*
X147922000Y-112769750D01*
X147826750Y-112674500D01*
X147193000Y-112674500D01*
X146939000Y-112674500D01*
X146305250Y-112674500D01*
X146210000Y-112769750D01*
X146210000Y-113059184D01*
X146124819Y-112974004D01*
X145984785Y-112916000D01*
X145256250Y-112916000D01*
X145161000Y-113011250D01*
X144907000Y-113011250D01*
X144811750Y-112916000D01*
X144083215Y-112916000D01*
X143943181Y-112974004D01*
X143836004Y-113081180D01*
X143778000Y-113221214D01*
X142164364Y-113221214D01*
X142298047Y-113087531D01*
X142336224Y-113062022D01*
X142437274Y-112910790D01*
X142463801Y-112777429D01*
X142463801Y-112777428D01*
X142472758Y-112732399D01*
X142463801Y-112687369D01*
X142463801Y-111930881D01*
X142616244Y-112083324D01*
X142866541Y-112187000D01*
X143137459Y-112187000D01*
X143387756Y-112083324D01*
X143579324Y-111891756D01*
X143683000Y-111641459D01*
X143683000Y-111442720D01*
X143770536Y-111355184D01*
X143770536Y-111497000D01*
X143819136Y-111741330D01*
X143957538Y-111948462D01*
X144164670Y-112086864D01*
X144409000Y-112135464D01*
X145659000Y-112135464D01*
X145903330Y-112086864D01*
X146110462Y-111948462D01*
X146248864Y-111741330D01*
X146297464Y-111497000D01*
X146297464Y-111496516D01*
X146380385Y-111620615D01*
X146542594Y-111729000D01*
X146515215Y-111729000D01*
X146375181Y-111787004D01*
X146268004Y-111894180D01*
X146210000Y-112034214D01*
X146210000Y-112325250D01*
X146305250Y-112420500D01*
X146939000Y-112420500D01*
X146939000Y-112400500D01*
X147193000Y-112400500D01*
X147193000Y-112420500D01*
X147826750Y-112420500D01*
X147922000Y-112325250D01*
X147922000Y-112034214D01*
X147863996Y-111894180D01*
X147756819Y-111787004D01*
X147616785Y-111729000D01*
X147589406Y-111729000D01*
X147751615Y-111620615D01*
X147883243Y-111423621D01*
X147929464Y-111191250D01*
X147929464Y-110971141D01*
X147962599Y-110938006D01*
X148013497Y-110903997D01*
X148148230Y-110702353D01*
X148176215Y-110561664D01*
X148255000Y-110371459D01*
X148255000Y-110107291D01*
X148293809Y-110115011D01*
X148345092Y-110104810D01*
X148345093Y-110104810D01*
X148496976Y-110074599D01*
X148669213Y-109959514D01*
X148698266Y-109916033D01*
X148785965Y-109828334D01*
X148972499Y-110107501D01*
G36*
X141342541Y-112187000D02*
X141549402Y-112187000D01*
X141549401Y-112543021D01*
X140500886Y-113591536D01*
X140291500Y-113591536D01*
X140086395Y-113632334D01*
X139954000Y-113720797D01*
X139821605Y-113632334D01*
X139616500Y-113591536D01*
X139321500Y-113591536D01*
X139116395Y-113632334D01*
X138942516Y-113748516D01*
X138879518Y-113842800D01*
X138398464Y-113842800D01*
X138398464Y-113450000D01*
X138368894Y-113301341D01*
X138284686Y-113175314D01*
X138158659Y-113091106D01*
X138010000Y-113061536D01*
X136331000Y-113061536D01*
X136331000Y-112686590D01*
X136679688Y-112919576D01*
X137038761Y-112991000D01*
X137281239Y-112991000D01*
X137640312Y-112919576D01*
X138047501Y-112647501D01*
X138319576Y-112240312D01*
X138324173Y-112217200D01*
X138879518Y-112217200D01*
X138942516Y-112311484D01*
X139116395Y-112427666D01*
X139321500Y-112468464D01*
X139616500Y-112468464D01*
X139821605Y-112427666D01*
X139954000Y-112339203D01*
X140086395Y-112427666D01*
X140291500Y-112468464D01*
X140586500Y-112468464D01*
X140791605Y-112427666D01*
X140965484Y-112311484D01*
X141081666Y-112137605D01*
X141092446Y-112083408D01*
X141342541Y-112187000D01*
X141342541Y-112187000D01*
G37*
X141342541Y-112187000D02*
X141549402Y-112187000D01*
X141549401Y-112543021D01*
X140500886Y-113591536D01*
X140291500Y-113591536D01*
X140086395Y-113632334D01*
X139954000Y-113720797D01*
X139821605Y-113632334D01*
X139616500Y-113591536D01*
X139321500Y-113591536D01*
X139116395Y-113632334D01*
X138942516Y-113748516D01*
X138879518Y-113842800D01*
X138398464Y-113842800D01*
X138398464Y-113450000D01*
X138368894Y-113301341D01*
X138284686Y-113175314D01*
X138158659Y-113091106D01*
X138010000Y-113061536D01*
X136331000Y-113061536D01*
X136331000Y-112686590D01*
X136679688Y-112919576D01*
X137038761Y-112991000D01*
X137281239Y-112991000D01*
X137640312Y-112919576D01*
X138047501Y-112647501D01*
X138319576Y-112240312D01*
X138324173Y-112217200D01*
X138879518Y-112217200D01*
X138942516Y-112311484D01*
X139116395Y-112427666D01*
X139321500Y-112468464D01*
X139616500Y-112468464D01*
X139821605Y-112427666D01*
X139954000Y-112339203D01*
X140086395Y-112427666D01*
X140291500Y-112468464D01*
X140586500Y-112468464D01*
X140791605Y-112427666D01*
X140965484Y-112311484D01*
X141081666Y-112137605D01*
X141092446Y-112083408D01*
X141342541Y-112187000D01*
G36*
X139060244Y-110559324D02*
X139310541Y-110663000D01*
X139516112Y-110663000D01*
X139521609Y-110666673D01*
X139699999Y-110702157D01*
X139745029Y-110693200D01*
X139895518Y-110693200D01*
X139958516Y-110787484D01*
X140132395Y-110903666D01*
X140337500Y-110944464D01*
X140632500Y-110944464D01*
X140837605Y-110903666D01*
X140970000Y-110815203D01*
X141102395Y-110903666D01*
X141136328Y-110910416D01*
X141092244Y-110928676D01*
X140972120Y-111048800D01*
X140738029Y-111048800D01*
X140692999Y-111039843D01*
X140610357Y-111056281D01*
X140586500Y-111051536D01*
X140291500Y-111051536D01*
X140086395Y-111092334D01*
X139954000Y-111180797D01*
X139821605Y-111092334D01*
X139616500Y-111051536D01*
X139321500Y-111051536D01*
X139116395Y-111092334D01*
X138942516Y-111208516D01*
X138879518Y-111302800D01*
X138324173Y-111302800D01*
X138319576Y-111279688D01*
X138307256Y-111261250D01*
X138339622Y-111239624D01*
X138440672Y-111088392D01*
X138467199Y-110955031D01*
X138467199Y-110955030D01*
X138476156Y-110910002D01*
X138467199Y-110864972D01*
X138467199Y-110663000D01*
X138565459Y-110663000D01*
X138815756Y-110559324D01*
X138938000Y-110437080D01*
X139060244Y-110559324D01*
X139060244Y-110559324D01*
G37*
X139060244Y-110559324D02*
X139310541Y-110663000D01*
X139516112Y-110663000D01*
X139521609Y-110666673D01*
X139699999Y-110702157D01*
X139745029Y-110693200D01*
X139895518Y-110693200D01*
X139958516Y-110787484D01*
X140132395Y-110903666D01*
X140337500Y-110944464D01*
X140632500Y-110944464D01*
X140837605Y-110903666D01*
X140970000Y-110815203D01*
X141102395Y-110903666D01*
X141136328Y-110910416D01*
X141092244Y-110928676D01*
X140972120Y-111048800D01*
X140738029Y-111048800D01*
X140692999Y-111039843D01*
X140610357Y-111056281D01*
X140586500Y-111051536D01*
X140291500Y-111051536D01*
X140086395Y-111092334D01*
X139954000Y-111180797D01*
X139821605Y-111092334D01*
X139616500Y-111051536D01*
X139321500Y-111051536D01*
X139116395Y-111092334D01*
X138942516Y-111208516D01*
X138879518Y-111302800D01*
X138324173Y-111302800D01*
X138319576Y-111279688D01*
X138307256Y-111261250D01*
X138339622Y-111239624D01*
X138440672Y-111088392D01*
X138467199Y-110955031D01*
X138467199Y-110955030D01*
X138476156Y-110910002D01*
X138467199Y-110864972D01*
X138467199Y-110663000D01*
X138565459Y-110663000D01*
X138815756Y-110559324D01*
X138938000Y-110437080D01*
X139060244Y-110559324D01*
G36*
X143380814Y-108692190D02*
X143535706Y-108723000D01*
X144007000Y-108723000D01*
X144007000Y-109026421D01*
X143104085Y-109929336D01*
X143071324Y-109850244D01*
X142879756Y-109658676D01*
X142629459Y-109555000D01*
X142358541Y-109555000D01*
X142108244Y-109658676D01*
X142021907Y-109745013D01*
X141981484Y-109684516D01*
X141879740Y-109616533D01*
X142013819Y-109560996D01*
X142120996Y-109453820D01*
X142179000Y-109313786D01*
X142179000Y-109165250D01*
X142083752Y-109070002D01*
X142179000Y-109070002D01*
X142179000Y-109064632D01*
X142358541Y-109139000D01*
X142629459Y-109139000D01*
X142879756Y-109035324D01*
X143071324Y-108843756D01*
X143151911Y-108649200D01*
X143316475Y-108649200D01*
X143380814Y-108692190D01*
X143380814Y-108692190D01*
G37*
X143380814Y-108692190D02*
X143535706Y-108723000D01*
X144007000Y-108723000D01*
X144007000Y-109026421D01*
X143104085Y-109929336D01*
X143071324Y-109850244D01*
X142879756Y-109658676D01*
X142629459Y-109555000D01*
X142358541Y-109555000D01*
X142108244Y-109658676D01*
X142021907Y-109745013D01*
X141981484Y-109684516D01*
X141879740Y-109616533D01*
X142013819Y-109560996D01*
X142120996Y-109453820D01*
X142179000Y-109313786D01*
X142179000Y-109165250D01*
X142083752Y-109070002D01*
X142179000Y-109070002D01*
X142179000Y-109064632D01*
X142358541Y-109139000D01*
X142629459Y-109139000D01*
X142879756Y-109035324D01*
X143071324Y-108843756D01*
X143151911Y-108649200D01*
X143316475Y-108649200D01*
X143380814Y-108692190D01*
G36*
X141605000Y-108816000D02*
X141625000Y-108816000D01*
X141625000Y-109070000D01*
X141605000Y-109070000D01*
X141605000Y-109090000D01*
X141351000Y-109090000D01*
X141351000Y-109070000D01*
X141331000Y-109070000D01*
X141331000Y-108816000D01*
X141351000Y-108816000D01*
X141351000Y-108796000D01*
X141605000Y-108796000D01*
X141605000Y-108816000D01*
X141605000Y-108816000D01*
G37*
X141605000Y-108816000D02*
X141625000Y-108816000D01*
X141625000Y-109070000D01*
X141605000Y-109070000D01*
X141605000Y-109090000D01*
X141351000Y-109090000D01*
X141351000Y-109070000D01*
X141331000Y-109070000D01*
X141331000Y-108816000D01*
X141351000Y-108816000D01*
X141351000Y-108796000D01*
X141605000Y-108796000D01*
X141605000Y-108816000D01*
G36*
X139861641Y-107301119D02*
X139830395Y-107307334D01*
X139656516Y-107423516D01*
X139540334Y-107597395D01*
X139499536Y-107802500D01*
X139499536Y-107848276D01*
X139327459Y-107777000D01*
X139056541Y-107777000D01*
X138887200Y-107847143D01*
X138887200Y-106326678D01*
X139861641Y-107301119D01*
X139861641Y-107301119D01*
G37*
X139861641Y-107301119D02*
X139830395Y-107307334D01*
X139656516Y-107423516D01*
X139540334Y-107597395D01*
X139499536Y-107802500D01*
X139499536Y-107848276D01*
X139327459Y-107777000D01*
X139056541Y-107777000D01*
X138887200Y-107847143D01*
X138887200Y-106326678D01*
X139861641Y-107301119D01*
G36*
X145415000Y-107315000D02*
X145435000Y-107315000D01*
X145435000Y-107569000D01*
X145415000Y-107569000D01*
X145415000Y-107589000D01*
X145161000Y-107589000D01*
X145161000Y-107569000D01*
X145141000Y-107569000D01*
X145141000Y-107315000D01*
X145161000Y-107315000D01*
X145161000Y-107295000D01*
X145415000Y-107295000D01*
X145415000Y-107315000D01*
X145415000Y-107315000D01*
G37*
X145415000Y-107315000D02*
X145435000Y-107315000D01*
X145435000Y-107569000D01*
X145415000Y-107569000D01*
X145415000Y-107589000D01*
X145161000Y-107589000D01*
X145161000Y-107569000D01*
X145141000Y-107569000D01*
X145141000Y-107315000D01*
X145161000Y-107315000D01*
X145161000Y-107295000D01*
X145415000Y-107295000D01*
X145415000Y-107315000D01*
G36*
X150689001Y-105753410D02*
X150340312Y-105520424D01*
X149981239Y-105449000D01*
X149738761Y-105449000D01*
X149379688Y-105520424D01*
X148972499Y-105792499D01*
X148700424Y-106199688D01*
X148604884Y-106680000D01*
X148690948Y-107112672D01*
X148243024Y-107560596D01*
X148243024Y-107464431D01*
X148139348Y-107214134D01*
X147947780Y-107022566D01*
X147697483Y-106918890D01*
X147497490Y-106918890D01*
X149222101Y-105194280D01*
X149379688Y-105299576D01*
X149738761Y-105371000D01*
X149981239Y-105371000D01*
X150340312Y-105299576D01*
X150689000Y-105066590D01*
X150689001Y-105753410D01*
X150689001Y-105753410D01*
G37*
X150689001Y-105753410D02*
X150340312Y-105520424D01*
X149981239Y-105449000D01*
X149738761Y-105449000D01*
X149379688Y-105520424D01*
X148972499Y-105792499D01*
X148700424Y-106199688D01*
X148604884Y-106680000D01*
X148690948Y-107112672D01*
X148243024Y-107560596D01*
X148243024Y-107464431D01*
X148139348Y-107214134D01*
X147947780Y-107022566D01*
X147697483Y-106918890D01*
X147497490Y-106918890D01*
X149222101Y-105194280D01*
X149379688Y-105299576D01*
X149738761Y-105371000D01*
X149981239Y-105371000D01*
X150340312Y-105299576D01*
X150689000Y-105066590D01*
X150689001Y-105753410D01*
G36*
X148604884Y-104140000D02*
X148637856Y-104305763D01*
X146782620Y-106161000D01*
X146569000Y-106161000D01*
X146569000Y-105881380D01*
X146867381Y-105583000D01*
X146947459Y-105583000D01*
X147197756Y-105479324D01*
X147389324Y-105287756D01*
X147493000Y-105037459D01*
X147493000Y-104766541D01*
X147389324Y-104516244D01*
X147230030Y-104356950D01*
X147491171Y-104095810D01*
X148173269Y-104095810D01*
X148224552Y-104106011D01*
X148275835Y-104095810D01*
X148275836Y-104095810D01*
X148427719Y-104065599D01*
X148599956Y-103950514D01*
X148629009Y-103907033D01*
X148656740Y-103879302D01*
X148604884Y-104140000D01*
X148604884Y-104140000D01*
G37*
X148604884Y-104140000D02*
X148637856Y-104305763D01*
X146782620Y-106161000D01*
X146569000Y-106161000D01*
X146569000Y-105881380D01*
X146867381Y-105583000D01*
X146947459Y-105583000D01*
X147197756Y-105479324D01*
X147389324Y-105287756D01*
X147493000Y-105037459D01*
X147493000Y-104766541D01*
X147389324Y-104516244D01*
X147230030Y-104356950D01*
X147491171Y-104095810D01*
X148173269Y-104095810D01*
X148224552Y-104106011D01*
X148275835Y-104095810D01*
X148275836Y-104095810D01*
X148427719Y-104065599D01*
X148599956Y-103950514D01*
X148629009Y-103907033D01*
X148656740Y-103879302D01*
X148604884Y-104140000D01*
G36*
X139910516Y-103373484D02*
X140048997Y-103466014D01*
X139974180Y-103497004D01*
X139867004Y-103604181D01*
X139809000Y-103744215D01*
X139809000Y-103917750D01*
X139904250Y-104013000D01*
X140358000Y-104013000D01*
X140358000Y-103993000D01*
X140612000Y-103993000D01*
X140612000Y-104013000D01*
X140632000Y-104013000D01*
X140632000Y-104267000D01*
X140612000Y-104267000D01*
X140612000Y-104745750D01*
X140653750Y-104787500D01*
X140589000Y-104852250D01*
X140589000Y-105306000D01*
X140609000Y-105306000D01*
X140609000Y-105560000D01*
X140589000Y-105560000D01*
X140589000Y-105580000D01*
X140335000Y-105580000D01*
X140335000Y-105560000D01*
X139856250Y-105560000D01*
X139761000Y-105655250D01*
X139761000Y-105803786D01*
X139819004Y-105943820D01*
X139846903Y-105971719D01*
X139838289Y-105984611D01*
X139395200Y-105541522D01*
X139395200Y-105062214D01*
X139761000Y-105062214D01*
X139761000Y-105210750D01*
X139856250Y-105306000D01*
X140335000Y-105306000D01*
X140335000Y-104852250D01*
X140293250Y-104810500D01*
X140358000Y-104745750D01*
X140358000Y-104267000D01*
X139904250Y-104267000D01*
X139809000Y-104362250D01*
X139809000Y-104535785D01*
X139867004Y-104675819D01*
X139974180Y-104782996D01*
X139988818Y-104789059D01*
X139926181Y-104815004D01*
X139819004Y-104922180D01*
X139761000Y-105062214D01*
X139395200Y-105062214D01*
X139395200Y-103685378D01*
X139483446Y-103597132D01*
X139521623Y-103571623D01*
X139581853Y-103481482D01*
X139743484Y-103373484D01*
X139827000Y-103248493D01*
X139910516Y-103373484D01*
X139910516Y-103373484D01*
G37*
X139910516Y-103373484D02*
X140048997Y-103466014D01*
X139974180Y-103497004D01*
X139867004Y-103604181D01*
X139809000Y-103744215D01*
X139809000Y-103917750D01*
X139904250Y-104013000D01*
X140358000Y-104013000D01*
X140358000Y-103993000D01*
X140612000Y-103993000D01*
X140612000Y-104013000D01*
X140632000Y-104013000D01*
X140632000Y-104267000D01*
X140612000Y-104267000D01*
X140612000Y-104745750D01*
X140653750Y-104787500D01*
X140589000Y-104852250D01*
X140589000Y-105306000D01*
X140609000Y-105306000D01*
X140609000Y-105560000D01*
X140589000Y-105560000D01*
X140589000Y-105580000D01*
X140335000Y-105580000D01*
X140335000Y-105560000D01*
X139856250Y-105560000D01*
X139761000Y-105655250D01*
X139761000Y-105803786D01*
X139819004Y-105943820D01*
X139846903Y-105971719D01*
X139838289Y-105984611D01*
X139395200Y-105541522D01*
X139395200Y-105062214D01*
X139761000Y-105062214D01*
X139761000Y-105210750D01*
X139856250Y-105306000D01*
X140335000Y-105306000D01*
X140335000Y-104852250D01*
X140293250Y-104810500D01*
X140358000Y-104745750D01*
X140358000Y-104267000D01*
X139904250Y-104267000D01*
X139809000Y-104362250D01*
X139809000Y-104535785D01*
X139867004Y-104675819D01*
X139974180Y-104782996D01*
X139988818Y-104789059D01*
X139926181Y-104815004D01*
X139819004Y-104922180D01*
X139761000Y-105062214D01*
X139395200Y-105062214D01*
X139395200Y-103685378D01*
X139483446Y-103597132D01*
X139521623Y-103571623D01*
X139581853Y-103481482D01*
X139743484Y-103373484D01*
X139827000Y-103248493D01*
X139910516Y-103373484D01*
G36*
X142544801Y-104306380D02*
X142544800Y-104904120D01*
X142424676Y-105024244D01*
X142400234Y-105083252D01*
X142399666Y-105080395D01*
X142283484Y-104906516D01*
X142109605Y-104790334D01*
X141912200Y-104751068D01*
X141912200Y-104737778D01*
X141981484Y-104691484D01*
X142097666Y-104517605D01*
X142138464Y-104312500D01*
X142138464Y-103967500D01*
X142121714Y-103883293D01*
X142544801Y-104306380D01*
X142544801Y-104306380D01*
G37*
X142544801Y-104306380D02*
X142544800Y-104904120D01*
X142424676Y-105024244D01*
X142400234Y-105083252D01*
X142399666Y-105080395D01*
X142283484Y-104906516D01*
X142109605Y-104790334D01*
X141912200Y-104751068D01*
X141912200Y-104737778D01*
X141981484Y-104691484D01*
X142097666Y-104517605D01*
X142138464Y-104312500D01*
X142138464Y-103967500D01*
X142121714Y-103883293D01*
X142544801Y-104306380D01*
G36*
X145556000Y-96167750D02*
X145651250Y-96263000D01*
X146685000Y-96263000D01*
X146685000Y-96243000D01*
X146939000Y-96243000D01*
X146939000Y-96263000D01*
X147972750Y-96263000D01*
X148068000Y-96167750D01*
X148068000Y-95691000D01*
X148621536Y-95691000D01*
X148621536Y-97370000D01*
X148651106Y-97518659D01*
X148735314Y-97644686D01*
X148861341Y-97728894D01*
X149010000Y-97758464D01*
X150689000Y-97758464D01*
X150689000Y-98174393D01*
X150608056Y-98082348D01*
X150176982Y-97870499D01*
X149987000Y-97930807D01*
X149987000Y-98933000D01*
X150007000Y-98933000D01*
X150007000Y-99187000D01*
X149987000Y-99187000D01*
X149987000Y-100189193D01*
X150176982Y-100249501D01*
X150608056Y-100037652D01*
X150689000Y-99945607D01*
X150689000Y-100673410D01*
X150340312Y-100440424D01*
X149981239Y-100369000D01*
X149738761Y-100369000D01*
X149379688Y-100440424D01*
X148972499Y-100712499D01*
X148700424Y-101119688D01*
X148638464Y-101431182D01*
X148638464Y-101182999D01*
X148589864Y-100938670D01*
X148451463Y-100731537D01*
X148244330Y-100593136D01*
X148224572Y-100589206D01*
X148224572Y-100448541D01*
X148120896Y-100198244D01*
X147929328Y-100006676D01*
X147902442Y-99995540D01*
X148026864Y-99809330D01*
X148075464Y-99565000D01*
X148075464Y-99376980D01*
X148670511Y-99376980D01*
X148794755Y-99676964D01*
X149111944Y-100037652D01*
X149543018Y-100249501D01*
X149733000Y-100189193D01*
X149733000Y-99187000D01*
X148731373Y-99187000D01*
X148670511Y-99376980D01*
X148075464Y-99376980D01*
X148075464Y-98815000D01*
X148061147Y-98743020D01*
X148670511Y-98743020D01*
X148731373Y-98933000D01*
X149733000Y-98933000D01*
X149733000Y-97930807D01*
X149543018Y-97870499D01*
X149111944Y-98082348D01*
X148794755Y-98443036D01*
X148670511Y-98743020D01*
X148061147Y-98743020D01*
X148026864Y-98570670D01*
X147888462Y-98363538D01*
X147681330Y-98225136D01*
X147437000Y-98176536D01*
X146187000Y-98176536D01*
X145942670Y-98225136D01*
X145735538Y-98363538D01*
X145597136Y-98570670D01*
X145548536Y-98815000D01*
X145548536Y-99565000D01*
X145597136Y-99809330D01*
X145735538Y-100016462D01*
X145783301Y-100048376D01*
X145783300Y-100141620D01*
X145726676Y-100198244D01*
X145623000Y-100448541D01*
X145623000Y-100719459D01*
X145726676Y-100969756D01*
X145918244Y-101161324D01*
X146168541Y-101265000D01*
X146439459Y-101265000D01*
X146536536Y-101224790D01*
X146536536Y-103033001D01*
X146585136Y-103277330D01*
X146685974Y-103428245D01*
X145593222Y-104520998D01*
X145591752Y-104520998D01*
X145687000Y-104425750D01*
X145687000Y-104252215D01*
X145628996Y-104112181D01*
X145521820Y-104005004D01*
X145381786Y-103947000D01*
X145233250Y-103947000D01*
X145138000Y-104042250D01*
X145138000Y-104521000D01*
X145158000Y-104521000D01*
X145158000Y-104775000D01*
X145138000Y-104775000D01*
X145138000Y-104795000D01*
X144884000Y-104795000D01*
X144884000Y-104775000D01*
X144864000Y-104775000D01*
X144864000Y-104521000D01*
X144884000Y-104521000D01*
X144884000Y-104042250D01*
X144788750Y-103947000D01*
X144640214Y-103947000D01*
X144500180Y-104005004D01*
X144472281Y-104032903D01*
X144393605Y-103980334D01*
X144188500Y-103939536D01*
X143979115Y-103939536D01*
X143653631Y-103614053D01*
X143774214Y-103664000D01*
X144290250Y-103664000D01*
X144385500Y-103568750D01*
X144385500Y-102235000D01*
X144639500Y-102235000D01*
X144639500Y-103568750D01*
X144734750Y-103664000D01*
X145250786Y-103664000D01*
X145390820Y-103605996D01*
X145497996Y-103498819D01*
X145556000Y-103358785D01*
X145556000Y-102330250D01*
X145460750Y-102235000D01*
X144639500Y-102235000D01*
X144385500Y-102235000D01*
X144365500Y-102235000D01*
X144365500Y-101981000D01*
X144385500Y-101981000D01*
X144385500Y-100647250D01*
X144639500Y-100647250D01*
X144639500Y-101981000D01*
X145460750Y-101981000D01*
X145556000Y-101885750D01*
X145556000Y-100857215D01*
X145497996Y-100717181D01*
X145390820Y-100610004D01*
X145250786Y-100552000D01*
X144734750Y-100552000D01*
X144639500Y-100647250D01*
X144385500Y-100647250D01*
X144290250Y-100552000D01*
X144007810Y-100552000D01*
X144007810Y-100324626D01*
X144022686Y-100314686D01*
X144106894Y-100188659D01*
X144136464Y-100040000D01*
X144136464Y-98698115D01*
X144289449Y-98545130D01*
X144327623Y-98519623D01*
X144428673Y-98368391D01*
X144455200Y-98235030D01*
X144464157Y-98190001D01*
X144455200Y-98144971D01*
X144455200Y-97528464D01*
X144648000Y-97528464D01*
X144796659Y-97498894D01*
X144922686Y-97414686D01*
X145006894Y-97288659D01*
X145036464Y-97140000D01*
X145036464Y-96612250D01*
X145556000Y-96612250D01*
X145556000Y-97090786D01*
X145614004Y-97230820D01*
X145721181Y-97337996D01*
X145861215Y-97396000D01*
X146589750Y-97396000D01*
X146685000Y-97300750D01*
X146685000Y-96517000D01*
X146939000Y-96517000D01*
X146939000Y-97300750D01*
X147034250Y-97396000D01*
X147762785Y-97396000D01*
X147902819Y-97337996D01*
X148009996Y-97230820D01*
X148068000Y-97090786D01*
X148068000Y-96612250D01*
X147972750Y-96517000D01*
X146939000Y-96517000D01*
X146685000Y-96517000D01*
X145651250Y-96517000D01*
X145556000Y-96612250D01*
X145036464Y-96612250D01*
X145036464Y-95691000D01*
X145556000Y-95691000D01*
X145556000Y-96167750D01*
X145556000Y-96167750D01*
G37*
X145556000Y-96167750D02*
X145651250Y-96263000D01*
X146685000Y-96263000D01*
X146685000Y-96243000D01*
X146939000Y-96243000D01*
X146939000Y-96263000D01*
X147972750Y-96263000D01*
X148068000Y-96167750D01*
X148068000Y-95691000D01*
X148621536Y-95691000D01*
X148621536Y-97370000D01*
X148651106Y-97518659D01*
X148735314Y-97644686D01*
X148861341Y-97728894D01*
X149010000Y-97758464D01*
X150689000Y-97758464D01*
X150689000Y-98174393D01*
X150608056Y-98082348D01*
X150176982Y-97870499D01*
X149987000Y-97930807D01*
X149987000Y-98933000D01*
X150007000Y-98933000D01*
X150007000Y-99187000D01*
X149987000Y-99187000D01*
X149987000Y-100189193D01*
X150176982Y-100249501D01*
X150608056Y-100037652D01*
X150689000Y-99945607D01*
X150689000Y-100673410D01*
X150340312Y-100440424D01*
X149981239Y-100369000D01*
X149738761Y-100369000D01*
X149379688Y-100440424D01*
X148972499Y-100712499D01*
X148700424Y-101119688D01*
X148638464Y-101431182D01*
X148638464Y-101182999D01*
X148589864Y-100938670D01*
X148451463Y-100731537D01*
X148244330Y-100593136D01*
X148224572Y-100589206D01*
X148224572Y-100448541D01*
X148120896Y-100198244D01*
X147929328Y-100006676D01*
X147902442Y-99995540D01*
X148026864Y-99809330D01*
X148075464Y-99565000D01*
X148075464Y-99376980D01*
X148670511Y-99376980D01*
X148794755Y-99676964D01*
X149111944Y-100037652D01*
X149543018Y-100249501D01*
X149733000Y-100189193D01*
X149733000Y-99187000D01*
X148731373Y-99187000D01*
X148670511Y-99376980D01*
X148075464Y-99376980D01*
X148075464Y-98815000D01*
X148061147Y-98743020D01*
X148670511Y-98743020D01*
X148731373Y-98933000D01*
X149733000Y-98933000D01*
X149733000Y-97930807D01*
X149543018Y-97870499D01*
X149111944Y-98082348D01*
X148794755Y-98443036D01*
X148670511Y-98743020D01*
X148061147Y-98743020D01*
X148026864Y-98570670D01*
X147888462Y-98363538D01*
X147681330Y-98225136D01*
X147437000Y-98176536D01*
X146187000Y-98176536D01*
X145942670Y-98225136D01*
X145735538Y-98363538D01*
X145597136Y-98570670D01*
X145548536Y-98815000D01*
X145548536Y-99565000D01*
X145597136Y-99809330D01*
X145735538Y-100016462D01*
X145783301Y-100048376D01*
X145783300Y-100141620D01*
X145726676Y-100198244D01*
X145623000Y-100448541D01*
X145623000Y-100719459D01*
X145726676Y-100969756D01*
X145918244Y-101161324D01*
X146168541Y-101265000D01*
X146439459Y-101265000D01*
X146536536Y-101224790D01*
X146536536Y-103033001D01*
X146585136Y-103277330D01*
X146685974Y-103428245D01*
X145593222Y-104520998D01*
X145591752Y-104520998D01*
X145687000Y-104425750D01*
X145687000Y-104252215D01*
X145628996Y-104112181D01*
X145521820Y-104005004D01*
X145381786Y-103947000D01*
X145233250Y-103947000D01*
X145138000Y-104042250D01*
X145138000Y-104521000D01*
X145158000Y-104521000D01*
X145158000Y-104775000D01*
X145138000Y-104775000D01*
X145138000Y-104795000D01*
X144884000Y-104795000D01*
X144884000Y-104775000D01*
X144864000Y-104775000D01*
X144864000Y-104521000D01*
X144884000Y-104521000D01*
X144884000Y-104042250D01*
X144788750Y-103947000D01*
X144640214Y-103947000D01*
X144500180Y-104005004D01*
X144472281Y-104032903D01*
X144393605Y-103980334D01*
X144188500Y-103939536D01*
X143979115Y-103939536D01*
X143653631Y-103614053D01*
X143774214Y-103664000D01*
X144290250Y-103664000D01*
X144385500Y-103568750D01*
X144385500Y-102235000D01*
X144639500Y-102235000D01*
X144639500Y-103568750D01*
X144734750Y-103664000D01*
X145250786Y-103664000D01*
X145390820Y-103605996D01*
X145497996Y-103498819D01*
X145556000Y-103358785D01*
X145556000Y-102330250D01*
X145460750Y-102235000D01*
X144639500Y-102235000D01*
X144385500Y-102235000D01*
X144365500Y-102235000D01*
X144365500Y-101981000D01*
X144385500Y-101981000D01*
X144385500Y-100647250D01*
X144639500Y-100647250D01*
X144639500Y-101981000D01*
X145460750Y-101981000D01*
X145556000Y-101885750D01*
X145556000Y-100857215D01*
X145497996Y-100717181D01*
X145390820Y-100610004D01*
X145250786Y-100552000D01*
X144734750Y-100552000D01*
X144639500Y-100647250D01*
X144385500Y-100647250D01*
X144290250Y-100552000D01*
X144007810Y-100552000D01*
X144007810Y-100324626D01*
X144022686Y-100314686D01*
X144106894Y-100188659D01*
X144136464Y-100040000D01*
X144136464Y-98698115D01*
X144289449Y-98545130D01*
X144327623Y-98519623D01*
X144428673Y-98368391D01*
X144455200Y-98235030D01*
X144464157Y-98190001D01*
X144455200Y-98144971D01*
X144455200Y-97528464D01*
X144648000Y-97528464D01*
X144796659Y-97498894D01*
X144922686Y-97414686D01*
X145006894Y-97288659D01*
X145036464Y-97140000D01*
X145036464Y-96612250D01*
X145556000Y-96612250D01*
X145556000Y-97090786D01*
X145614004Y-97230820D01*
X145721181Y-97337996D01*
X145861215Y-97396000D01*
X146589750Y-97396000D01*
X146685000Y-97300750D01*
X146685000Y-96517000D01*
X146939000Y-96517000D01*
X146939000Y-97300750D01*
X147034250Y-97396000D01*
X147762785Y-97396000D01*
X147902819Y-97337996D01*
X148009996Y-97230820D01*
X148068000Y-97090786D01*
X148068000Y-96612250D01*
X147972750Y-96517000D01*
X146939000Y-96517000D01*
X146685000Y-96517000D01*
X145651250Y-96517000D01*
X145556000Y-96612250D01*
X145036464Y-96612250D01*
X145036464Y-95691000D01*
X145556000Y-95691000D01*
X145556000Y-96167750D01*
G36*
X139819004Y-102387820D02*
X139846903Y-102415719D01*
X139827000Y-102445507D01*
X139771203Y-102362000D01*
X139794109Y-102327718D01*
X139819004Y-102387820D01*
X139819004Y-102387820D01*
G37*
X139819004Y-102387820D02*
X139846903Y-102415719D01*
X139827000Y-102445507D01*
X139771203Y-102362000D01*
X139794109Y-102327718D01*
X139819004Y-102387820D01*
G36*
X140589000Y-101750000D02*
X140609000Y-101750000D01*
X140609000Y-102004000D01*
X140589000Y-102004000D01*
X140589000Y-102024000D01*
X140335000Y-102024000D01*
X140335000Y-102004000D01*
X140315000Y-102004000D01*
X140315000Y-101750000D01*
X140335000Y-101750000D01*
X140335000Y-101730000D01*
X140589000Y-101730000D01*
X140589000Y-101750000D01*
X140589000Y-101750000D01*
G37*
X140589000Y-101750000D02*
X140609000Y-101750000D01*
X140609000Y-102004000D01*
X140589000Y-102004000D01*
X140589000Y-102024000D01*
X140335000Y-102024000D01*
X140335000Y-102004000D01*
X140315000Y-102004000D01*
X140315000Y-101750000D01*
X140335000Y-101750000D01*
X140335000Y-101730000D01*
X140589000Y-101730000D01*
X140589000Y-101750000D01*
G36*
X138866797Y-99568000D02*
X138778334Y-99700395D01*
X138737536Y-99905500D01*
X138737536Y-100200500D01*
X138778334Y-100405605D01*
X138894516Y-100579484D01*
X138955013Y-100619907D01*
X138868676Y-100706244D01*
X138765000Y-100956541D01*
X138765000Y-101227459D01*
X138777938Y-101258694D01*
X138640516Y-101350516D01*
X138609590Y-101396800D01*
X138374697Y-101396800D01*
X138319576Y-101119688D01*
X138047501Y-100712499D01*
X137640312Y-100440424D01*
X137281239Y-100369000D01*
X137038761Y-100369000D01*
X136679688Y-100440424D01*
X136331000Y-100673410D01*
X136331000Y-99986590D01*
X136679688Y-100219576D01*
X137038761Y-100291000D01*
X137281239Y-100291000D01*
X137640312Y-100219576D01*
X138047501Y-99947501D01*
X138319576Y-99540312D01*
X138324173Y-99517200D01*
X138832854Y-99517200D01*
X138866797Y-99568000D01*
X138866797Y-99568000D01*
G37*
X138866797Y-99568000D02*
X138778334Y-99700395D01*
X138737536Y-99905500D01*
X138737536Y-100200500D01*
X138778334Y-100405605D01*
X138894516Y-100579484D01*
X138955013Y-100619907D01*
X138868676Y-100706244D01*
X138765000Y-100956541D01*
X138765000Y-101227459D01*
X138777938Y-101258694D01*
X138640516Y-101350516D01*
X138609590Y-101396800D01*
X138374697Y-101396800D01*
X138319576Y-101119688D01*
X138047501Y-100712499D01*
X137640312Y-100440424D01*
X137281239Y-100369000D01*
X137038761Y-100369000D01*
X136679688Y-100440424D01*
X136331000Y-100673410D01*
X136331000Y-99986590D01*
X136679688Y-100219576D01*
X137038761Y-100291000D01*
X137281239Y-100291000D01*
X137640312Y-100219576D01*
X138047501Y-99947501D01*
X138319576Y-99540312D01*
X138324173Y-99517200D01*
X138832854Y-99517200D01*
X138866797Y-99568000D01*
G36*
X140467000Y-96117750D02*
X140562250Y-96213000D01*
X141371000Y-96213000D01*
X141371000Y-96193000D01*
X141625000Y-96193000D01*
X141625000Y-96213000D01*
X142433750Y-96213000D01*
X142529000Y-96117750D01*
X142529000Y-95691000D01*
X142959536Y-95691000D01*
X142959536Y-97140000D01*
X142989106Y-97288659D01*
X143073314Y-97414686D01*
X143199341Y-97498894D01*
X143348000Y-97528464D01*
X143540801Y-97528464D01*
X143540801Y-98000620D01*
X143489885Y-98051536D01*
X141748000Y-98051536D01*
X141599341Y-98081106D01*
X141473314Y-98165314D01*
X141389106Y-98291341D01*
X141359536Y-98440000D01*
X141359536Y-100040000D01*
X141377346Y-100129536D01*
X141307500Y-100129536D01*
X141102395Y-100170334D01*
X140970000Y-100258797D01*
X140919200Y-100224854D01*
X140919200Y-99292130D01*
X140928157Y-99247100D01*
X140892673Y-99068709D01*
X140886854Y-99060000D01*
X140791623Y-98917477D01*
X140753446Y-98891968D01*
X138940031Y-97078553D01*
X138914522Y-97040376D01*
X138763290Y-96939326D01*
X138629929Y-96912799D01*
X138584899Y-96903842D01*
X138539869Y-96912799D01*
X138336983Y-96912799D01*
X138406711Y-96562250D01*
X140467000Y-96562250D01*
X140467000Y-97215785D01*
X140525004Y-97355819D01*
X140632180Y-97462996D01*
X140772214Y-97521000D01*
X141275750Y-97521000D01*
X141371000Y-97425750D01*
X141371000Y-96467000D01*
X141625000Y-96467000D01*
X141625000Y-97425750D01*
X141720250Y-97521000D01*
X142223786Y-97521000D01*
X142363820Y-97462996D01*
X142470996Y-97355819D01*
X142529000Y-97215785D01*
X142529000Y-96562250D01*
X142433750Y-96467000D01*
X141625000Y-96467000D01*
X141371000Y-96467000D01*
X140562250Y-96467000D01*
X140467000Y-96562250D01*
X138406711Y-96562250D01*
X138415116Y-96520000D01*
X138319576Y-96039688D01*
X138086590Y-95691000D01*
X140467000Y-95691000D01*
X140467000Y-96117750D01*
X140467000Y-96117750D01*
G37*
X140467000Y-96117750D02*
X140562250Y-96213000D01*
X141371000Y-96213000D01*
X141371000Y-96193000D01*
X141625000Y-96193000D01*
X141625000Y-96213000D01*
X142433750Y-96213000D01*
X142529000Y-96117750D01*
X142529000Y-95691000D01*
X142959536Y-95691000D01*
X142959536Y-97140000D01*
X142989106Y-97288659D01*
X143073314Y-97414686D01*
X143199341Y-97498894D01*
X143348000Y-97528464D01*
X143540801Y-97528464D01*
X143540801Y-98000620D01*
X143489885Y-98051536D01*
X141748000Y-98051536D01*
X141599341Y-98081106D01*
X141473314Y-98165314D01*
X141389106Y-98291341D01*
X141359536Y-98440000D01*
X141359536Y-100040000D01*
X141377346Y-100129536D01*
X141307500Y-100129536D01*
X141102395Y-100170334D01*
X140970000Y-100258797D01*
X140919200Y-100224854D01*
X140919200Y-99292130D01*
X140928157Y-99247100D01*
X140892673Y-99068709D01*
X140886854Y-99060000D01*
X140791623Y-98917477D01*
X140753446Y-98891968D01*
X138940031Y-97078553D01*
X138914522Y-97040376D01*
X138763290Y-96939326D01*
X138629929Y-96912799D01*
X138584899Y-96903842D01*
X138539869Y-96912799D01*
X138336983Y-96912799D01*
X138406711Y-96562250D01*
X140467000Y-96562250D01*
X140467000Y-97215785D01*
X140525004Y-97355819D01*
X140632180Y-97462996D01*
X140772214Y-97521000D01*
X141275750Y-97521000D01*
X141371000Y-97425750D01*
X141371000Y-96467000D01*
X141625000Y-96467000D01*
X141625000Y-97425750D01*
X141720250Y-97521000D01*
X142223786Y-97521000D01*
X142363820Y-97462996D01*
X142470996Y-97355819D01*
X142529000Y-97215785D01*
X142529000Y-96562250D01*
X142433750Y-96467000D01*
X141625000Y-96467000D01*
X141371000Y-96467000D01*
X140562250Y-96467000D01*
X140467000Y-96562250D01*
X138406711Y-96562250D01*
X138415116Y-96520000D01*
X138319576Y-96039688D01*
X138086590Y-95691000D01*
X140467000Y-95691000D01*
X140467000Y-96117750D01*
G36*
X136679688Y-97679576D02*
X137038761Y-97751000D01*
X137281239Y-97751000D01*
X137640312Y-97679576D01*
X137658750Y-97667256D01*
X137680376Y-97699622D01*
X137718550Y-97725129D01*
X137831608Y-97800672D01*
X138009998Y-97836156D01*
X138055028Y-97827199D01*
X138395521Y-97827199D01*
X139032584Y-98464262D01*
X138894516Y-98556516D01*
X138863590Y-98602800D01*
X138324173Y-98602800D01*
X138319576Y-98579688D01*
X138047501Y-98172499D01*
X137640312Y-97900424D01*
X137281239Y-97829000D01*
X137038761Y-97829000D01*
X136679688Y-97900424D01*
X136331000Y-98133410D01*
X136331000Y-97446590D01*
X136679688Y-97679576D01*
X136679688Y-97679576D01*
G37*
X136679688Y-97679576D02*
X137038761Y-97751000D01*
X137281239Y-97751000D01*
X137640312Y-97679576D01*
X137658750Y-97667256D01*
X137680376Y-97699622D01*
X137718550Y-97725129D01*
X137831608Y-97800672D01*
X138009998Y-97836156D01*
X138055028Y-97827199D01*
X138395521Y-97827199D01*
X139032584Y-98464262D01*
X138894516Y-98556516D01*
X138863590Y-98602800D01*
X138324173Y-98602800D01*
X138319576Y-98579688D01*
X138047501Y-98172499D01*
X137640312Y-97900424D01*
X137281239Y-97829000D01*
X137038761Y-97829000D01*
X136679688Y-97900424D01*
X136331000Y-98133410D01*
X136331000Y-97446590D01*
X136679688Y-97679576D01*
M02*
