%TF.GenerationSoftware,KiCad,Pcbnew,6.0.0-rc1-unknown-2c0fe8f~66~ubuntu18.04.1*%
%TF.CreationDate,2018-10-10T11:30:18+02:00*%
%TF.ProjectId,stspin220,73747370696E3232302E6B696361645F,rev?*%
%TF.SameCoordinates,Original*%
%TF.FileFunction,Legend,Top*%
%TF.FilePolarity,Positive*%
%FSLAX46Y46*%
G04 Gerber Fmt 4.6, Leading zero omitted, Abs format (unit mm)*
G04 Created by KiCad (PCBNEW 6.0.0-rc1-unknown-2c0fe8f~66~ubuntu18.04.1) date Wed Oct 10 11:30:18 2018*
%MOMM*%
%LPD*%
G01*
G04 APERTURE LIST*
%ADD10C,0.120000*%
%ADD11C,0.150000*%
%ADD12C,0.152400*%
%ADD13R,1.402000X1.702000*%
%ADD14R,2.102000X1.702000*%
%ADD15R,1.902000X1.902000*%
%ADD16O,0.852000X0.402000*%
%ADD17O,0.402000X0.852000*%
%ADD18C,0.100000*%
%ADD19C,1.352000*%
%ADD20C,0.692000*%
%ADD21O,1.802000X1.802000*%
%ADD22R,1.802000X1.802000*%
%ADD23C,1.427000*%
%ADD24C,0.977000*%
G04 APERTURE END LIST*
D10*
X145268000Y-95920000D02*
X145268000Y-99660000D01*
X140228000Y-95920000D02*
X140228000Y-99660000D01*
X143988000Y-99660000D02*
X145268000Y-99660000D01*
X140228000Y-99660000D02*
X141508000Y-99660000D01*
X142388000Y-95920000D02*
X143108000Y-95920000D01*
X140228000Y-95920000D02*
X140608000Y-95920000D01*
X144888000Y-95920000D02*
X145268000Y-95920000D01*
D11*
X143663000Y-105817000D02*
X143663000Y-106317000D01*
X146913000Y-105817000D02*
X146913000Y-106317000D01*
X146913000Y-109067000D02*
X146913000Y-108567000D01*
X143663000Y-109067000D02*
X143663000Y-108567000D01*
X146913000Y-105817000D02*
X146413000Y-105817000D01*
X146913000Y-109067000D02*
X146413000Y-109067000D01*
X143663000Y-105817000D02*
X144163000Y-105817000D01*
D10*
X145902000Y-97187936D02*
X145902000Y-98392064D01*
X147722000Y-97187936D02*
X147722000Y-98392064D01*
X144124000Y-111919936D02*
X144124000Y-113124064D01*
X145944000Y-111919936D02*
X145944000Y-113124064D01*
X148510000Y-100598000D02*
X144300000Y-100598000D01*
X148510000Y-103618000D02*
X148510000Y-100598000D01*
X144300000Y-103618000D02*
X148510000Y-103618000D01*
X147576000Y-111922779D02*
X147576000Y-111597221D01*
X146556000Y-111922779D02*
X146556000Y-111597221D01*
D12*
X142264190Y-98157695D02*
X141993257Y-97770647D01*
X141799733Y-98157695D02*
X141799733Y-97344895D01*
X142109371Y-97344895D01*
X142186780Y-97383600D01*
X142225485Y-97422304D01*
X142264190Y-97499714D01*
X142264190Y-97615828D01*
X142225485Y-97693238D01*
X142186780Y-97731942D01*
X142109371Y-97770647D01*
X141799733Y-97770647D01*
X142496419Y-97344895D02*
X142767352Y-98157695D01*
X143038285Y-97344895D01*
X143734971Y-98157695D02*
X143270514Y-98157695D01*
X143502742Y-98157695D02*
X143502742Y-97344895D01*
X143425333Y-97461009D01*
X143347923Y-97538419D01*
X143270514Y-97577123D01*
X147051485Y-98157695D02*
X146780552Y-97770647D01*
X146587028Y-98157695D02*
X146587028Y-97344895D01*
X146896666Y-97344895D01*
X146974076Y-97383600D01*
X147012780Y-97422304D01*
X147051485Y-97499714D01*
X147051485Y-97615828D01*
X147012780Y-97693238D01*
X146974076Y-97731942D01*
X146896666Y-97770647D01*
X146587028Y-97770647D01*
X147825580Y-98157695D02*
X147361123Y-98157695D01*
X147593352Y-98157695D02*
X147593352Y-97344895D01*
X147515942Y-97461009D01*
X147438533Y-97538419D01*
X147361123Y-97577123D01*
X148096514Y-97344895D02*
X148599676Y-97344895D01*
X148328742Y-97654533D01*
X148444857Y-97654533D01*
X148522266Y-97693238D01*
X148560971Y-97731942D01*
X148599676Y-97809352D01*
X148599676Y-98002876D01*
X148560971Y-98080285D01*
X148522266Y-98118990D01*
X148444857Y-98157695D01*
X148212628Y-98157695D01*
X148135219Y-98118990D01*
X148096514Y-98080285D01*
X144257485Y-112889695D02*
X143986552Y-112502647D01*
X143793028Y-112889695D02*
X143793028Y-112076895D01*
X144102666Y-112076895D01*
X144180076Y-112115600D01*
X144218780Y-112154304D01*
X144257485Y-112231714D01*
X144257485Y-112347828D01*
X144218780Y-112425238D01*
X144180076Y-112463942D01*
X144102666Y-112502647D01*
X143793028Y-112502647D01*
X145031580Y-112889695D02*
X144567123Y-112889695D01*
X144799352Y-112889695D02*
X144799352Y-112076895D01*
X144721942Y-112193009D01*
X144644533Y-112270419D01*
X144567123Y-112309123D01*
X145341219Y-112154304D02*
X145379923Y-112115600D01*
X145457333Y-112076895D01*
X145650857Y-112076895D01*
X145728266Y-112115600D01*
X145766971Y-112154304D01*
X145805676Y-112231714D01*
X145805676Y-112309123D01*
X145766971Y-112425238D01*
X145302514Y-112889695D01*
X145805676Y-112889695D01*
X138415485Y-104507695D02*
X138144552Y-104120647D01*
X137951028Y-104507695D02*
X137951028Y-103694895D01*
X138260666Y-103694895D01*
X138338076Y-103733600D01*
X138376780Y-103772304D01*
X138415485Y-103849714D01*
X138415485Y-103965828D01*
X138376780Y-104043238D01*
X138338076Y-104081942D01*
X138260666Y-104120647D01*
X137951028Y-104120647D01*
X139189580Y-104507695D02*
X138725123Y-104507695D01*
X138957352Y-104507695D02*
X138957352Y-103694895D01*
X138879942Y-103811009D01*
X138802533Y-103888419D01*
X138725123Y-103927123D01*
X139963676Y-104507695D02*
X139499219Y-104507695D01*
X139731447Y-104507695D02*
X139731447Y-103694895D01*
X139654038Y-103811009D01*
X139576628Y-103888419D01*
X139499219Y-103927123D01*
X139659695Y-106440514D02*
X139272647Y-106711447D01*
X139659695Y-106904971D02*
X138846895Y-106904971D01*
X138846895Y-106595333D01*
X138885600Y-106517923D01*
X138924304Y-106479219D01*
X139001714Y-106440514D01*
X139117828Y-106440514D01*
X139195238Y-106479219D01*
X139233942Y-106517923D01*
X139272647Y-106595333D01*
X139272647Y-106904971D01*
X139659695Y-105666419D02*
X139659695Y-106130876D01*
X139659695Y-105898647D02*
X138846895Y-105898647D01*
X138963009Y-105976057D01*
X139040419Y-106053466D01*
X139079123Y-106130876D01*
X138846895Y-105163257D02*
X138846895Y-105085847D01*
X138885600Y-105008438D01*
X138924304Y-104969733D01*
X139001714Y-104931028D01*
X139156533Y-104892323D01*
X139350057Y-104892323D01*
X139504876Y-104931028D01*
X139582285Y-104969733D01*
X139620990Y-105008438D01*
X139659695Y-105085847D01*
X139659695Y-105163257D01*
X139620990Y-105240666D01*
X139582285Y-105279371D01*
X139504876Y-105318076D01*
X139350057Y-105356780D01*
X139156533Y-105356780D01*
X139001714Y-105318076D01*
X138924304Y-105279371D01*
X138885600Y-105240666D01*
X138846895Y-105163257D01*
X142861695Y-104275466D02*
X142474647Y-104546400D01*
X142861695Y-104739923D02*
X142048895Y-104739923D01*
X142048895Y-104430285D01*
X142087600Y-104352876D01*
X142126304Y-104314171D01*
X142203714Y-104275466D01*
X142319828Y-104275466D01*
X142397238Y-104314171D01*
X142435942Y-104352876D01*
X142474647Y-104430285D01*
X142474647Y-104739923D01*
X142861695Y-103888419D02*
X142861695Y-103733600D01*
X142822990Y-103656190D01*
X142784285Y-103617485D01*
X142668171Y-103540076D01*
X142513352Y-103501371D01*
X142203714Y-103501371D01*
X142126304Y-103540076D01*
X142087600Y-103578780D01*
X142048895Y-103656190D01*
X142048895Y-103811009D01*
X142087600Y-103888419D01*
X142126304Y-103927123D01*
X142203714Y-103965828D01*
X142397238Y-103965828D01*
X142474647Y-103927123D01*
X142513352Y-103888419D01*
X142552057Y-103811009D01*
X142552057Y-103656190D01*
X142513352Y-103578780D01*
X142474647Y-103540076D01*
X142397238Y-103501371D01*
X141596533Y-114921695D02*
X141325600Y-114534647D01*
X141132076Y-114921695D02*
X141132076Y-114108895D01*
X141441714Y-114108895D01*
X141519123Y-114147600D01*
X141557828Y-114186304D01*
X141596533Y-114263714D01*
X141596533Y-114379828D01*
X141557828Y-114457238D01*
X141519123Y-114495942D01*
X141441714Y-114534647D01*
X141132076Y-114534647D01*
X142060990Y-114457238D02*
X141983580Y-114418533D01*
X141944876Y-114379828D01*
X141906171Y-114302419D01*
X141906171Y-114263714D01*
X141944876Y-114186304D01*
X141983580Y-114147600D01*
X142060990Y-114108895D01*
X142215809Y-114108895D01*
X142293219Y-114147600D01*
X142331923Y-114186304D01*
X142370628Y-114263714D01*
X142370628Y-114302419D01*
X142331923Y-114379828D01*
X142293219Y-114418533D01*
X142215809Y-114457238D01*
X142060990Y-114457238D01*
X141983580Y-114495942D01*
X141944876Y-114534647D01*
X141906171Y-114612057D01*
X141906171Y-114766876D01*
X141944876Y-114844285D01*
X141983580Y-114882990D01*
X142060990Y-114921695D01*
X142215809Y-114921695D01*
X142293219Y-114882990D01*
X142331923Y-114844285D01*
X142370628Y-114766876D01*
X142370628Y-114612057D01*
X142331923Y-114534647D01*
X142293219Y-114495942D01*
X142215809Y-114457238D01*
X138389695Y-102497466D02*
X138002647Y-102768400D01*
X138389695Y-102961923D02*
X137576895Y-102961923D01*
X137576895Y-102652285D01*
X137615600Y-102574876D01*
X137654304Y-102536171D01*
X137731714Y-102497466D01*
X137847828Y-102497466D01*
X137925238Y-102536171D01*
X137963942Y-102574876D01*
X138002647Y-102652285D01*
X138002647Y-102961923D01*
X137576895Y-102226533D02*
X137576895Y-101684666D01*
X138389695Y-102033009D01*
X141337695Y-99703466D02*
X140950647Y-99974400D01*
X141337695Y-100167923D02*
X140524895Y-100167923D01*
X140524895Y-99858285D01*
X140563600Y-99780876D01*
X140602304Y-99742171D01*
X140679714Y-99703466D01*
X140795828Y-99703466D01*
X140873238Y-99742171D01*
X140911942Y-99780876D01*
X140950647Y-99858285D01*
X140950647Y-100167923D01*
X140524895Y-99006780D02*
X140524895Y-99161600D01*
X140563600Y-99239009D01*
X140602304Y-99277714D01*
X140718419Y-99355123D01*
X140873238Y-99393828D01*
X141182876Y-99393828D01*
X141260285Y-99355123D01*
X141298990Y-99316419D01*
X141337695Y-99239009D01*
X141337695Y-99084190D01*
X141298990Y-99006780D01*
X141260285Y-98968076D01*
X141182876Y-98929371D01*
X140989352Y-98929371D01*
X140911942Y-98968076D01*
X140873238Y-99006780D01*
X140834533Y-99084190D01*
X140834533Y-99239009D01*
X140873238Y-99316419D01*
X140911942Y-99355123D01*
X140989352Y-99393828D01*
X141596533Y-112889695D02*
X141325600Y-112502647D01*
X141132076Y-112889695D02*
X141132076Y-112076895D01*
X141441714Y-112076895D01*
X141519123Y-112115600D01*
X141557828Y-112154304D01*
X141596533Y-112231714D01*
X141596533Y-112347828D01*
X141557828Y-112425238D01*
X141519123Y-112463942D01*
X141441714Y-112502647D01*
X141132076Y-112502647D01*
X142331923Y-112076895D02*
X141944876Y-112076895D01*
X141906171Y-112463942D01*
X141944876Y-112425238D01*
X142022285Y-112386533D01*
X142215809Y-112386533D01*
X142293219Y-112425238D01*
X142331923Y-112463942D01*
X142370628Y-112541352D01*
X142370628Y-112734876D01*
X142331923Y-112812285D01*
X142293219Y-112850990D01*
X142215809Y-112889695D01*
X142022285Y-112889695D01*
X141944876Y-112850990D01*
X141906171Y-112812285D01*
X139813695Y-97925466D02*
X139426647Y-98196400D01*
X139813695Y-98389923D02*
X139000895Y-98389923D01*
X139000895Y-98080285D01*
X139039600Y-98002876D01*
X139078304Y-97964171D01*
X139155714Y-97925466D01*
X139271828Y-97925466D01*
X139349238Y-97964171D01*
X139387942Y-98002876D01*
X139426647Y-98080285D01*
X139426647Y-98389923D01*
X139271828Y-97228780D02*
X139813695Y-97228780D01*
X138962190Y-97422304D02*
X139542761Y-97615828D01*
X139542761Y-97112666D01*
X142866533Y-101205695D02*
X142595600Y-100818647D01*
X142402076Y-101205695D02*
X142402076Y-100392895D01*
X142711714Y-100392895D01*
X142789123Y-100431600D01*
X142827828Y-100470304D01*
X142866533Y-100547714D01*
X142866533Y-100663828D01*
X142827828Y-100741238D01*
X142789123Y-100779942D01*
X142711714Y-100818647D01*
X142402076Y-100818647D01*
X143137466Y-100392895D02*
X143640628Y-100392895D01*
X143369695Y-100702533D01*
X143485809Y-100702533D01*
X143563219Y-100741238D01*
X143601923Y-100779942D01*
X143640628Y-100857352D01*
X143640628Y-101050876D01*
X143601923Y-101128285D01*
X143563219Y-101166990D01*
X143485809Y-101205695D01*
X143253580Y-101205695D01*
X143176171Y-101166990D01*
X143137466Y-101128285D01*
X142612533Y-111111695D02*
X142341600Y-110724647D01*
X142148076Y-111111695D02*
X142148076Y-110298895D01*
X142457714Y-110298895D01*
X142535123Y-110337600D01*
X142573828Y-110376304D01*
X142612533Y-110453714D01*
X142612533Y-110569828D01*
X142573828Y-110647238D01*
X142535123Y-110685942D01*
X142457714Y-110724647D01*
X142148076Y-110724647D01*
X142922171Y-110376304D02*
X142960876Y-110337600D01*
X143038285Y-110298895D01*
X143231809Y-110298895D01*
X143309219Y-110337600D01*
X143347923Y-110376304D01*
X143386628Y-110453714D01*
X143386628Y-110531123D01*
X143347923Y-110647238D01*
X142883466Y-111111695D01*
X143386628Y-111111695D01*
X139305695Y-108593466D02*
X138918647Y-108864400D01*
X139305695Y-109057923D02*
X138492895Y-109057923D01*
X138492895Y-108748285D01*
X138531600Y-108670876D01*
X138570304Y-108632171D01*
X138647714Y-108593466D01*
X138763828Y-108593466D01*
X138841238Y-108632171D01*
X138879942Y-108670876D01*
X138918647Y-108748285D01*
X138918647Y-109057923D01*
X139305695Y-107819371D02*
X139305695Y-108283828D01*
X139305695Y-108051600D02*
X138492895Y-108051600D01*
X138609009Y-108129009D01*
X138686419Y-108206419D01*
X138725123Y-108283828D01*
X145914533Y-101636285D02*
X145875828Y-101674990D01*
X145759714Y-101713695D01*
X145682304Y-101713695D01*
X145566190Y-101674990D01*
X145488780Y-101597580D01*
X145450076Y-101520171D01*
X145411371Y-101365352D01*
X145411371Y-101249238D01*
X145450076Y-101094419D01*
X145488780Y-101017009D01*
X145566190Y-100939600D01*
X145682304Y-100900895D01*
X145759714Y-100900895D01*
X145875828Y-100939600D01*
X145914533Y-100978304D01*
X146611219Y-100900895D02*
X146456400Y-100900895D01*
X146378990Y-100939600D01*
X146340285Y-100978304D01*
X146262876Y-101094419D01*
X146224171Y-101249238D01*
X146224171Y-101558876D01*
X146262876Y-101636285D01*
X146301580Y-101674990D01*
X146378990Y-101713695D01*
X146533809Y-101713695D01*
X146611219Y-101674990D01*
X146649923Y-101636285D01*
X146688628Y-101558876D01*
X146688628Y-101365352D01*
X146649923Y-101287942D01*
X146611219Y-101249238D01*
X146533809Y-101210533D01*
X146378990Y-101210533D01*
X146301580Y-101249238D01*
X146262876Y-101287942D01*
X146224171Y-101365352D01*
X148626285Y-111895466D02*
X148664990Y-111934171D01*
X148703695Y-112050285D01*
X148703695Y-112127695D01*
X148664990Y-112243809D01*
X148587580Y-112321219D01*
X148510171Y-112359923D01*
X148355352Y-112398628D01*
X148239238Y-112398628D01*
X148084419Y-112359923D01*
X148007009Y-112321219D01*
X147929600Y-112243809D01*
X147890895Y-112127695D01*
X147890895Y-112050285D01*
X147929600Y-111934171D01*
X147968304Y-111895466D01*
X147890895Y-111160076D02*
X147890895Y-111547123D01*
X148277942Y-111585828D01*
X148239238Y-111547123D01*
X148200533Y-111469714D01*
X148200533Y-111276190D01*
X148239238Y-111198780D01*
X148277942Y-111160076D01*
X148355352Y-111121371D01*
X148548876Y-111121371D01*
X148626285Y-111160076D01*
X148664990Y-111198780D01*
X148703695Y-111276190D01*
X148703695Y-111469714D01*
X148664990Y-111547123D01*
X148626285Y-111585828D01*
X140852285Y-106053466D02*
X140890990Y-106092171D01*
X140929695Y-106208285D01*
X140929695Y-106285695D01*
X140890990Y-106401809D01*
X140813580Y-106479219D01*
X140736171Y-106517923D01*
X140581352Y-106556628D01*
X140465238Y-106556628D01*
X140310419Y-106517923D01*
X140233009Y-106479219D01*
X140155600Y-106401809D01*
X140116895Y-106285695D01*
X140116895Y-106208285D01*
X140155600Y-106092171D01*
X140194304Y-106053466D01*
X140387828Y-105356780D02*
X140929695Y-105356780D01*
X140078190Y-105550304D02*
X140658761Y-105743828D01*
X140658761Y-105240666D01*
X140752285Y-102497466D02*
X140790990Y-102536171D01*
X140829695Y-102652285D01*
X140829695Y-102729695D01*
X140790990Y-102845809D01*
X140713580Y-102923219D01*
X140636171Y-102961923D01*
X140481352Y-103000628D01*
X140365238Y-103000628D01*
X140210419Y-102961923D01*
X140133009Y-102923219D01*
X140055600Y-102845809D01*
X140016895Y-102729695D01*
X140016895Y-102652285D01*
X140055600Y-102536171D01*
X140094304Y-102497466D01*
X140016895Y-102226533D02*
X140016895Y-101723371D01*
X140326533Y-101994304D01*
X140326533Y-101878190D01*
X140365238Y-101800780D01*
X140403942Y-101762076D01*
X140481352Y-101723371D01*
X140674876Y-101723371D01*
X140752285Y-101762076D01*
X140790990Y-101800780D01*
X140829695Y-101878190D01*
X140829695Y-102110419D01*
X140790990Y-102187828D01*
X140752285Y-102226533D01*
X146168533Y-104684285D02*
X146129828Y-104722990D01*
X146013714Y-104761695D01*
X145936304Y-104761695D01*
X145820190Y-104722990D01*
X145742780Y-104645580D01*
X145704076Y-104568171D01*
X145665371Y-104413352D01*
X145665371Y-104297238D01*
X145704076Y-104142419D01*
X145742780Y-104065009D01*
X145820190Y-103987600D01*
X145936304Y-103948895D01*
X146013714Y-103948895D01*
X146129828Y-103987600D01*
X146168533Y-104026304D01*
X146478171Y-104026304D02*
X146516876Y-103987600D01*
X146594285Y-103948895D01*
X146787809Y-103948895D01*
X146865219Y-103987600D01*
X146903923Y-104026304D01*
X146942628Y-104103714D01*
X146942628Y-104181123D01*
X146903923Y-104297238D01*
X146439466Y-104761695D01*
X146942628Y-104761695D01*
X142938285Y-108593466D02*
X142976990Y-108632171D01*
X143015695Y-108748285D01*
X143015695Y-108825695D01*
X142976990Y-108941809D01*
X142899580Y-109019219D01*
X142822171Y-109057923D01*
X142667352Y-109096628D01*
X142551238Y-109096628D01*
X142396419Y-109057923D01*
X142319009Y-109019219D01*
X142241600Y-108941809D01*
X142202895Y-108825695D01*
X142202895Y-108748285D01*
X142241600Y-108632171D01*
X142280304Y-108593466D01*
X143015695Y-107819371D02*
X143015695Y-108283828D01*
X143015695Y-108051600D02*
X142202895Y-108051600D01*
X142319009Y-108129009D01*
X142396419Y-108206419D01*
X142435123Y-108283828D01*
%LPC*%
D13*
X141498000Y-96340000D03*
D14*
X142748000Y-99240000D03*
D13*
X143998000Y-96340000D03*
D15*
X145288000Y-107442000D03*
D16*
X143813000Y-108192000D03*
X143813000Y-107692000D03*
X143813000Y-107192000D03*
X143813000Y-106692000D03*
D17*
X144538000Y-105967000D03*
X145038000Y-105967000D03*
X145538000Y-105967000D03*
X146038000Y-105967000D03*
D16*
X146763000Y-106692000D03*
X146763000Y-107192000D03*
X146763000Y-107692000D03*
X146763000Y-108192000D03*
D17*
X146038000Y-108917000D03*
X145538000Y-108917000D03*
X145038000Y-108917000D03*
X144538000Y-108917000D03*
D18*
G36*
X147494104Y-98515302D02*
X147520352Y-98519196D01*
X147546093Y-98525643D01*
X147571078Y-98534583D01*
X147595066Y-98545928D01*
X147617826Y-98559571D01*
X147639140Y-98575378D01*
X147658802Y-98593198D01*
X147676622Y-98612860D01*
X147692429Y-98634174D01*
X147706072Y-98656934D01*
X147717417Y-98680922D01*
X147726357Y-98705907D01*
X147732804Y-98731648D01*
X147736698Y-98757896D01*
X147738000Y-98784400D01*
X147738000Y-99595600D01*
X147736698Y-99622104D01*
X147732804Y-99648352D01*
X147726357Y-99674093D01*
X147717417Y-99699078D01*
X147706072Y-99723066D01*
X147692429Y-99745826D01*
X147676622Y-99767140D01*
X147658802Y-99786802D01*
X147639140Y-99804622D01*
X147617826Y-99820429D01*
X147595066Y-99834072D01*
X147571078Y-99845417D01*
X147546093Y-99854357D01*
X147520352Y-99860804D01*
X147494104Y-99864698D01*
X147467600Y-99866000D01*
X146156400Y-99866000D01*
X146129896Y-99864698D01*
X146103648Y-99860804D01*
X146077907Y-99854357D01*
X146052922Y-99845417D01*
X146028934Y-99834072D01*
X146006174Y-99820429D01*
X145984860Y-99804622D01*
X145965198Y-99786802D01*
X145947378Y-99767140D01*
X145931571Y-99745826D01*
X145917928Y-99723066D01*
X145906583Y-99699078D01*
X145897643Y-99674093D01*
X145891196Y-99648352D01*
X145887302Y-99622104D01*
X145886000Y-99595600D01*
X145886000Y-98784400D01*
X145887302Y-98757896D01*
X145891196Y-98731648D01*
X145897643Y-98705907D01*
X145906583Y-98680922D01*
X145917928Y-98656934D01*
X145931571Y-98634174D01*
X145947378Y-98612860D01*
X145965198Y-98593198D01*
X145984860Y-98575378D01*
X146006174Y-98559571D01*
X146028934Y-98545928D01*
X146052922Y-98534583D01*
X146077907Y-98525643D01*
X146103648Y-98519196D01*
X146129896Y-98515302D01*
X146156400Y-98514000D01*
X147467600Y-98514000D01*
X147494104Y-98515302D01*
X147494104Y-98515302D01*
G37*
D19*
X146812000Y-99190000D03*
D18*
G36*
X147494104Y-95715302D02*
X147520352Y-95719196D01*
X147546093Y-95725643D01*
X147571078Y-95734583D01*
X147595066Y-95745928D01*
X147617826Y-95759571D01*
X147639140Y-95775378D01*
X147658802Y-95793198D01*
X147676622Y-95812860D01*
X147692429Y-95834174D01*
X147706072Y-95856934D01*
X147717417Y-95880922D01*
X147726357Y-95905907D01*
X147732804Y-95931648D01*
X147736698Y-95957896D01*
X147738000Y-95984400D01*
X147738000Y-96795600D01*
X147736698Y-96822104D01*
X147732804Y-96848352D01*
X147726357Y-96874093D01*
X147717417Y-96899078D01*
X147706072Y-96923066D01*
X147692429Y-96945826D01*
X147676622Y-96967140D01*
X147658802Y-96986802D01*
X147639140Y-97004622D01*
X147617826Y-97020429D01*
X147595066Y-97034072D01*
X147571078Y-97045417D01*
X147546093Y-97054357D01*
X147520352Y-97060804D01*
X147494104Y-97064698D01*
X147467600Y-97066000D01*
X146156400Y-97066000D01*
X146129896Y-97064698D01*
X146103648Y-97060804D01*
X146077907Y-97054357D01*
X146052922Y-97045417D01*
X146028934Y-97034072D01*
X146006174Y-97020429D01*
X145984860Y-97004622D01*
X145965198Y-96986802D01*
X145947378Y-96967140D01*
X145931571Y-96945826D01*
X145917928Y-96923066D01*
X145906583Y-96899078D01*
X145897643Y-96874093D01*
X145891196Y-96848352D01*
X145887302Y-96822104D01*
X145886000Y-96795600D01*
X145886000Y-95984400D01*
X145887302Y-95957896D01*
X145891196Y-95931648D01*
X145897643Y-95905907D01*
X145906583Y-95880922D01*
X145917928Y-95856934D01*
X145931571Y-95834174D01*
X145947378Y-95812860D01*
X145965198Y-95793198D01*
X145984860Y-95775378D01*
X146006174Y-95759571D01*
X146028934Y-95745928D01*
X146052922Y-95734583D01*
X146077907Y-95725643D01*
X146103648Y-95719196D01*
X146129896Y-95715302D01*
X146156400Y-95714000D01*
X147467600Y-95714000D01*
X147494104Y-95715302D01*
X147494104Y-95715302D01*
G37*
D19*
X146812000Y-96390000D03*
D18*
G36*
X145716104Y-113247302D02*
X145742352Y-113251196D01*
X145768093Y-113257643D01*
X145793078Y-113266583D01*
X145817066Y-113277928D01*
X145839826Y-113291571D01*
X145861140Y-113307378D01*
X145880802Y-113325198D01*
X145898622Y-113344860D01*
X145914429Y-113366174D01*
X145928072Y-113388934D01*
X145939417Y-113412922D01*
X145948357Y-113437907D01*
X145954804Y-113463648D01*
X145958698Y-113489896D01*
X145960000Y-113516400D01*
X145960000Y-114327600D01*
X145958698Y-114354104D01*
X145954804Y-114380352D01*
X145948357Y-114406093D01*
X145939417Y-114431078D01*
X145928072Y-114455066D01*
X145914429Y-114477826D01*
X145898622Y-114499140D01*
X145880802Y-114518802D01*
X145861140Y-114536622D01*
X145839826Y-114552429D01*
X145817066Y-114566072D01*
X145793078Y-114577417D01*
X145768093Y-114586357D01*
X145742352Y-114592804D01*
X145716104Y-114596698D01*
X145689600Y-114598000D01*
X144378400Y-114598000D01*
X144351896Y-114596698D01*
X144325648Y-114592804D01*
X144299907Y-114586357D01*
X144274922Y-114577417D01*
X144250934Y-114566072D01*
X144228174Y-114552429D01*
X144206860Y-114536622D01*
X144187198Y-114518802D01*
X144169378Y-114499140D01*
X144153571Y-114477826D01*
X144139928Y-114455066D01*
X144128583Y-114431078D01*
X144119643Y-114406093D01*
X144113196Y-114380352D01*
X144109302Y-114354104D01*
X144108000Y-114327600D01*
X144108000Y-113516400D01*
X144109302Y-113489896D01*
X144113196Y-113463648D01*
X144119643Y-113437907D01*
X144128583Y-113412922D01*
X144139928Y-113388934D01*
X144153571Y-113366174D01*
X144169378Y-113344860D01*
X144187198Y-113325198D01*
X144206860Y-113307378D01*
X144228174Y-113291571D01*
X144250934Y-113277928D01*
X144274922Y-113266583D01*
X144299907Y-113257643D01*
X144325648Y-113251196D01*
X144351896Y-113247302D01*
X144378400Y-113246000D01*
X145689600Y-113246000D01*
X145716104Y-113247302D01*
X145716104Y-113247302D01*
G37*
D19*
X145034000Y-113922000D03*
D18*
G36*
X145716104Y-110447302D02*
X145742352Y-110451196D01*
X145768093Y-110457643D01*
X145793078Y-110466583D01*
X145817066Y-110477928D01*
X145839826Y-110491571D01*
X145861140Y-110507378D01*
X145880802Y-110525198D01*
X145898622Y-110544860D01*
X145914429Y-110566174D01*
X145928072Y-110588934D01*
X145939417Y-110612922D01*
X145948357Y-110637907D01*
X145954804Y-110663648D01*
X145958698Y-110689896D01*
X145960000Y-110716400D01*
X145960000Y-111527600D01*
X145958698Y-111554104D01*
X145954804Y-111580352D01*
X145948357Y-111606093D01*
X145939417Y-111631078D01*
X145928072Y-111655066D01*
X145914429Y-111677826D01*
X145898622Y-111699140D01*
X145880802Y-111718802D01*
X145861140Y-111736622D01*
X145839826Y-111752429D01*
X145817066Y-111766072D01*
X145793078Y-111777417D01*
X145768093Y-111786357D01*
X145742352Y-111792804D01*
X145716104Y-111796698D01*
X145689600Y-111798000D01*
X144378400Y-111798000D01*
X144351896Y-111796698D01*
X144325648Y-111792804D01*
X144299907Y-111786357D01*
X144274922Y-111777417D01*
X144250934Y-111766072D01*
X144228174Y-111752429D01*
X144206860Y-111736622D01*
X144187198Y-111718802D01*
X144169378Y-111699140D01*
X144153571Y-111677826D01*
X144139928Y-111655066D01*
X144128583Y-111631078D01*
X144119643Y-111606093D01*
X144113196Y-111580352D01*
X144109302Y-111554104D01*
X144108000Y-111527600D01*
X144108000Y-110716400D01*
X144109302Y-110689896D01*
X144113196Y-110663648D01*
X144119643Y-110637907D01*
X144128583Y-110612922D01*
X144139928Y-110588934D01*
X144153571Y-110566174D01*
X144169378Y-110544860D01*
X144187198Y-110525198D01*
X144206860Y-110507378D01*
X144228174Y-110491571D01*
X144250934Y-110477928D01*
X144274922Y-110466583D01*
X144299907Y-110457643D01*
X144325648Y-110451196D01*
X144351896Y-110447302D01*
X144378400Y-110446000D01*
X145689600Y-110446000D01*
X145716104Y-110447302D01*
X145716104Y-110447302D01*
G37*
D19*
X145034000Y-111122000D03*
D18*
G36*
X140674957Y-103769833D02*
X140691751Y-103772324D01*
X140708219Y-103776449D01*
X140724204Y-103782169D01*
X140739552Y-103789428D01*
X140754114Y-103798156D01*
X140767750Y-103808269D01*
X140780329Y-103819671D01*
X140791731Y-103832250D01*
X140801844Y-103845886D01*
X140810572Y-103860448D01*
X140817831Y-103875796D01*
X140823551Y-103891781D01*
X140827676Y-103908249D01*
X140830167Y-103925043D01*
X140831000Y-103942000D01*
X140831000Y-104338000D01*
X140830167Y-104354957D01*
X140827676Y-104371751D01*
X140823551Y-104388219D01*
X140817831Y-104404204D01*
X140810572Y-104419552D01*
X140801844Y-104434114D01*
X140791731Y-104447750D01*
X140780329Y-104460329D01*
X140767750Y-104471731D01*
X140754114Y-104481844D01*
X140739552Y-104490572D01*
X140724204Y-104497831D01*
X140708219Y-104503551D01*
X140691751Y-104507676D01*
X140674957Y-104510167D01*
X140658000Y-104511000D01*
X140312000Y-104511000D01*
X140295043Y-104510167D01*
X140278249Y-104507676D01*
X140261781Y-104503551D01*
X140245796Y-104497831D01*
X140230448Y-104490572D01*
X140215886Y-104481844D01*
X140202250Y-104471731D01*
X140189671Y-104460329D01*
X140178269Y-104447750D01*
X140168156Y-104434114D01*
X140159428Y-104419552D01*
X140152169Y-104404204D01*
X140146449Y-104388219D01*
X140142324Y-104371751D01*
X140139833Y-104354957D01*
X140139000Y-104338000D01*
X140139000Y-103942000D01*
X140139833Y-103925043D01*
X140142324Y-103908249D01*
X140146449Y-103891781D01*
X140152169Y-103875796D01*
X140159428Y-103860448D01*
X140168156Y-103845886D01*
X140178269Y-103832250D01*
X140189671Y-103819671D01*
X140202250Y-103808269D01*
X140215886Y-103798156D01*
X140230448Y-103789428D01*
X140245796Y-103782169D01*
X140261781Y-103776449D01*
X140278249Y-103772324D01*
X140295043Y-103769833D01*
X140312000Y-103769000D01*
X140658000Y-103769000D01*
X140674957Y-103769833D01*
X140674957Y-103769833D01*
G37*
D20*
X140485000Y-104140000D03*
D18*
G36*
X141644957Y-103769833D02*
X141661751Y-103772324D01*
X141678219Y-103776449D01*
X141694204Y-103782169D01*
X141709552Y-103789428D01*
X141724114Y-103798156D01*
X141737750Y-103808269D01*
X141750329Y-103819671D01*
X141761731Y-103832250D01*
X141771844Y-103845886D01*
X141780572Y-103860448D01*
X141787831Y-103875796D01*
X141793551Y-103891781D01*
X141797676Y-103908249D01*
X141800167Y-103925043D01*
X141801000Y-103942000D01*
X141801000Y-104338000D01*
X141800167Y-104354957D01*
X141797676Y-104371751D01*
X141793551Y-104388219D01*
X141787831Y-104404204D01*
X141780572Y-104419552D01*
X141771844Y-104434114D01*
X141761731Y-104447750D01*
X141750329Y-104460329D01*
X141737750Y-104471731D01*
X141724114Y-104481844D01*
X141709552Y-104490572D01*
X141694204Y-104497831D01*
X141678219Y-104503551D01*
X141661751Y-104507676D01*
X141644957Y-104510167D01*
X141628000Y-104511000D01*
X141282000Y-104511000D01*
X141265043Y-104510167D01*
X141248249Y-104507676D01*
X141231781Y-104503551D01*
X141215796Y-104497831D01*
X141200448Y-104490572D01*
X141185886Y-104481844D01*
X141172250Y-104471731D01*
X141159671Y-104460329D01*
X141148269Y-104447750D01*
X141138156Y-104434114D01*
X141129428Y-104419552D01*
X141122169Y-104404204D01*
X141116449Y-104388219D01*
X141112324Y-104371751D01*
X141109833Y-104354957D01*
X141109000Y-104338000D01*
X141109000Y-103942000D01*
X141109833Y-103925043D01*
X141112324Y-103908249D01*
X141116449Y-103891781D01*
X141122169Y-103875796D01*
X141129428Y-103860448D01*
X141138156Y-103845886D01*
X141148269Y-103832250D01*
X141159671Y-103819671D01*
X141172250Y-103808269D01*
X141185886Y-103798156D01*
X141200448Y-103789428D01*
X141215796Y-103782169D01*
X141231781Y-103776449D01*
X141248249Y-103772324D01*
X141265043Y-103769833D01*
X141282000Y-103769000D01*
X141628000Y-103769000D01*
X141644957Y-103769833D01*
X141644957Y-103769833D01*
G37*
D20*
X141455000Y-104140000D03*
D18*
G36*
X140676957Y-105087833D02*
X140693751Y-105090324D01*
X140710219Y-105094449D01*
X140726204Y-105100169D01*
X140741552Y-105107428D01*
X140756114Y-105116156D01*
X140769750Y-105126269D01*
X140782329Y-105137671D01*
X140793731Y-105150250D01*
X140803844Y-105163886D01*
X140812572Y-105178448D01*
X140819831Y-105193796D01*
X140825551Y-105209781D01*
X140829676Y-105226249D01*
X140832167Y-105243043D01*
X140833000Y-105260000D01*
X140833000Y-105606000D01*
X140832167Y-105622957D01*
X140829676Y-105639751D01*
X140825551Y-105656219D01*
X140819831Y-105672204D01*
X140812572Y-105687552D01*
X140803844Y-105702114D01*
X140793731Y-105715750D01*
X140782329Y-105728329D01*
X140769750Y-105739731D01*
X140756114Y-105749844D01*
X140741552Y-105758572D01*
X140726204Y-105765831D01*
X140710219Y-105771551D01*
X140693751Y-105775676D01*
X140676957Y-105778167D01*
X140660000Y-105779000D01*
X140264000Y-105779000D01*
X140247043Y-105778167D01*
X140230249Y-105775676D01*
X140213781Y-105771551D01*
X140197796Y-105765831D01*
X140182448Y-105758572D01*
X140167886Y-105749844D01*
X140154250Y-105739731D01*
X140141671Y-105728329D01*
X140130269Y-105715750D01*
X140120156Y-105702114D01*
X140111428Y-105687552D01*
X140104169Y-105672204D01*
X140098449Y-105656219D01*
X140094324Y-105639751D01*
X140091833Y-105622957D01*
X140091000Y-105606000D01*
X140091000Y-105260000D01*
X140091833Y-105243043D01*
X140094324Y-105226249D01*
X140098449Y-105209781D01*
X140104169Y-105193796D01*
X140111428Y-105178448D01*
X140120156Y-105163886D01*
X140130269Y-105150250D01*
X140141671Y-105137671D01*
X140154250Y-105126269D01*
X140167886Y-105116156D01*
X140182448Y-105107428D01*
X140197796Y-105100169D01*
X140213781Y-105094449D01*
X140230249Y-105090324D01*
X140247043Y-105087833D01*
X140264000Y-105087000D01*
X140660000Y-105087000D01*
X140676957Y-105087833D01*
X140676957Y-105087833D01*
G37*
D20*
X140462000Y-105433000D03*
D18*
G36*
X140676957Y-106057833D02*
X140693751Y-106060324D01*
X140710219Y-106064449D01*
X140726204Y-106070169D01*
X140741552Y-106077428D01*
X140756114Y-106086156D01*
X140769750Y-106096269D01*
X140782329Y-106107671D01*
X140793731Y-106120250D01*
X140803844Y-106133886D01*
X140812572Y-106148448D01*
X140819831Y-106163796D01*
X140825551Y-106179781D01*
X140829676Y-106196249D01*
X140832167Y-106213043D01*
X140833000Y-106230000D01*
X140833000Y-106576000D01*
X140832167Y-106592957D01*
X140829676Y-106609751D01*
X140825551Y-106626219D01*
X140819831Y-106642204D01*
X140812572Y-106657552D01*
X140803844Y-106672114D01*
X140793731Y-106685750D01*
X140782329Y-106698329D01*
X140769750Y-106709731D01*
X140756114Y-106719844D01*
X140741552Y-106728572D01*
X140726204Y-106735831D01*
X140710219Y-106741551D01*
X140693751Y-106745676D01*
X140676957Y-106748167D01*
X140660000Y-106749000D01*
X140264000Y-106749000D01*
X140247043Y-106748167D01*
X140230249Y-106745676D01*
X140213781Y-106741551D01*
X140197796Y-106735831D01*
X140182448Y-106728572D01*
X140167886Y-106719844D01*
X140154250Y-106709731D01*
X140141671Y-106698329D01*
X140130269Y-106685750D01*
X140120156Y-106672114D01*
X140111428Y-106657552D01*
X140104169Y-106642204D01*
X140098449Y-106626219D01*
X140094324Y-106609751D01*
X140091833Y-106592957D01*
X140091000Y-106576000D01*
X140091000Y-106230000D01*
X140091833Y-106213043D01*
X140094324Y-106196249D01*
X140098449Y-106179781D01*
X140104169Y-106163796D01*
X140111428Y-106148448D01*
X140120156Y-106133886D01*
X140130269Y-106120250D01*
X140141671Y-106107671D01*
X140154250Y-106096269D01*
X140167886Y-106086156D01*
X140182448Y-106077428D01*
X140197796Y-106070169D01*
X140213781Y-106064449D01*
X140230249Y-106060324D01*
X140247043Y-106057833D01*
X140264000Y-106057000D01*
X140660000Y-106057000D01*
X140676957Y-106057833D01*
X140676957Y-106057833D01*
G37*
D20*
X140462000Y-106403000D03*
D18*
G36*
X141946957Y-102501833D02*
X141963751Y-102504324D01*
X141980219Y-102508449D01*
X141996204Y-102514169D01*
X142011552Y-102521428D01*
X142026114Y-102530156D01*
X142039750Y-102540269D01*
X142052329Y-102551671D01*
X142063731Y-102564250D01*
X142073844Y-102577886D01*
X142082572Y-102592448D01*
X142089831Y-102607796D01*
X142095551Y-102623781D01*
X142099676Y-102640249D01*
X142102167Y-102657043D01*
X142103000Y-102674000D01*
X142103000Y-103020000D01*
X142102167Y-103036957D01*
X142099676Y-103053751D01*
X142095551Y-103070219D01*
X142089831Y-103086204D01*
X142082572Y-103101552D01*
X142073844Y-103116114D01*
X142063731Y-103129750D01*
X142052329Y-103142329D01*
X142039750Y-103153731D01*
X142026114Y-103163844D01*
X142011552Y-103172572D01*
X141996204Y-103179831D01*
X141980219Y-103185551D01*
X141963751Y-103189676D01*
X141946957Y-103192167D01*
X141930000Y-103193000D01*
X141534000Y-103193000D01*
X141517043Y-103192167D01*
X141500249Y-103189676D01*
X141483781Y-103185551D01*
X141467796Y-103179831D01*
X141452448Y-103172572D01*
X141437886Y-103163844D01*
X141424250Y-103153731D01*
X141411671Y-103142329D01*
X141400269Y-103129750D01*
X141390156Y-103116114D01*
X141381428Y-103101552D01*
X141374169Y-103086204D01*
X141368449Y-103070219D01*
X141364324Y-103053751D01*
X141361833Y-103036957D01*
X141361000Y-103020000D01*
X141361000Y-102674000D01*
X141361833Y-102657043D01*
X141364324Y-102640249D01*
X141368449Y-102623781D01*
X141374169Y-102607796D01*
X141381428Y-102592448D01*
X141390156Y-102577886D01*
X141400269Y-102564250D01*
X141411671Y-102551671D01*
X141424250Y-102540269D01*
X141437886Y-102530156D01*
X141452448Y-102521428D01*
X141467796Y-102514169D01*
X141483781Y-102508449D01*
X141500249Y-102504324D01*
X141517043Y-102501833D01*
X141534000Y-102501000D01*
X141930000Y-102501000D01*
X141946957Y-102501833D01*
X141946957Y-102501833D01*
G37*
D20*
X141732000Y-102847000D03*
D18*
G36*
X141946957Y-101531833D02*
X141963751Y-101534324D01*
X141980219Y-101538449D01*
X141996204Y-101544169D01*
X142011552Y-101551428D01*
X142026114Y-101560156D01*
X142039750Y-101570269D01*
X142052329Y-101581671D01*
X142063731Y-101594250D01*
X142073844Y-101607886D01*
X142082572Y-101622448D01*
X142089831Y-101637796D01*
X142095551Y-101653781D01*
X142099676Y-101670249D01*
X142102167Y-101687043D01*
X142103000Y-101704000D01*
X142103000Y-102050000D01*
X142102167Y-102066957D01*
X142099676Y-102083751D01*
X142095551Y-102100219D01*
X142089831Y-102116204D01*
X142082572Y-102131552D01*
X142073844Y-102146114D01*
X142063731Y-102159750D01*
X142052329Y-102172329D01*
X142039750Y-102183731D01*
X142026114Y-102193844D01*
X142011552Y-102202572D01*
X141996204Y-102209831D01*
X141980219Y-102215551D01*
X141963751Y-102219676D01*
X141946957Y-102222167D01*
X141930000Y-102223000D01*
X141534000Y-102223000D01*
X141517043Y-102222167D01*
X141500249Y-102219676D01*
X141483781Y-102215551D01*
X141467796Y-102209831D01*
X141452448Y-102202572D01*
X141437886Y-102193844D01*
X141424250Y-102183731D01*
X141411671Y-102172329D01*
X141400269Y-102159750D01*
X141390156Y-102146114D01*
X141381428Y-102131552D01*
X141374169Y-102116204D01*
X141368449Y-102100219D01*
X141364324Y-102083751D01*
X141361833Y-102066957D01*
X141361000Y-102050000D01*
X141361000Y-101704000D01*
X141361833Y-101687043D01*
X141364324Y-101670249D01*
X141368449Y-101653781D01*
X141374169Y-101637796D01*
X141381428Y-101622448D01*
X141390156Y-101607886D01*
X141400269Y-101594250D01*
X141411671Y-101581671D01*
X141424250Y-101570269D01*
X141437886Y-101560156D01*
X141452448Y-101551428D01*
X141467796Y-101544169D01*
X141483781Y-101538449D01*
X141500249Y-101534324D01*
X141517043Y-101531833D01*
X141534000Y-101531000D01*
X141930000Y-101531000D01*
X141946957Y-101531833D01*
X141946957Y-101531833D01*
G37*
D20*
X141732000Y-101877000D03*
D18*
G36*
X139658957Y-113929833D02*
X139675751Y-113932324D01*
X139692219Y-113936449D01*
X139708204Y-113942169D01*
X139723552Y-113949428D01*
X139738114Y-113958156D01*
X139751750Y-113968269D01*
X139764329Y-113979671D01*
X139775731Y-113992250D01*
X139785844Y-114005886D01*
X139794572Y-114020448D01*
X139801831Y-114035796D01*
X139807551Y-114051781D01*
X139811676Y-114068249D01*
X139814167Y-114085043D01*
X139815000Y-114102000D01*
X139815000Y-114498000D01*
X139814167Y-114514957D01*
X139811676Y-114531751D01*
X139807551Y-114548219D01*
X139801831Y-114564204D01*
X139794572Y-114579552D01*
X139785844Y-114594114D01*
X139775731Y-114607750D01*
X139764329Y-114620329D01*
X139751750Y-114631731D01*
X139738114Y-114641844D01*
X139723552Y-114650572D01*
X139708204Y-114657831D01*
X139692219Y-114663551D01*
X139675751Y-114667676D01*
X139658957Y-114670167D01*
X139642000Y-114671000D01*
X139296000Y-114671000D01*
X139279043Y-114670167D01*
X139262249Y-114667676D01*
X139245781Y-114663551D01*
X139229796Y-114657831D01*
X139214448Y-114650572D01*
X139199886Y-114641844D01*
X139186250Y-114631731D01*
X139173671Y-114620329D01*
X139162269Y-114607750D01*
X139152156Y-114594114D01*
X139143428Y-114579552D01*
X139136169Y-114564204D01*
X139130449Y-114548219D01*
X139126324Y-114531751D01*
X139123833Y-114514957D01*
X139123000Y-114498000D01*
X139123000Y-114102000D01*
X139123833Y-114085043D01*
X139126324Y-114068249D01*
X139130449Y-114051781D01*
X139136169Y-114035796D01*
X139143428Y-114020448D01*
X139152156Y-114005886D01*
X139162269Y-113992250D01*
X139173671Y-113979671D01*
X139186250Y-113968269D01*
X139199886Y-113958156D01*
X139214448Y-113949428D01*
X139229796Y-113942169D01*
X139245781Y-113936449D01*
X139262249Y-113932324D01*
X139279043Y-113929833D01*
X139296000Y-113929000D01*
X139642000Y-113929000D01*
X139658957Y-113929833D01*
X139658957Y-113929833D01*
G37*
D20*
X139469000Y-114300000D03*
D18*
G36*
X140628957Y-113929833D02*
X140645751Y-113932324D01*
X140662219Y-113936449D01*
X140678204Y-113942169D01*
X140693552Y-113949428D01*
X140708114Y-113958156D01*
X140721750Y-113968269D01*
X140734329Y-113979671D01*
X140745731Y-113992250D01*
X140755844Y-114005886D01*
X140764572Y-114020448D01*
X140771831Y-114035796D01*
X140777551Y-114051781D01*
X140781676Y-114068249D01*
X140784167Y-114085043D01*
X140785000Y-114102000D01*
X140785000Y-114498000D01*
X140784167Y-114514957D01*
X140781676Y-114531751D01*
X140777551Y-114548219D01*
X140771831Y-114564204D01*
X140764572Y-114579552D01*
X140755844Y-114594114D01*
X140745731Y-114607750D01*
X140734329Y-114620329D01*
X140721750Y-114631731D01*
X140708114Y-114641844D01*
X140693552Y-114650572D01*
X140678204Y-114657831D01*
X140662219Y-114663551D01*
X140645751Y-114667676D01*
X140628957Y-114670167D01*
X140612000Y-114671000D01*
X140266000Y-114671000D01*
X140249043Y-114670167D01*
X140232249Y-114667676D01*
X140215781Y-114663551D01*
X140199796Y-114657831D01*
X140184448Y-114650572D01*
X140169886Y-114641844D01*
X140156250Y-114631731D01*
X140143671Y-114620329D01*
X140132269Y-114607750D01*
X140122156Y-114594114D01*
X140113428Y-114579552D01*
X140106169Y-114564204D01*
X140100449Y-114548219D01*
X140096324Y-114531751D01*
X140093833Y-114514957D01*
X140093000Y-114498000D01*
X140093000Y-114102000D01*
X140093833Y-114085043D01*
X140096324Y-114068249D01*
X140100449Y-114051781D01*
X140106169Y-114035796D01*
X140113428Y-114020448D01*
X140122156Y-114005886D01*
X140132269Y-113992250D01*
X140143671Y-113979671D01*
X140156250Y-113968269D01*
X140169886Y-113958156D01*
X140184448Y-113949428D01*
X140199796Y-113942169D01*
X140215781Y-113936449D01*
X140232249Y-113932324D01*
X140249043Y-113929833D01*
X140266000Y-113929000D01*
X140612000Y-113929000D01*
X140628957Y-113929833D01*
X140628957Y-113929833D01*
G37*
D20*
X140439000Y-114300000D03*
D18*
G36*
X139406957Y-101531833D02*
X139423751Y-101534324D01*
X139440219Y-101538449D01*
X139456204Y-101544169D01*
X139471552Y-101551428D01*
X139486114Y-101560156D01*
X139499750Y-101570269D01*
X139512329Y-101581671D01*
X139523731Y-101594250D01*
X139533844Y-101607886D01*
X139542572Y-101622448D01*
X139549831Y-101637796D01*
X139555551Y-101653781D01*
X139559676Y-101670249D01*
X139562167Y-101687043D01*
X139563000Y-101704000D01*
X139563000Y-102050000D01*
X139562167Y-102066957D01*
X139559676Y-102083751D01*
X139555551Y-102100219D01*
X139549831Y-102116204D01*
X139542572Y-102131552D01*
X139533844Y-102146114D01*
X139523731Y-102159750D01*
X139512329Y-102172329D01*
X139499750Y-102183731D01*
X139486114Y-102193844D01*
X139471552Y-102202572D01*
X139456204Y-102209831D01*
X139440219Y-102215551D01*
X139423751Y-102219676D01*
X139406957Y-102222167D01*
X139390000Y-102223000D01*
X138994000Y-102223000D01*
X138977043Y-102222167D01*
X138960249Y-102219676D01*
X138943781Y-102215551D01*
X138927796Y-102209831D01*
X138912448Y-102202572D01*
X138897886Y-102193844D01*
X138884250Y-102183731D01*
X138871671Y-102172329D01*
X138860269Y-102159750D01*
X138850156Y-102146114D01*
X138841428Y-102131552D01*
X138834169Y-102116204D01*
X138828449Y-102100219D01*
X138824324Y-102083751D01*
X138821833Y-102066957D01*
X138821000Y-102050000D01*
X138821000Y-101704000D01*
X138821833Y-101687043D01*
X138824324Y-101670249D01*
X138828449Y-101653781D01*
X138834169Y-101637796D01*
X138841428Y-101622448D01*
X138850156Y-101607886D01*
X138860269Y-101594250D01*
X138871671Y-101581671D01*
X138884250Y-101570269D01*
X138897886Y-101560156D01*
X138912448Y-101551428D01*
X138927796Y-101544169D01*
X138943781Y-101538449D01*
X138960249Y-101534324D01*
X138977043Y-101531833D01*
X138994000Y-101531000D01*
X139390000Y-101531000D01*
X139406957Y-101531833D01*
X139406957Y-101531833D01*
G37*
D20*
X139192000Y-101877000D03*
D18*
G36*
X139406957Y-102501833D02*
X139423751Y-102504324D01*
X139440219Y-102508449D01*
X139456204Y-102514169D01*
X139471552Y-102521428D01*
X139486114Y-102530156D01*
X139499750Y-102540269D01*
X139512329Y-102551671D01*
X139523731Y-102564250D01*
X139533844Y-102577886D01*
X139542572Y-102592448D01*
X139549831Y-102607796D01*
X139555551Y-102623781D01*
X139559676Y-102640249D01*
X139562167Y-102657043D01*
X139563000Y-102674000D01*
X139563000Y-103020000D01*
X139562167Y-103036957D01*
X139559676Y-103053751D01*
X139555551Y-103070219D01*
X139549831Y-103086204D01*
X139542572Y-103101552D01*
X139533844Y-103116114D01*
X139523731Y-103129750D01*
X139512329Y-103142329D01*
X139499750Y-103153731D01*
X139486114Y-103163844D01*
X139471552Y-103172572D01*
X139456204Y-103179831D01*
X139440219Y-103185551D01*
X139423751Y-103189676D01*
X139406957Y-103192167D01*
X139390000Y-103193000D01*
X138994000Y-103193000D01*
X138977043Y-103192167D01*
X138960249Y-103189676D01*
X138943781Y-103185551D01*
X138927796Y-103179831D01*
X138912448Y-103172572D01*
X138897886Y-103163844D01*
X138884250Y-103153731D01*
X138871671Y-103142329D01*
X138860269Y-103129750D01*
X138850156Y-103116114D01*
X138841428Y-103101552D01*
X138834169Y-103086204D01*
X138828449Y-103070219D01*
X138824324Y-103053751D01*
X138821833Y-103036957D01*
X138821000Y-103020000D01*
X138821000Y-102674000D01*
X138821833Y-102657043D01*
X138824324Y-102640249D01*
X138828449Y-102623781D01*
X138834169Y-102607796D01*
X138841428Y-102592448D01*
X138850156Y-102577886D01*
X138860269Y-102564250D01*
X138871671Y-102551671D01*
X138884250Y-102540269D01*
X138897886Y-102530156D01*
X138912448Y-102521428D01*
X138927796Y-102514169D01*
X138943781Y-102508449D01*
X138960249Y-102504324D01*
X138977043Y-102501833D01*
X138994000Y-102501000D01*
X139390000Y-102501000D01*
X139406957Y-102501833D01*
X139406957Y-102501833D01*
G37*
D20*
X139192000Y-102847000D03*
D18*
G36*
X140674957Y-100467833D02*
X140691751Y-100470324D01*
X140708219Y-100474449D01*
X140724204Y-100480169D01*
X140739552Y-100487428D01*
X140754114Y-100496156D01*
X140767750Y-100506269D01*
X140780329Y-100517671D01*
X140791731Y-100530250D01*
X140801844Y-100543886D01*
X140810572Y-100558448D01*
X140817831Y-100573796D01*
X140823551Y-100589781D01*
X140827676Y-100606249D01*
X140830167Y-100623043D01*
X140831000Y-100640000D01*
X140831000Y-101036000D01*
X140830167Y-101052957D01*
X140827676Y-101069751D01*
X140823551Y-101086219D01*
X140817831Y-101102204D01*
X140810572Y-101117552D01*
X140801844Y-101132114D01*
X140791731Y-101145750D01*
X140780329Y-101158329D01*
X140767750Y-101169731D01*
X140754114Y-101179844D01*
X140739552Y-101188572D01*
X140724204Y-101195831D01*
X140708219Y-101201551D01*
X140691751Y-101205676D01*
X140674957Y-101208167D01*
X140658000Y-101209000D01*
X140312000Y-101209000D01*
X140295043Y-101208167D01*
X140278249Y-101205676D01*
X140261781Y-101201551D01*
X140245796Y-101195831D01*
X140230448Y-101188572D01*
X140215886Y-101179844D01*
X140202250Y-101169731D01*
X140189671Y-101158329D01*
X140178269Y-101145750D01*
X140168156Y-101132114D01*
X140159428Y-101117552D01*
X140152169Y-101102204D01*
X140146449Y-101086219D01*
X140142324Y-101069751D01*
X140139833Y-101052957D01*
X140139000Y-101036000D01*
X140139000Y-100640000D01*
X140139833Y-100623043D01*
X140142324Y-100606249D01*
X140146449Y-100589781D01*
X140152169Y-100573796D01*
X140159428Y-100558448D01*
X140168156Y-100543886D01*
X140178269Y-100530250D01*
X140189671Y-100517671D01*
X140202250Y-100506269D01*
X140215886Y-100496156D01*
X140230448Y-100487428D01*
X140245796Y-100480169D01*
X140261781Y-100474449D01*
X140278249Y-100470324D01*
X140295043Y-100467833D01*
X140312000Y-100467000D01*
X140658000Y-100467000D01*
X140674957Y-100467833D01*
X140674957Y-100467833D01*
G37*
D20*
X140485000Y-100838000D03*
D18*
G36*
X141644957Y-100467833D02*
X141661751Y-100470324D01*
X141678219Y-100474449D01*
X141694204Y-100480169D01*
X141709552Y-100487428D01*
X141724114Y-100496156D01*
X141737750Y-100506269D01*
X141750329Y-100517671D01*
X141761731Y-100530250D01*
X141771844Y-100543886D01*
X141780572Y-100558448D01*
X141787831Y-100573796D01*
X141793551Y-100589781D01*
X141797676Y-100606249D01*
X141800167Y-100623043D01*
X141801000Y-100640000D01*
X141801000Y-101036000D01*
X141800167Y-101052957D01*
X141797676Y-101069751D01*
X141793551Y-101086219D01*
X141787831Y-101102204D01*
X141780572Y-101117552D01*
X141771844Y-101132114D01*
X141761731Y-101145750D01*
X141750329Y-101158329D01*
X141737750Y-101169731D01*
X141724114Y-101179844D01*
X141709552Y-101188572D01*
X141694204Y-101195831D01*
X141678219Y-101201551D01*
X141661751Y-101205676D01*
X141644957Y-101208167D01*
X141628000Y-101209000D01*
X141282000Y-101209000D01*
X141265043Y-101208167D01*
X141248249Y-101205676D01*
X141231781Y-101201551D01*
X141215796Y-101195831D01*
X141200448Y-101188572D01*
X141185886Y-101179844D01*
X141172250Y-101169731D01*
X141159671Y-101158329D01*
X141148269Y-101145750D01*
X141138156Y-101132114D01*
X141129428Y-101117552D01*
X141122169Y-101102204D01*
X141116449Y-101086219D01*
X141112324Y-101069751D01*
X141109833Y-101052957D01*
X141109000Y-101036000D01*
X141109000Y-100640000D01*
X141109833Y-100623043D01*
X141112324Y-100606249D01*
X141116449Y-100589781D01*
X141122169Y-100573796D01*
X141129428Y-100558448D01*
X141138156Y-100543886D01*
X141148269Y-100530250D01*
X141159671Y-100517671D01*
X141172250Y-100506269D01*
X141185886Y-100496156D01*
X141200448Y-100487428D01*
X141215796Y-100480169D01*
X141231781Y-100474449D01*
X141248249Y-100470324D01*
X141265043Y-100467833D01*
X141282000Y-100467000D01*
X141628000Y-100467000D01*
X141644957Y-100467833D01*
X141644957Y-100467833D01*
G37*
D20*
X141455000Y-100838000D03*
D18*
G36*
X139658957Y-111389833D02*
X139675751Y-111392324D01*
X139692219Y-111396449D01*
X139708204Y-111402169D01*
X139723552Y-111409428D01*
X139738114Y-111418156D01*
X139751750Y-111428269D01*
X139764329Y-111439671D01*
X139775731Y-111452250D01*
X139785844Y-111465886D01*
X139794572Y-111480448D01*
X139801831Y-111495796D01*
X139807551Y-111511781D01*
X139811676Y-111528249D01*
X139814167Y-111545043D01*
X139815000Y-111562000D01*
X139815000Y-111958000D01*
X139814167Y-111974957D01*
X139811676Y-111991751D01*
X139807551Y-112008219D01*
X139801831Y-112024204D01*
X139794572Y-112039552D01*
X139785844Y-112054114D01*
X139775731Y-112067750D01*
X139764329Y-112080329D01*
X139751750Y-112091731D01*
X139738114Y-112101844D01*
X139723552Y-112110572D01*
X139708204Y-112117831D01*
X139692219Y-112123551D01*
X139675751Y-112127676D01*
X139658957Y-112130167D01*
X139642000Y-112131000D01*
X139296000Y-112131000D01*
X139279043Y-112130167D01*
X139262249Y-112127676D01*
X139245781Y-112123551D01*
X139229796Y-112117831D01*
X139214448Y-112110572D01*
X139199886Y-112101844D01*
X139186250Y-112091731D01*
X139173671Y-112080329D01*
X139162269Y-112067750D01*
X139152156Y-112054114D01*
X139143428Y-112039552D01*
X139136169Y-112024204D01*
X139130449Y-112008219D01*
X139126324Y-111991751D01*
X139123833Y-111974957D01*
X139123000Y-111958000D01*
X139123000Y-111562000D01*
X139123833Y-111545043D01*
X139126324Y-111528249D01*
X139130449Y-111511781D01*
X139136169Y-111495796D01*
X139143428Y-111480448D01*
X139152156Y-111465886D01*
X139162269Y-111452250D01*
X139173671Y-111439671D01*
X139186250Y-111428269D01*
X139199886Y-111418156D01*
X139214448Y-111409428D01*
X139229796Y-111402169D01*
X139245781Y-111396449D01*
X139262249Y-111392324D01*
X139279043Y-111389833D01*
X139296000Y-111389000D01*
X139642000Y-111389000D01*
X139658957Y-111389833D01*
X139658957Y-111389833D01*
G37*
D20*
X139469000Y-111760000D03*
D18*
G36*
X140628957Y-111389833D02*
X140645751Y-111392324D01*
X140662219Y-111396449D01*
X140678204Y-111402169D01*
X140693552Y-111409428D01*
X140708114Y-111418156D01*
X140721750Y-111428269D01*
X140734329Y-111439671D01*
X140745731Y-111452250D01*
X140755844Y-111465886D01*
X140764572Y-111480448D01*
X140771831Y-111495796D01*
X140777551Y-111511781D01*
X140781676Y-111528249D01*
X140784167Y-111545043D01*
X140785000Y-111562000D01*
X140785000Y-111958000D01*
X140784167Y-111974957D01*
X140781676Y-111991751D01*
X140777551Y-112008219D01*
X140771831Y-112024204D01*
X140764572Y-112039552D01*
X140755844Y-112054114D01*
X140745731Y-112067750D01*
X140734329Y-112080329D01*
X140721750Y-112091731D01*
X140708114Y-112101844D01*
X140693552Y-112110572D01*
X140678204Y-112117831D01*
X140662219Y-112123551D01*
X140645751Y-112127676D01*
X140628957Y-112130167D01*
X140612000Y-112131000D01*
X140266000Y-112131000D01*
X140249043Y-112130167D01*
X140232249Y-112127676D01*
X140215781Y-112123551D01*
X140199796Y-112117831D01*
X140184448Y-112110572D01*
X140169886Y-112101844D01*
X140156250Y-112091731D01*
X140143671Y-112080329D01*
X140132269Y-112067750D01*
X140122156Y-112054114D01*
X140113428Y-112039552D01*
X140106169Y-112024204D01*
X140100449Y-112008219D01*
X140096324Y-111991751D01*
X140093833Y-111974957D01*
X140093000Y-111958000D01*
X140093000Y-111562000D01*
X140093833Y-111545043D01*
X140096324Y-111528249D01*
X140100449Y-111511781D01*
X140106169Y-111495796D01*
X140113428Y-111480448D01*
X140122156Y-111465886D01*
X140132269Y-111452250D01*
X140143671Y-111439671D01*
X140156250Y-111428269D01*
X140169886Y-111418156D01*
X140184448Y-111409428D01*
X140199796Y-111402169D01*
X140215781Y-111396449D01*
X140232249Y-111392324D01*
X140249043Y-111389833D01*
X140266000Y-111389000D01*
X140612000Y-111389000D01*
X140628957Y-111389833D01*
X140628957Y-111389833D01*
G37*
D20*
X140439000Y-111760000D03*
D18*
G36*
X139660957Y-98737833D02*
X139677751Y-98740324D01*
X139694219Y-98744449D01*
X139710204Y-98750169D01*
X139725552Y-98757428D01*
X139740114Y-98766156D01*
X139753750Y-98776269D01*
X139766329Y-98787671D01*
X139777731Y-98800250D01*
X139787844Y-98813886D01*
X139796572Y-98828448D01*
X139803831Y-98843796D01*
X139809551Y-98859781D01*
X139813676Y-98876249D01*
X139816167Y-98893043D01*
X139817000Y-98910000D01*
X139817000Y-99256000D01*
X139816167Y-99272957D01*
X139813676Y-99289751D01*
X139809551Y-99306219D01*
X139803831Y-99322204D01*
X139796572Y-99337552D01*
X139787844Y-99352114D01*
X139777731Y-99365750D01*
X139766329Y-99378329D01*
X139753750Y-99389731D01*
X139740114Y-99399844D01*
X139725552Y-99408572D01*
X139710204Y-99415831D01*
X139694219Y-99421551D01*
X139677751Y-99425676D01*
X139660957Y-99428167D01*
X139644000Y-99429000D01*
X139248000Y-99429000D01*
X139231043Y-99428167D01*
X139214249Y-99425676D01*
X139197781Y-99421551D01*
X139181796Y-99415831D01*
X139166448Y-99408572D01*
X139151886Y-99399844D01*
X139138250Y-99389731D01*
X139125671Y-99378329D01*
X139114269Y-99365750D01*
X139104156Y-99352114D01*
X139095428Y-99337552D01*
X139088169Y-99322204D01*
X139082449Y-99306219D01*
X139078324Y-99289751D01*
X139075833Y-99272957D01*
X139075000Y-99256000D01*
X139075000Y-98910000D01*
X139075833Y-98893043D01*
X139078324Y-98876249D01*
X139082449Y-98859781D01*
X139088169Y-98843796D01*
X139095428Y-98828448D01*
X139104156Y-98813886D01*
X139114269Y-98800250D01*
X139125671Y-98787671D01*
X139138250Y-98776269D01*
X139151886Y-98766156D01*
X139166448Y-98757428D01*
X139181796Y-98750169D01*
X139197781Y-98744449D01*
X139214249Y-98740324D01*
X139231043Y-98737833D01*
X139248000Y-98737000D01*
X139644000Y-98737000D01*
X139660957Y-98737833D01*
X139660957Y-98737833D01*
G37*
D20*
X139446000Y-99083000D03*
D18*
G36*
X139660957Y-99707833D02*
X139677751Y-99710324D01*
X139694219Y-99714449D01*
X139710204Y-99720169D01*
X139725552Y-99727428D01*
X139740114Y-99736156D01*
X139753750Y-99746269D01*
X139766329Y-99757671D01*
X139777731Y-99770250D01*
X139787844Y-99783886D01*
X139796572Y-99798448D01*
X139803831Y-99813796D01*
X139809551Y-99829781D01*
X139813676Y-99846249D01*
X139816167Y-99863043D01*
X139817000Y-99880000D01*
X139817000Y-100226000D01*
X139816167Y-100242957D01*
X139813676Y-100259751D01*
X139809551Y-100276219D01*
X139803831Y-100292204D01*
X139796572Y-100307552D01*
X139787844Y-100322114D01*
X139777731Y-100335750D01*
X139766329Y-100348329D01*
X139753750Y-100359731D01*
X139740114Y-100369844D01*
X139725552Y-100378572D01*
X139710204Y-100385831D01*
X139694219Y-100391551D01*
X139677751Y-100395676D01*
X139660957Y-100398167D01*
X139644000Y-100399000D01*
X139248000Y-100399000D01*
X139231043Y-100398167D01*
X139214249Y-100395676D01*
X139197781Y-100391551D01*
X139181796Y-100385831D01*
X139166448Y-100378572D01*
X139151886Y-100369844D01*
X139138250Y-100359731D01*
X139125671Y-100348329D01*
X139114269Y-100335750D01*
X139104156Y-100322114D01*
X139095428Y-100307552D01*
X139088169Y-100292204D01*
X139082449Y-100276219D01*
X139078324Y-100259751D01*
X139075833Y-100242957D01*
X139075000Y-100226000D01*
X139075000Y-99880000D01*
X139075833Y-99863043D01*
X139078324Y-99846249D01*
X139082449Y-99829781D01*
X139088169Y-99813796D01*
X139095428Y-99798448D01*
X139104156Y-99783886D01*
X139114269Y-99770250D01*
X139125671Y-99757671D01*
X139138250Y-99746269D01*
X139151886Y-99736156D01*
X139166448Y-99727428D01*
X139181796Y-99720169D01*
X139197781Y-99714449D01*
X139214249Y-99710324D01*
X139231043Y-99707833D01*
X139248000Y-99707000D01*
X139644000Y-99707000D01*
X139660957Y-99707833D01*
X139660957Y-99707833D01*
G37*
D20*
X139446000Y-100053000D03*
D18*
G36*
X143216957Y-102501833D02*
X143233751Y-102504324D01*
X143250219Y-102508449D01*
X143266204Y-102514169D01*
X143281552Y-102521428D01*
X143296114Y-102530156D01*
X143309750Y-102540269D01*
X143322329Y-102551671D01*
X143333731Y-102564250D01*
X143343844Y-102577886D01*
X143352572Y-102592448D01*
X143359831Y-102607796D01*
X143365551Y-102623781D01*
X143369676Y-102640249D01*
X143372167Y-102657043D01*
X143373000Y-102674000D01*
X143373000Y-103020000D01*
X143372167Y-103036957D01*
X143369676Y-103053751D01*
X143365551Y-103070219D01*
X143359831Y-103086204D01*
X143352572Y-103101552D01*
X143343844Y-103116114D01*
X143333731Y-103129750D01*
X143322329Y-103142329D01*
X143309750Y-103153731D01*
X143296114Y-103163844D01*
X143281552Y-103172572D01*
X143266204Y-103179831D01*
X143250219Y-103185551D01*
X143233751Y-103189676D01*
X143216957Y-103192167D01*
X143200000Y-103193000D01*
X142804000Y-103193000D01*
X142787043Y-103192167D01*
X142770249Y-103189676D01*
X142753781Y-103185551D01*
X142737796Y-103179831D01*
X142722448Y-103172572D01*
X142707886Y-103163844D01*
X142694250Y-103153731D01*
X142681671Y-103142329D01*
X142670269Y-103129750D01*
X142660156Y-103116114D01*
X142651428Y-103101552D01*
X142644169Y-103086204D01*
X142638449Y-103070219D01*
X142634324Y-103053751D01*
X142631833Y-103036957D01*
X142631000Y-103020000D01*
X142631000Y-102674000D01*
X142631833Y-102657043D01*
X142634324Y-102640249D01*
X142638449Y-102623781D01*
X142644169Y-102607796D01*
X142651428Y-102592448D01*
X142660156Y-102577886D01*
X142670269Y-102564250D01*
X142681671Y-102551671D01*
X142694250Y-102540269D01*
X142707886Y-102530156D01*
X142722448Y-102521428D01*
X142737796Y-102514169D01*
X142753781Y-102508449D01*
X142770249Y-102504324D01*
X142787043Y-102501833D01*
X142804000Y-102501000D01*
X143200000Y-102501000D01*
X143216957Y-102501833D01*
X143216957Y-102501833D01*
G37*
D20*
X143002000Y-102847000D03*
D18*
G36*
X143216957Y-101531833D02*
X143233751Y-101534324D01*
X143250219Y-101538449D01*
X143266204Y-101544169D01*
X143281552Y-101551428D01*
X143296114Y-101560156D01*
X143309750Y-101570269D01*
X143322329Y-101581671D01*
X143333731Y-101594250D01*
X143343844Y-101607886D01*
X143352572Y-101622448D01*
X143359831Y-101637796D01*
X143365551Y-101653781D01*
X143369676Y-101670249D01*
X143372167Y-101687043D01*
X143373000Y-101704000D01*
X143373000Y-102050000D01*
X143372167Y-102066957D01*
X143369676Y-102083751D01*
X143365551Y-102100219D01*
X143359831Y-102116204D01*
X143352572Y-102131552D01*
X143343844Y-102146114D01*
X143333731Y-102159750D01*
X143322329Y-102172329D01*
X143309750Y-102183731D01*
X143296114Y-102193844D01*
X143281552Y-102202572D01*
X143266204Y-102209831D01*
X143250219Y-102215551D01*
X143233751Y-102219676D01*
X143216957Y-102222167D01*
X143200000Y-102223000D01*
X142804000Y-102223000D01*
X142787043Y-102222167D01*
X142770249Y-102219676D01*
X142753781Y-102215551D01*
X142737796Y-102209831D01*
X142722448Y-102202572D01*
X142707886Y-102193844D01*
X142694250Y-102183731D01*
X142681671Y-102172329D01*
X142670269Y-102159750D01*
X142660156Y-102146114D01*
X142651428Y-102131552D01*
X142644169Y-102116204D01*
X142638449Y-102100219D01*
X142634324Y-102083751D01*
X142631833Y-102066957D01*
X142631000Y-102050000D01*
X142631000Y-101704000D01*
X142631833Y-101687043D01*
X142634324Y-101670249D01*
X142638449Y-101653781D01*
X142644169Y-101637796D01*
X142651428Y-101622448D01*
X142660156Y-101607886D01*
X142670269Y-101594250D01*
X142681671Y-101581671D01*
X142694250Y-101570269D01*
X142707886Y-101560156D01*
X142722448Y-101551428D01*
X142737796Y-101544169D01*
X142753781Y-101538449D01*
X142770249Y-101534324D01*
X142787043Y-101531833D01*
X142804000Y-101531000D01*
X143200000Y-101531000D01*
X143216957Y-101531833D01*
X143216957Y-101531833D01*
G37*
D20*
X143002000Y-101877000D03*
D18*
G36*
X140674957Y-109865833D02*
X140691751Y-109868324D01*
X140708219Y-109872449D01*
X140724204Y-109878169D01*
X140739552Y-109885428D01*
X140754114Y-109894156D01*
X140767750Y-109904269D01*
X140780329Y-109915671D01*
X140791731Y-109928250D01*
X140801844Y-109941886D01*
X140810572Y-109956448D01*
X140817831Y-109971796D01*
X140823551Y-109987781D01*
X140827676Y-110004249D01*
X140830167Y-110021043D01*
X140831000Y-110038000D01*
X140831000Y-110434000D01*
X140830167Y-110450957D01*
X140827676Y-110467751D01*
X140823551Y-110484219D01*
X140817831Y-110500204D01*
X140810572Y-110515552D01*
X140801844Y-110530114D01*
X140791731Y-110543750D01*
X140780329Y-110556329D01*
X140767750Y-110567731D01*
X140754114Y-110577844D01*
X140739552Y-110586572D01*
X140724204Y-110593831D01*
X140708219Y-110599551D01*
X140691751Y-110603676D01*
X140674957Y-110606167D01*
X140658000Y-110607000D01*
X140312000Y-110607000D01*
X140295043Y-110606167D01*
X140278249Y-110603676D01*
X140261781Y-110599551D01*
X140245796Y-110593831D01*
X140230448Y-110586572D01*
X140215886Y-110577844D01*
X140202250Y-110567731D01*
X140189671Y-110556329D01*
X140178269Y-110543750D01*
X140168156Y-110530114D01*
X140159428Y-110515552D01*
X140152169Y-110500204D01*
X140146449Y-110484219D01*
X140142324Y-110467751D01*
X140139833Y-110450957D01*
X140139000Y-110434000D01*
X140139000Y-110038000D01*
X140139833Y-110021043D01*
X140142324Y-110004249D01*
X140146449Y-109987781D01*
X140152169Y-109971796D01*
X140159428Y-109956448D01*
X140168156Y-109941886D01*
X140178269Y-109928250D01*
X140189671Y-109915671D01*
X140202250Y-109904269D01*
X140215886Y-109894156D01*
X140230448Y-109885428D01*
X140245796Y-109878169D01*
X140261781Y-109872449D01*
X140278249Y-109868324D01*
X140295043Y-109865833D01*
X140312000Y-109865000D01*
X140658000Y-109865000D01*
X140674957Y-109865833D01*
X140674957Y-109865833D01*
G37*
D20*
X140485000Y-110236000D03*
D18*
G36*
X141644957Y-109865833D02*
X141661751Y-109868324D01*
X141678219Y-109872449D01*
X141694204Y-109878169D01*
X141709552Y-109885428D01*
X141724114Y-109894156D01*
X141737750Y-109904269D01*
X141750329Y-109915671D01*
X141761731Y-109928250D01*
X141771844Y-109941886D01*
X141780572Y-109956448D01*
X141787831Y-109971796D01*
X141793551Y-109987781D01*
X141797676Y-110004249D01*
X141800167Y-110021043D01*
X141801000Y-110038000D01*
X141801000Y-110434000D01*
X141800167Y-110450957D01*
X141797676Y-110467751D01*
X141793551Y-110484219D01*
X141787831Y-110500204D01*
X141780572Y-110515552D01*
X141771844Y-110530114D01*
X141761731Y-110543750D01*
X141750329Y-110556329D01*
X141737750Y-110567731D01*
X141724114Y-110577844D01*
X141709552Y-110586572D01*
X141694204Y-110593831D01*
X141678219Y-110599551D01*
X141661751Y-110603676D01*
X141644957Y-110606167D01*
X141628000Y-110607000D01*
X141282000Y-110607000D01*
X141265043Y-110606167D01*
X141248249Y-110603676D01*
X141231781Y-110599551D01*
X141215796Y-110593831D01*
X141200448Y-110586572D01*
X141185886Y-110577844D01*
X141172250Y-110567731D01*
X141159671Y-110556329D01*
X141148269Y-110543750D01*
X141138156Y-110530114D01*
X141129428Y-110515552D01*
X141122169Y-110500204D01*
X141116449Y-110484219D01*
X141112324Y-110467751D01*
X141109833Y-110450957D01*
X141109000Y-110434000D01*
X141109000Y-110038000D01*
X141109833Y-110021043D01*
X141112324Y-110004249D01*
X141116449Y-109987781D01*
X141122169Y-109971796D01*
X141129428Y-109956448D01*
X141138156Y-109941886D01*
X141148269Y-109928250D01*
X141159671Y-109915671D01*
X141172250Y-109904269D01*
X141185886Y-109894156D01*
X141200448Y-109885428D01*
X141215796Y-109878169D01*
X141231781Y-109872449D01*
X141248249Y-109868324D01*
X141265043Y-109865833D01*
X141282000Y-109865000D01*
X141628000Y-109865000D01*
X141644957Y-109865833D01*
X141644957Y-109865833D01*
G37*
D20*
X141455000Y-110236000D03*
D18*
G36*
X140422957Y-108574833D02*
X140439751Y-108577324D01*
X140456219Y-108581449D01*
X140472204Y-108587169D01*
X140487552Y-108594428D01*
X140502114Y-108603156D01*
X140515750Y-108613269D01*
X140528329Y-108624671D01*
X140539731Y-108637250D01*
X140549844Y-108650886D01*
X140558572Y-108665448D01*
X140565831Y-108680796D01*
X140571551Y-108696781D01*
X140575676Y-108713249D01*
X140578167Y-108730043D01*
X140579000Y-108747000D01*
X140579000Y-109093000D01*
X140578167Y-109109957D01*
X140575676Y-109126751D01*
X140571551Y-109143219D01*
X140565831Y-109159204D01*
X140558572Y-109174552D01*
X140549844Y-109189114D01*
X140539731Y-109202750D01*
X140528329Y-109215329D01*
X140515750Y-109226731D01*
X140502114Y-109236844D01*
X140487552Y-109245572D01*
X140472204Y-109252831D01*
X140456219Y-109258551D01*
X140439751Y-109262676D01*
X140422957Y-109265167D01*
X140406000Y-109266000D01*
X140010000Y-109266000D01*
X139993043Y-109265167D01*
X139976249Y-109262676D01*
X139959781Y-109258551D01*
X139943796Y-109252831D01*
X139928448Y-109245572D01*
X139913886Y-109236844D01*
X139900250Y-109226731D01*
X139887671Y-109215329D01*
X139876269Y-109202750D01*
X139866156Y-109189114D01*
X139857428Y-109174552D01*
X139850169Y-109159204D01*
X139844449Y-109143219D01*
X139840324Y-109126751D01*
X139837833Y-109109957D01*
X139837000Y-109093000D01*
X139837000Y-108747000D01*
X139837833Y-108730043D01*
X139840324Y-108713249D01*
X139844449Y-108696781D01*
X139850169Y-108680796D01*
X139857428Y-108665448D01*
X139866156Y-108650886D01*
X139876269Y-108637250D01*
X139887671Y-108624671D01*
X139900250Y-108613269D01*
X139913886Y-108603156D01*
X139928448Y-108594428D01*
X139943796Y-108587169D01*
X139959781Y-108581449D01*
X139976249Y-108577324D01*
X139993043Y-108574833D01*
X140010000Y-108574000D01*
X140406000Y-108574000D01*
X140422957Y-108574833D01*
X140422957Y-108574833D01*
G37*
D20*
X140208000Y-108920000D03*
D18*
G36*
X140422957Y-107604833D02*
X140439751Y-107607324D01*
X140456219Y-107611449D01*
X140472204Y-107617169D01*
X140487552Y-107624428D01*
X140502114Y-107633156D01*
X140515750Y-107643269D01*
X140528329Y-107654671D01*
X140539731Y-107667250D01*
X140549844Y-107680886D01*
X140558572Y-107695448D01*
X140565831Y-107710796D01*
X140571551Y-107726781D01*
X140575676Y-107743249D01*
X140578167Y-107760043D01*
X140579000Y-107777000D01*
X140579000Y-108123000D01*
X140578167Y-108139957D01*
X140575676Y-108156751D01*
X140571551Y-108173219D01*
X140565831Y-108189204D01*
X140558572Y-108204552D01*
X140549844Y-108219114D01*
X140539731Y-108232750D01*
X140528329Y-108245329D01*
X140515750Y-108256731D01*
X140502114Y-108266844D01*
X140487552Y-108275572D01*
X140472204Y-108282831D01*
X140456219Y-108288551D01*
X140439751Y-108292676D01*
X140422957Y-108295167D01*
X140406000Y-108296000D01*
X140010000Y-108296000D01*
X139993043Y-108295167D01*
X139976249Y-108292676D01*
X139959781Y-108288551D01*
X139943796Y-108282831D01*
X139928448Y-108275572D01*
X139913886Y-108266844D01*
X139900250Y-108256731D01*
X139887671Y-108245329D01*
X139876269Y-108232750D01*
X139866156Y-108219114D01*
X139857428Y-108204552D01*
X139850169Y-108189204D01*
X139844449Y-108173219D01*
X139840324Y-108156751D01*
X139837833Y-108139957D01*
X139837000Y-108123000D01*
X139837000Y-107777000D01*
X139837833Y-107760043D01*
X139840324Y-107743249D01*
X139844449Y-107726781D01*
X139850169Y-107710796D01*
X139857428Y-107695448D01*
X139866156Y-107680886D01*
X139876269Y-107667250D01*
X139887671Y-107654671D01*
X139900250Y-107643269D01*
X139913886Y-107633156D01*
X139928448Y-107624428D01*
X139943796Y-107617169D01*
X139959781Y-107611449D01*
X139976249Y-107607324D01*
X139993043Y-107604833D01*
X140010000Y-107604000D01*
X140406000Y-107604000D01*
X140422957Y-107604833D01*
X140422957Y-107604833D01*
G37*
D20*
X140208000Y-107950000D03*
D21*
X149860000Y-114300000D03*
X149860000Y-111760000D03*
X149860000Y-109220000D03*
X149860000Y-106680000D03*
X149860000Y-104140000D03*
X149860000Y-101600000D03*
X149860000Y-99060000D03*
D22*
X149860000Y-96520000D03*
D21*
X137160000Y-96520000D03*
X137160000Y-99060000D03*
X137160000Y-101600000D03*
X137160000Y-104140000D03*
X137160000Y-106680000D03*
X137160000Y-109220000D03*
X137160000Y-111760000D03*
D22*
X137160000Y-114300000D03*
D18*
G36*
X144983147Y-100883296D02*
X145009283Y-100887173D01*
X145034913Y-100893594D01*
X145059791Y-100902495D01*
X145083677Y-100913792D01*
X145106340Y-100927376D01*
X145127563Y-100943116D01*
X145147140Y-100960860D01*
X145164884Y-100980437D01*
X145180624Y-101001660D01*
X145194208Y-101024323D01*
X145205505Y-101048209D01*
X145214406Y-101073087D01*
X145220827Y-101098717D01*
X145224704Y-101124853D01*
X145226000Y-101151244D01*
X145226000Y-103064756D01*
X145224704Y-103091147D01*
X145220827Y-103117283D01*
X145214406Y-103142913D01*
X145205505Y-103167791D01*
X145194208Y-103191677D01*
X145180624Y-103214340D01*
X145164884Y-103235563D01*
X145147140Y-103255140D01*
X145127563Y-103272884D01*
X145106340Y-103288624D01*
X145083677Y-103302208D01*
X145059791Y-103313505D01*
X145034913Y-103322406D01*
X145009283Y-103328827D01*
X144983147Y-103332704D01*
X144956756Y-103334000D01*
X144068244Y-103334000D01*
X144041853Y-103332704D01*
X144015717Y-103328827D01*
X143990087Y-103322406D01*
X143965209Y-103313505D01*
X143941323Y-103302208D01*
X143918660Y-103288624D01*
X143897437Y-103272884D01*
X143877860Y-103255140D01*
X143860116Y-103235563D01*
X143844376Y-103214340D01*
X143830792Y-103191677D01*
X143819495Y-103167791D01*
X143810594Y-103142913D01*
X143804173Y-103117283D01*
X143800296Y-103091147D01*
X143799000Y-103064756D01*
X143799000Y-101151244D01*
X143800296Y-101124853D01*
X143804173Y-101098717D01*
X143810594Y-101073087D01*
X143819495Y-101048209D01*
X143830792Y-101024323D01*
X143844376Y-101001660D01*
X143860116Y-100980437D01*
X143877860Y-100960860D01*
X143897437Y-100943116D01*
X143918660Y-100927376D01*
X143941323Y-100913792D01*
X143965209Y-100902495D01*
X143990087Y-100893594D01*
X144015717Y-100887173D01*
X144041853Y-100883296D01*
X144068244Y-100882000D01*
X144956756Y-100882000D01*
X144983147Y-100883296D01*
X144983147Y-100883296D01*
G37*
D23*
X144512500Y-102108000D03*
D18*
G36*
X148058147Y-100883296D02*
X148084283Y-100887173D01*
X148109913Y-100893594D01*
X148134791Y-100902495D01*
X148158677Y-100913792D01*
X148181340Y-100927376D01*
X148202563Y-100943116D01*
X148222140Y-100960860D01*
X148239884Y-100980437D01*
X148255624Y-101001660D01*
X148269208Y-101024323D01*
X148280505Y-101048209D01*
X148289406Y-101073087D01*
X148295827Y-101098717D01*
X148299704Y-101124853D01*
X148301000Y-101151244D01*
X148301000Y-103064756D01*
X148299704Y-103091147D01*
X148295827Y-103117283D01*
X148289406Y-103142913D01*
X148280505Y-103167791D01*
X148269208Y-103191677D01*
X148255624Y-103214340D01*
X148239884Y-103235563D01*
X148222140Y-103255140D01*
X148202563Y-103272884D01*
X148181340Y-103288624D01*
X148158677Y-103302208D01*
X148134791Y-103313505D01*
X148109913Y-103322406D01*
X148084283Y-103328827D01*
X148058147Y-103332704D01*
X148031756Y-103334000D01*
X147143244Y-103334000D01*
X147116853Y-103332704D01*
X147090717Y-103328827D01*
X147065087Y-103322406D01*
X147040209Y-103313505D01*
X147016323Y-103302208D01*
X146993660Y-103288624D01*
X146972437Y-103272884D01*
X146952860Y-103255140D01*
X146935116Y-103235563D01*
X146919376Y-103214340D01*
X146905792Y-103191677D01*
X146894495Y-103167791D01*
X146885594Y-103142913D01*
X146879173Y-103117283D01*
X146875296Y-103091147D01*
X146874000Y-103064756D01*
X146874000Y-101151244D01*
X146875296Y-101124853D01*
X146879173Y-101098717D01*
X146885594Y-101073087D01*
X146894495Y-101048209D01*
X146905792Y-101024323D01*
X146919376Y-101001660D01*
X146935116Y-100980437D01*
X146952860Y-100960860D01*
X146972437Y-100943116D01*
X146993660Y-100927376D01*
X147016323Y-100913792D01*
X147040209Y-100902495D01*
X147065087Y-100893594D01*
X147090717Y-100887173D01*
X147116853Y-100883296D01*
X147143244Y-100882000D01*
X148031756Y-100882000D01*
X148058147Y-100883296D01*
X148058147Y-100883296D01*
G37*
D23*
X147587500Y-102108000D03*
D18*
G36*
X147371691Y-110485176D02*
X147395401Y-110488693D01*
X147418652Y-110494517D01*
X147441220Y-110502592D01*
X147462889Y-110512841D01*
X147483448Y-110525164D01*
X147502701Y-110539442D01*
X147520461Y-110555539D01*
X147536558Y-110573299D01*
X147550836Y-110592552D01*
X147563159Y-110613111D01*
X147573408Y-110634780D01*
X147581483Y-110657348D01*
X147587307Y-110680599D01*
X147590824Y-110704309D01*
X147592000Y-110728250D01*
X147592000Y-111216750D01*
X147590824Y-111240691D01*
X147587307Y-111264401D01*
X147581483Y-111287652D01*
X147573408Y-111310220D01*
X147563159Y-111331889D01*
X147550836Y-111352448D01*
X147536558Y-111371701D01*
X147520461Y-111389461D01*
X147502701Y-111405558D01*
X147483448Y-111419836D01*
X147462889Y-111432159D01*
X147441220Y-111442408D01*
X147418652Y-111450483D01*
X147395401Y-111456307D01*
X147371691Y-111459824D01*
X147347750Y-111461000D01*
X146784250Y-111461000D01*
X146760309Y-111459824D01*
X146736599Y-111456307D01*
X146713348Y-111450483D01*
X146690780Y-111442408D01*
X146669111Y-111432159D01*
X146648552Y-111419836D01*
X146629299Y-111405558D01*
X146611539Y-111389461D01*
X146595442Y-111371701D01*
X146581164Y-111352448D01*
X146568841Y-111331889D01*
X146558592Y-111310220D01*
X146550517Y-111287652D01*
X146544693Y-111264401D01*
X146541176Y-111240691D01*
X146540000Y-111216750D01*
X146540000Y-110728250D01*
X146541176Y-110704309D01*
X146544693Y-110680599D01*
X146550517Y-110657348D01*
X146558592Y-110634780D01*
X146568841Y-110613111D01*
X146581164Y-110592552D01*
X146595442Y-110573299D01*
X146611539Y-110555539D01*
X146629299Y-110539442D01*
X146648552Y-110525164D01*
X146669111Y-110512841D01*
X146690780Y-110502592D01*
X146713348Y-110494517D01*
X146736599Y-110488693D01*
X146760309Y-110485176D01*
X146784250Y-110484000D01*
X147347750Y-110484000D01*
X147371691Y-110485176D01*
X147371691Y-110485176D01*
G37*
D24*
X147066000Y-110972500D03*
D18*
G36*
X147371691Y-112060176D02*
X147395401Y-112063693D01*
X147418652Y-112069517D01*
X147441220Y-112077592D01*
X147462889Y-112087841D01*
X147483448Y-112100164D01*
X147502701Y-112114442D01*
X147520461Y-112130539D01*
X147536558Y-112148299D01*
X147550836Y-112167552D01*
X147563159Y-112188111D01*
X147573408Y-112209780D01*
X147581483Y-112232348D01*
X147587307Y-112255599D01*
X147590824Y-112279309D01*
X147592000Y-112303250D01*
X147592000Y-112791750D01*
X147590824Y-112815691D01*
X147587307Y-112839401D01*
X147581483Y-112862652D01*
X147573408Y-112885220D01*
X147563159Y-112906889D01*
X147550836Y-112927448D01*
X147536558Y-112946701D01*
X147520461Y-112964461D01*
X147502701Y-112980558D01*
X147483448Y-112994836D01*
X147462889Y-113007159D01*
X147441220Y-113017408D01*
X147418652Y-113025483D01*
X147395401Y-113031307D01*
X147371691Y-113034824D01*
X147347750Y-113036000D01*
X146784250Y-113036000D01*
X146760309Y-113034824D01*
X146736599Y-113031307D01*
X146713348Y-113025483D01*
X146690780Y-113017408D01*
X146669111Y-113007159D01*
X146648552Y-112994836D01*
X146629299Y-112980558D01*
X146611539Y-112964461D01*
X146595442Y-112946701D01*
X146581164Y-112927448D01*
X146568841Y-112906889D01*
X146558592Y-112885220D01*
X146550517Y-112862652D01*
X146544693Y-112839401D01*
X146541176Y-112815691D01*
X146540000Y-112791750D01*
X146540000Y-112303250D01*
X146541176Y-112279309D01*
X146544693Y-112255599D01*
X146550517Y-112232348D01*
X146558592Y-112209780D01*
X146568841Y-112188111D01*
X146581164Y-112167552D01*
X146595442Y-112148299D01*
X146611539Y-112130539D01*
X146629299Y-112114442D01*
X146648552Y-112100164D01*
X146669111Y-112087841D01*
X146690780Y-112077592D01*
X146713348Y-112069517D01*
X146736599Y-112063693D01*
X146760309Y-112060176D01*
X146784250Y-112059000D01*
X147347750Y-112059000D01*
X147371691Y-112060176D01*
X147371691Y-112060176D01*
G37*
D24*
X147066000Y-112547500D03*
D18*
G36*
X141946957Y-105087833D02*
X141963751Y-105090324D01*
X141980219Y-105094449D01*
X141996204Y-105100169D01*
X142011552Y-105107428D01*
X142026114Y-105116156D01*
X142039750Y-105126269D01*
X142052329Y-105137671D01*
X142063731Y-105150250D01*
X142073844Y-105163886D01*
X142082572Y-105178448D01*
X142089831Y-105193796D01*
X142095551Y-105209781D01*
X142099676Y-105226249D01*
X142102167Y-105243043D01*
X142103000Y-105260000D01*
X142103000Y-105606000D01*
X142102167Y-105622957D01*
X142099676Y-105639751D01*
X142095551Y-105656219D01*
X142089831Y-105672204D01*
X142082572Y-105687552D01*
X142073844Y-105702114D01*
X142063731Y-105715750D01*
X142052329Y-105728329D01*
X142039750Y-105739731D01*
X142026114Y-105749844D01*
X142011552Y-105758572D01*
X141996204Y-105765831D01*
X141980219Y-105771551D01*
X141963751Y-105775676D01*
X141946957Y-105778167D01*
X141930000Y-105779000D01*
X141534000Y-105779000D01*
X141517043Y-105778167D01*
X141500249Y-105775676D01*
X141483781Y-105771551D01*
X141467796Y-105765831D01*
X141452448Y-105758572D01*
X141437886Y-105749844D01*
X141424250Y-105739731D01*
X141411671Y-105728329D01*
X141400269Y-105715750D01*
X141390156Y-105702114D01*
X141381428Y-105687552D01*
X141374169Y-105672204D01*
X141368449Y-105656219D01*
X141364324Y-105639751D01*
X141361833Y-105622957D01*
X141361000Y-105606000D01*
X141361000Y-105260000D01*
X141361833Y-105243043D01*
X141364324Y-105226249D01*
X141368449Y-105209781D01*
X141374169Y-105193796D01*
X141381428Y-105178448D01*
X141390156Y-105163886D01*
X141400269Y-105150250D01*
X141411671Y-105137671D01*
X141424250Y-105126269D01*
X141437886Y-105116156D01*
X141452448Y-105107428D01*
X141467796Y-105100169D01*
X141483781Y-105094449D01*
X141500249Y-105090324D01*
X141517043Y-105087833D01*
X141534000Y-105087000D01*
X141930000Y-105087000D01*
X141946957Y-105087833D01*
X141946957Y-105087833D01*
G37*
D20*
X141732000Y-105433000D03*
D18*
G36*
X141946957Y-106057833D02*
X141963751Y-106060324D01*
X141980219Y-106064449D01*
X141996204Y-106070169D01*
X142011552Y-106077428D01*
X142026114Y-106086156D01*
X142039750Y-106096269D01*
X142052329Y-106107671D01*
X142063731Y-106120250D01*
X142073844Y-106133886D01*
X142082572Y-106148448D01*
X142089831Y-106163796D01*
X142095551Y-106179781D01*
X142099676Y-106196249D01*
X142102167Y-106213043D01*
X142103000Y-106230000D01*
X142103000Y-106576000D01*
X142102167Y-106592957D01*
X142099676Y-106609751D01*
X142095551Y-106626219D01*
X142089831Y-106642204D01*
X142082572Y-106657552D01*
X142073844Y-106672114D01*
X142063731Y-106685750D01*
X142052329Y-106698329D01*
X142039750Y-106709731D01*
X142026114Y-106719844D01*
X142011552Y-106728572D01*
X141996204Y-106735831D01*
X141980219Y-106741551D01*
X141963751Y-106745676D01*
X141946957Y-106748167D01*
X141930000Y-106749000D01*
X141534000Y-106749000D01*
X141517043Y-106748167D01*
X141500249Y-106745676D01*
X141483781Y-106741551D01*
X141467796Y-106735831D01*
X141452448Y-106728572D01*
X141437886Y-106719844D01*
X141424250Y-106709731D01*
X141411671Y-106698329D01*
X141400269Y-106685750D01*
X141390156Y-106672114D01*
X141381428Y-106657552D01*
X141374169Y-106642204D01*
X141368449Y-106626219D01*
X141364324Y-106609751D01*
X141361833Y-106592957D01*
X141361000Y-106576000D01*
X141361000Y-106230000D01*
X141361833Y-106213043D01*
X141364324Y-106196249D01*
X141368449Y-106179781D01*
X141374169Y-106163796D01*
X141381428Y-106148448D01*
X141390156Y-106133886D01*
X141400269Y-106120250D01*
X141411671Y-106107671D01*
X141424250Y-106096269D01*
X141437886Y-106086156D01*
X141452448Y-106077428D01*
X141467796Y-106070169D01*
X141483781Y-106064449D01*
X141500249Y-106060324D01*
X141517043Y-106057833D01*
X141534000Y-106057000D01*
X141930000Y-106057000D01*
X141946957Y-106057833D01*
X141946957Y-106057833D01*
G37*
D20*
X141732000Y-106403000D03*
D18*
G36*
X140676957Y-101531833D02*
X140693751Y-101534324D01*
X140710219Y-101538449D01*
X140726204Y-101544169D01*
X140741552Y-101551428D01*
X140756114Y-101560156D01*
X140769750Y-101570269D01*
X140782329Y-101581671D01*
X140793731Y-101594250D01*
X140803844Y-101607886D01*
X140812572Y-101622448D01*
X140819831Y-101637796D01*
X140825551Y-101653781D01*
X140829676Y-101670249D01*
X140832167Y-101687043D01*
X140833000Y-101704000D01*
X140833000Y-102050000D01*
X140832167Y-102066957D01*
X140829676Y-102083751D01*
X140825551Y-102100219D01*
X140819831Y-102116204D01*
X140812572Y-102131552D01*
X140803844Y-102146114D01*
X140793731Y-102159750D01*
X140782329Y-102172329D01*
X140769750Y-102183731D01*
X140756114Y-102193844D01*
X140741552Y-102202572D01*
X140726204Y-102209831D01*
X140710219Y-102215551D01*
X140693751Y-102219676D01*
X140676957Y-102222167D01*
X140660000Y-102223000D01*
X140264000Y-102223000D01*
X140247043Y-102222167D01*
X140230249Y-102219676D01*
X140213781Y-102215551D01*
X140197796Y-102209831D01*
X140182448Y-102202572D01*
X140167886Y-102193844D01*
X140154250Y-102183731D01*
X140141671Y-102172329D01*
X140130269Y-102159750D01*
X140120156Y-102146114D01*
X140111428Y-102131552D01*
X140104169Y-102116204D01*
X140098449Y-102100219D01*
X140094324Y-102083751D01*
X140091833Y-102066957D01*
X140091000Y-102050000D01*
X140091000Y-101704000D01*
X140091833Y-101687043D01*
X140094324Y-101670249D01*
X140098449Y-101653781D01*
X140104169Y-101637796D01*
X140111428Y-101622448D01*
X140120156Y-101607886D01*
X140130269Y-101594250D01*
X140141671Y-101581671D01*
X140154250Y-101570269D01*
X140167886Y-101560156D01*
X140182448Y-101551428D01*
X140197796Y-101544169D01*
X140213781Y-101538449D01*
X140230249Y-101534324D01*
X140247043Y-101531833D01*
X140264000Y-101531000D01*
X140660000Y-101531000D01*
X140676957Y-101531833D01*
X140676957Y-101531833D01*
G37*
D20*
X140462000Y-101877000D03*
D18*
G36*
X140676957Y-102501833D02*
X140693751Y-102504324D01*
X140710219Y-102508449D01*
X140726204Y-102514169D01*
X140741552Y-102521428D01*
X140756114Y-102530156D01*
X140769750Y-102540269D01*
X140782329Y-102551671D01*
X140793731Y-102564250D01*
X140803844Y-102577886D01*
X140812572Y-102592448D01*
X140819831Y-102607796D01*
X140825551Y-102623781D01*
X140829676Y-102640249D01*
X140832167Y-102657043D01*
X140833000Y-102674000D01*
X140833000Y-103020000D01*
X140832167Y-103036957D01*
X140829676Y-103053751D01*
X140825551Y-103070219D01*
X140819831Y-103086204D01*
X140812572Y-103101552D01*
X140803844Y-103116114D01*
X140793731Y-103129750D01*
X140782329Y-103142329D01*
X140769750Y-103153731D01*
X140756114Y-103163844D01*
X140741552Y-103172572D01*
X140726204Y-103179831D01*
X140710219Y-103185551D01*
X140693751Y-103189676D01*
X140676957Y-103192167D01*
X140660000Y-103193000D01*
X140264000Y-103193000D01*
X140247043Y-103192167D01*
X140230249Y-103189676D01*
X140213781Y-103185551D01*
X140197796Y-103179831D01*
X140182448Y-103172572D01*
X140167886Y-103163844D01*
X140154250Y-103153731D01*
X140141671Y-103142329D01*
X140130269Y-103129750D01*
X140120156Y-103116114D01*
X140111428Y-103101552D01*
X140104169Y-103086204D01*
X140098449Y-103070219D01*
X140094324Y-103053751D01*
X140091833Y-103036957D01*
X140091000Y-103020000D01*
X140091000Y-102674000D01*
X140091833Y-102657043D01*
X140094324Y-102640249D01*
X140098449Y-102623781D01*
X140104169Y-102607796D01*
X140111428Y-102592448D01*
X140120156Y-102577886D01*
X140130269Y-102564250D01*
X140141671Y-102551671D01*
X140154250Y-102540269D01*
X140167886Y-102530156D01*
X140182448Y-102521428D01*
X140197796Y-102514169D01*
X140213781Y-102508449D01*
X140230249Y-102504324D01*
X140247043Y-102501833D01*
X140264000Y-102501000D01*
X140660000Y-102501000D01*
X140676957Y-102501833D01*
X140676957Y-102501833D01*
G37*
D20*
X140462000Y-102847000D03*
D18*
G36*
X145200957Y-104277833D02*
X145217751Y-104280324D01*
X145234219Y-104284449D01*
X145250204Y-104290169D01*
X145265552Y-104297428D01*
X145280114Y-104306156D01*
X145293750Y-104316269D01*
X145306329Y-104327671D01*
X145317731Y-104340250D01*
X145327844Y-104353886D01*
X145336572Y-104368448D01*
X145343831Y-104383796D01*
X145349551Y-104399781D01*
X145353676Y-104416249D01*
X145356167Y-104433043D01*
X145357000Y-104450000D01*
X145357000Y-104846000D01*
X145356167Y-104862957D01*
X145353676Y-104879751D01*
X145349551Y-104896219D01*
X145343831Y-104912204D01*
X145336572Y-104927552D01*
X145327844Y-104942114D01*
X145317731Y-104955750D01*
X145306329Y-104968329D01*
X145293750Y-104979731D01*
X145280114Y-104989844D01*
X145265552Y-104998572D01*
X145250204Y-105005831D01*
X145234219Y-105011551D01*
X145217751Y-105015676D01*
X145200957Y-105018167D01*
X145184000Y-105019000D01*
X144838000Y-105019000D01*
X144821043Y-105018167D01*
X144804249Y-105015676D01*
X144787781Y-105011551D01*
X144771796Y-105005831D01*
X144756448Y-104998572D01*
X144741886Y-104989844D01*
X144728250Y-104979731D01*
X144715671Y-104968329D01*
X144704269Y-104955750D01*
X144694156Y-104942114D01*
X144685428Y-104927552D01*
X144678169Y-104912204D01*
X144672449Y-104896219D01*
X144668324Y-104879751D01*
X144665833Y-104862957D01*
X144665000Y-104846000D01*
X144665000Y-104450000D01*
X144665833Y-104433043D01*
X144668324Y-104416249D01*
X144672449Y-104399781D01*
X144678169Y-104383796D01*
X144685428Y-104368448D01*
X144694156Y-104353886D01*
X144704269Y-104340250D01*
X144715671Y-104327671D01*
X144728250Y-104316269D01*
X144741886Y-104306156D01*
X144756448Y-104297428D01*
X144771796Y-104290169D01*
X144787781Y-104284449D01*
X144804249Y-104280324D01*
X144821043Y-104277833D01*
X144838000Y-104277000D01*
X145184000Y-104277000D01*
X145200957Y-104277833D01*
X145200957Y-104277833D01*
G37*
D20*
X145011000Y-104648000D03*
D18*
G36*
X144230957Y-104277833D02*
X144247751Y-104280324D01*
X144264219Y-104284449D01*
X144280204Y-104290169D01*
X144295552Y-104297428D01*
X144310114Y-104306156D01*
X144323750Y-104316269D01*
X144336329Y-104327671D01*
X144347731Y-104340250D01*
X144357844Y-104353886D01*
X144366572Y-104368448D01*
X144373831Y-104383796D01*
X144379551Y-104399781D01*
X144383676Y-104416249D01*
X144386167Y-104433043D01*
X144387000Y-104450000D01*
X144387000Y-104846000D01*
X144386167Y-104862957D01*
X144383676Y-104879751D01*
X144379551Y-104896219D01*
X144373831Y-104912204D01*
X144366572Y-104927552D01*
X144357844Y-104942114D01*
X144347731Y-104955750D01*
X144336329Y-104968329D01*
X144323750Y-104979731D01*
X144310114Y-104989844D01*
X144295552Y-104998572D01*
X144280204Y-105005831D01*
X144264219Y-105011551D01*
X144247751Y-105015676D01*
X144230957Y-105018167D01*
X144214000Y-105019000D01*
X143868000Y-105019000D01*
X143851043Y-105018167D01*
X143834249Y-105015676D01*
X143817781Y-105011551D01*
X143801796Y-105005831D01*
X143786448Y-104998572D01*
X143771886Y-104989844D01*
X143758250Y-104979731D01*
X143745671Y-104968329D01*
X143734269Y-104955750D01*
X143724156Y-104942114D01*
X143715428Y-104927552D01*
X143708169Y-104912204D01*
X143702449Y-104896219D01*
X143698324Y-104879751D01*
X143695833Y-104862957D01*
X143695000Y-104846000D01*
X143695000Y-104450000D01*
X143695833Y-104433043D01*
X143698324Y-104416249D01*
X143702449Y-104399781D01*
X143708169Y-104383796D01*
X143715428Y-104368448D01*
X143724156Y-104353886D01*
X143734269Y-104340250D01*
X143745671Y-104327671D01*
X143758250Y-104316269D01*
X143771886Y-104306156D01*
X143786448Y-104297428D01*
X143801796Y-104290169D01*
X143817781Y-104284449D01*
X143834249Y-104280324D01*
X143851043Y-104277833D01*
X143868000Y-104277000D01*
X144214000Y-104277000D01*
X144230957Y-104277833D01*
X144230957Y-104277833D01*
G37*
D20*
X144041000Y-104648000D03*
D18*
G36*
X141692957Y-108597833D02*
X141709751Y-108600324D01*
X141726219Y-108604449D01*
X141742204Y-108610169D01*
X141757552Y-108617428D01*
X141772114Y-108626156D01*
X141785750Y-108636269D01*
X141798329Y-108647671D01*
X141809731Y-108660250D01*
X141819844Y-108673886D01*
X141828572Y-108688448D01*
X141835831Y-108703796D01*
X141841551Y-108719781D01*
X141845676Y-108736249D01*
X141848167Y-108753043D01*
X141849000Y-108770000D01*
X141849000Y-109116000D01*
X141848167Y-109132957D01*
X141845676Y-109149751D01*
X141841551Y-109166219D01*
X141835831Y-109182204D01*
X141828572Y-109197552D01*
X141819844Y-109212114D01*
X141809731Y-109225750D01*
X141798329Y-109238329D01*
X141785750Y-109249731D01*
X141772114Y-109259844D01*
X141757552Y-109268572D01*
X141742204Y-109275831D01*
X141726219Y-109281551D01*
X141709751Y-109285676D01*
X141692957Y-109288167D01*
X141676000Y-109289000D01*
X141280000Y-109289000D01*
X141263043Y-109288167D01*
X141246249Y-109285676D01*
X141229781Y-109281551D01*
X141213796Y-109275831D01*
X141198448Y-109268572D01*
X141183886Y-109259844D01*
X141170250Y-109249731D01*
X141157671Y-109238329D01*
X141146269Y-109225750D01*
X141136156Y-109212114D01*
X141127428Y-109197552D01*
X141120169Y-109182204D01*
X141114449Y-109166219D01*
X141110324Y-109149751D01*
X141107833Y-109132957D01*
X141107000Y-109116000D01*
X141107000Y-108770000D01*
X141107833Y-108753043D01*
X141110324Y-108736249D01*
X141114449Y-108719781D01*
X141120169Y-108703796D01*
X141127428Y-108688448D01*
X141136156Y-108673886D01*
X141146269Y-108660250D01*
X141157671Y-108647671D01*
X141170250Y-108636269D01*
X141183886Y-108626156D01*
X141198448Y-108617428D01*
X141213796Y-108610169D01*
X141229781Y-108604449D01*
X141246249Y-108600324D01*
X141263043Y-108597833D01*
X141280000Y-108597000D01*
X141676000Y-108597000D01*
X141692957Y-108597833D01*
X141692957Y-108597833D01*
G37*
D20*
X141478000Y-108943000D03*
D18*
G36*
X141692957Y-107627833D02*
X141709751Y-107630324D01*
X141726219Y-107634449D01*
X141742204Y-107640169D01*
X141757552Y-107647428D01*
X141772114Y-107656156D01*
X141785750Y-107666269D01*
X141798329Y-107677671D01*
X141809731Y-107690250D01*
X141819844Y-107703886D01*
X141828572Y-107718448D01*
X141835831Y-107733796D01*
X141841551Y-107749781D01*
X141845676Y-107766249D01*
X141848167Y-107783043D01*
X141849000Y-107800000D01*
X141849000Y-108146000D01*
X141848167Y-108162957D01*
X141845676Y-108179751D01*
X141841551Y-108196219D01*
X141835831Y-108212204D01*
X141828572Y-108227552D01*
X141819844Y-108242114D01*
X141809731Y-108255750D01*
X141798329Y-108268329D01*
X141785750Y-108279731D01*
X141772114Y-108289844D01*
X141757552Y-108298572D01*
X141742204Y-108305831D01*
X141726219Y-108311551D01*
X141709751Y-108315676D01*
X141692957Y-108318167D01*
X141676000Y-108319000D01*
X141280000Y-108319000D01*
X141263043Y-108318167D01*
X141246249Y-108315676D01*
X141229781Y-108311551D01*
X141213796Y-108305831D01*
X141198448Y-108298572D01*
X141183886Y-108289844D01*
X141170250Y-108279731D01*
X141157671Y-108268329D01*
X141146269Y-108255750D01*
X141136156Y-108242114D01*
X141127428Y-108227552D01*
X141120169Y-108212204D01*
X141114449Y-108196219D01*
X141110324Y-108179751D01*
X141107833Y-108162957D01*
X141107000Y-108146000D01*
X141107000Y-107800000D01*
X141107833Y-107783043D01*
X141110324Y-107766249D01*
X141114449Y-107749781D01*
X141120169Y-107733796D01*
X141127428Y-107718448D01*
X141136156Y-107703886D01*
X141146269Y-107690250D01*
X141157671Y-107677671D01*
X141170250Y-107666269D01*
X141183886Y-107656156D01*
X141198448Y-107647428D01*
X141213796Y-107640169D01*
X141229781Y-107634449D01*
X141246249Y-107630324D01*
X141263043Y-107627833D01*
X141280000Y-107627000D01*
X141676000Y-107627000D01*
X141692957Y-107627833D01*
X141692957Y-107627833D01*
G37*
D20*
X141478000Y-107973000D03*
M02*
