%TF.GenerationSoftware,KiCad,Pcbnew,6.0.0-rc1-unknown-2c0fe8f~66~ubuntu18.04.1*%
%TF.CreationDate,2018-10-10T11:30:18+02:00*%
%TF.ProjectId,stspin220,73747370696E3232302E6B696361645F,rev?*%
%TF.SameCoordinates,Original*%
%TF.FileFunction,Copper,L2,Bot,Signal*%
%TF.FilePolarity,Positive*%
%FSLAX46Y46*%
G04 Gerber Fmt 4.6, Leading zero omitted, Abs format (unit mm)*
G04 Created by KiCad (PCBNEW 6.0.0-rc1-unknown-2c0fe8f~66~ubuntu18.04.1) date Wed Oct 10 11:30:18 2018*
%MOMM*%
%LPD*%
G01*
G04 APERTURE LIST*
%ADD10O,1.700000X1.700000*%
%ADD11R,1.700000X1.700000*%
%ADD12C,0.600000*%
%ADD13C,0.152400*%
%ADD14C,0.279400*%
%ADD15C,0.457200*%
%ADD16C,0.254000*%
G04 APERTURE END LIST*
D10*
X149860000Y-114300000D03*
X149860000Y-111760000D03*
X149860000Y-109220000D03*
X149860000Y-106680000D03*
X149860000Y-104140000D03*
X149860000Y-101600000D03*
X149860000Y-99060000D03*
D11*
X149860000Y-96520000D03*
D10*
X137160000Y-96520000D03*
X137160000Y-99060000D03*
X137160000Y-101600000D03*
X137160000Y-104140000D03*
X137160000Y-106680000D03*
X137160000Y-109220000D03*
X137160000Y-111760000D03*
D11*
X137160000Y-114300000D03*
D12*
X144780000Y-107950000D03*
X144780000Y-106934000D03*
X145796000Y-107950000D03*
X145796000Y-106934000D03*
X139700000Y-96266000D03*
X145288000Y-97790000D03*
X139700000Y-104648000D03*
X142494000Y-109474000D03*
X141986000Y-114300000D03*
X143002000Y-114300000D03*
X147066000Y-114300000D03*
X148082000Y-114300000D03*
X139192000Y-107188000D03*
X144780000Y-99568000D03*
X140970000Y-98044000D03*
X142748000Y-97790000D03*
X138938000Y-113030000D03*
X140462000Y-113030000D03*
X138684000Y-110744000D03*
X138430000Y-100330000D03*
X138430000Y-98298000D03*
X142494000Y-113030000D03*
X143256000Y-112522000D03*
X148844000Y-110490000D03*
X148336000Y-106426000D03*
X148590000Y-100076000D03*
X146050000Y-102108000D03*
X142240000Y-104394000D03*
X148336000Y-104394000D03*
X139446000Y-109982000D03*
X139192000Y-108458000D03*
X143002000Y-105410000D03*
X143002000Y-106606179D03*
X138430000Y-109982000D03*
X138430000Y-108458000D03*
X142494000Y-110236000D03*
X143002000Y-101092000D03*
X142494000Y-108458000D03*
X139446000Y-101092000D03*
X143002000Y-111506000D03*
X141478000Y-111506000D03*
X141732000Y-107188000D03*
X143001215Y-107663390D03*
X146812000Y-108966000D03*
X145139355Y-110087355D03*
X146812000Y-104902000D03*
X146304000Y-100584000D03*
X147574000Y-110236000D03*
X147562024Y-107599890D03*
X147543572Y-100584000D03*
D13*
X139446000Y-109982000D02*
X139446000Y-108712000D01*
X139446000Y-108712000D02*
X139192000Y-108458000D01*
X143002000Y-105410000D02*
X143002000Y-106606179D01*
X138430000Y-109982000D02*
X138430000Y-108458000D01*
X149860000Y-111760000D02*
X144018000Y-111760000D01*
X144018000Y-111760000D02*
X142494000Y-110236000D01*
X142494000Y-110236000D02*
X143764000Y-108966000D01*
X143764000Y-108966000D02*
X143764000Y-101854000D01*
X143764000Y-101854000D02*
X143002000Y-101092000D01*
X138938000Y-101600000D02*
X139446000Y-101092000D01*
X138938000Y-105664000D02*
X138938000Y-101600000D01*
X141432001Y-108158001D02*
X138938000Y-105664000D01*
X142494000Y-108458000D02*
X142194001Y-108158001D01*
X142194001Y-108158001D02*
X141432001Y-108158001D01*
X143002000Y-111506000D02*
X141478000Y-111506000D01*
X142701216Y-107363391D02*
X143001215Y-107663390D01*
X142525825Y-107188000D02*
X142701216Y-107363391D01*
X141732000Y-107188000D02*
X142525825Y-107188000D01*
D14*
X145439354Y-109787356D02*
X145139355Y-110087355D01*
X146260710Y-108966000D02*
X145439354Y-109787356D01*
X146812000Y-108966000D02*
X146260710Y-108966000D01*
X146812000Y-101092000D02*
X146304000Y-100584000D01*
X146812000Y-104902000D02*
X146812000Y-101092000D01*
D15*
X149860000Y-96520000D02*
X148552800Y-96520000D01*
X148552800Y-96520000D02*
X147543572Y-97529228D01*
X147543572Y-107581438D02*
X147562024Y-107599890D01*
X147574000Y-110236000D02*
X147574000Y-107611866D01*
X147574000Y-107611866D02*
X147562024Y-107599890D01*
X147543572Y-102980943D02*
X147543572Y-107581438D01*
X147543572Y-97529228D02*
X147543572Y-100584000D01*
X147543572Y-100584000D02*
X147543572Y-102980943D01*
D16*
G36*
X148621536Y-95910400D02*
X148612836Y-95910400D01*
X148552800Y-95898458D01*
X148492763Y-95910400D01*
X148314946Y-95945770D01*
X148113303Y-96080503D01*
X148079292Y-96131404D01*
X147154978Y-97055719D01*
X147104075Y-97089731D01*
X146969343Y-97291374D01*
X146969342Y-97291375D01*
X146922030Y-97529228D01*
X146933972Y-97589265D01*
X146933973Y-100276163D01*
X146923786Y-100300757D01*
X146881324Y-100198244D01*
X146689756Y-100006676D01*
X146439459Y-99903000D01*
X146168541Y-99903000D01*
X145918244Y-100006676D01*
X145726676Y-100198244D01*
X145623000Y-100448541D01*
X145623000Y-100719459D01*
X145726676Y-100969756D01*
X145918244Y-101161324D01*
X146168541Y-101265000D01*
X146248619Y-101265000D01*
X146291301Y-101307682D01*
X146291300Y-104459620D01*
X146234676Y-104516244D01*
X146131000Y-104766541D01*
X146131000Y-105037459D01*
X146234676Y-105287756D01*
X146426244Y-105479324D01*
X146676541Y-105583000D01*
X146933973Y-105583000D01*
X146933973Y-107336600D01*
X146881024Y-107464431D01*
X146881024Y-107735349D01*
X146964401Y-107936639D01*
X146964401Y-108292017D01*
X146947459Y-108285000D01*
X146676541Y-108285000D01*
X146426244Y-108388676D01*
X146369620Y-108445300D01*
X146311994Y-108445300D01*
X146260710Y-108435099D01*
X146057542Y-108475511D01*
X146001241Y-108513131D01*
X145885306Y-108590596D01*
X145856255Y-108634074D01*
X145107428Y-109382902D01*
X145083975Y-109406355D01*
X145003896Y-109406355D01*
X144753599Y-109510031D01*
X144562031Y-109701599D01*
X144458355Y-109951896D01*
X144458355Y-110222814D01*
X144562031Y-110473111D01*
X144753599Y-110664679D01*
X145003896Y-110768355D01*
X145274814Y-110768355D01*
X145525111Y-110664679D01*
X145716679Y-110473111D01*
X145820355Y-110222814D01*
X145820355Y-110142735D01*
X146423005Y-109540085D01*
X146426244Y-109543324D01*
X146676541Y-109647000D01*
X146947459Y-109647000D01*
X146964400Y-109639983D01*
X146964400Y-109928165D01*
X146893000Y-110100541D01*
X146893000Y-110371459D01*
X146996676Y-110621756D01*
X147188244Y-110813324D01*
X147438541Y-110917000D01*
X147709459Y-110917000D01*
X147959756Y-110813324D01*
X148151324Y-110621756D01*
X148255000Y-110371459D01*
X148255000Y-110100541D01*
X148183600Y-109928165D01*
X148183600Y-107878812D01*
X148243024Y-107735349D01*
X148243024Y-107464431D01*
X148153172Y-107247508D01*
X148153172Y-100891835D01*
X148224572Y-100719459D01*
X148224572Y-100448541D01*
X148153172Y-100276165D01*
X148153172Y-99376980D01*
X148670511Y-99376980D01*
X148794755Y-99676964D01*
X149111944Y-100037652D01*
X149543018Y-100249501D01*
X149733000Y-100189193D01*
X149733000Y-99187000D01*
X148731373Y-99187000D01*
X148670511Y-99376980D01*
X148153172Y-99376980D01*
X148153172Y-98743020D01*
X148670511Y-98743020D01*
X148731373Y-98933000D01*
X149733000Y-98933000D01*
X149733000Y-97930807D01*
X149543018Y-97870499D01*
X149111944Y-98082348D01*
X148794755Y-98443036D01*
X148670511Y-98743020D01*
X148153172Y-98743020D01*
X148153172Y-97781731D01*
X148621536Y-97313368D01*
X148621536Y-97370000D01*
X148651106Y-97518659D01*
X148735314Y-97644686D01*
X148861341Y-97728894D01*
X149010000Y-97758464D01*
X150689000Y-97758464D01*
X150689000Y-98174393D01*
X150608056Y-98082348D01*
X150176982Y-97870499D01*
X149987000Y-97930807D01*
X149987000Y-98933000D01*
X150007000Y-98933000D01*
X150007000Y-99187000D01*
X149987000Y-99187000D01*
X149987000Y-100189193D01*
X150176982Y-100249501D01*
X150608056Y-100037652D01*
X150689000Y-99945607D01*
X150689000Y-100673410D01*
X150340312Y-100440424D01*
X149981239Y-100369000D01*
X149738761Y-100369000D01*
X149379688Y-100440424D01*
X148972499Y-100712499D01*
X148700424Y-101119688D01*
X148604884Y-101600000D01*
X148700424Y-102080312D01*
X148972499Y-102487501D01*
X149379688Y-102759576D01*
X149738761Y-102831000D01*
X149981239Y-102831000D01*
X150340312Y-102759576D01*
X150689000Y-102526590D01*
X150689000Y-103213410D01*
X150340312Y-102980424D01*
X149981239Y-102909000D01*
X149738761Y-102909000D01*
X149379688Y-102980424D01*
X148972499Y-103252499D01*
X148700424Y-103659688D01*
X148604884Y-104140000D01*
X148700424Y-104620312D01*
X148972499Y-105027501D01*
X149379688Y-105299576D01*
X149738761Y-105371000D01*
X149981239Y-105371000D01*
X150340312Y-105299576D01*
X150689000Y-105066590D01*
X150689001Y-105753410D01*
X150340312Y-105520424D01*
X149981239Y-105449000D01*
X149738761Y-105449000D01*
X149379688Y-105520424D01*
X148972499Y-105792499D01*
X148700424Y-106199688D01*
X148604884Y-106680000D01*
X148700424Y-107160312D01*
X148972499Y-107567501D01*
X149379688Y-107839576D01*
X149738761Y-107911000D01*
X149981239Y-107911000D01*
X150340312Y-107839576D01*
X150689001Y-107606590D01*
X150689001Y-108293410D01*
X150340312Y-108060424D01*
X149981239Y-107989000D01*
X149738761Y-107989000D01*
X149379688Y-108060424D01*
X148972499Y-108332499D01*
X148700424Y-108739688D01*
X148604884Y-109220000D01*
X148700424Y-109700312D01*
X148972499Y-110107501D01*
X149379688Y-110379576D01*
X149738761Y-110451000D01*
X149981239Y-110451000D01*
X150340312Y-110379576D01*
X150689001Y-110146590D01*
X150689001Y-110833410D01*
X150340312Y-110600424D01*
X149981239Y-110529000D01*
X149738761Y-110529000D01*
X149379688Y-110600424D01*
X148972499Y-110872499D01*
X148700424Y-111279688D01*
X148695827Y-111302800D01*
X144207378Y-111302800D01*
X143175000Y-110270422D01*
X143175000Y-110201578D01*
X144055449Y-109321130D01*
X144093623Y-109295623D01*
X144194673Y-109144391D01*
X144221200Y-109011030D01*
X144221200Y-109011029D01*
X144230157Y-108966001D01*
X144221200Y-108920971D01*
X144221200Y-101899030D01*
X144230157Y-101854000D01*
X144194673Y-101675609D01*
X144144153Y-101600000D01*
X144093623Y-101524377D01*
X144055449Y-101498870D01*
X143683000Y-101126422D01*
X143683000Y-100956541D01*
X143579324Y-100706244D01*
X143387756Y-100514676D01*
X143137459Y-100411000D01*
X142866541Y-100411000D01*
X142616244Y-100514676D01*
X142424676Y-100706244D01*
X142321000Y-100956541D01*
X142321000Y-101227459D01*
X142424676Y-101477756D01*
X142616244Y-101669324D01*
X142866541Y-101773000D01*
X143036422Y-101773000D01*
X143306801Y-102043380D01*
X143306801Y-104799143D01*
X143137459Y-104729000D01*
X142866541Y-104729000D01*
X142616244Y-104832676D01*
X142424676Y-105024244D01*
X142321000Y-105274541D01*
X142321000Y-105545459D01*
X142424676Y-105795756D01*
X142544800Y-105915880D01*
X142544801Y-106100298D01*
X142424676Y-106220423D01*
X142321000Y-106470720D01*
X142321000Y-106730800D01*
X142237880Y-106730800D01*
X142117756Y-106610676D01*
X141867459Y-106507000D01*
X141596541Y-106507000D01*
X141346244Y-106610676D01*
X141154676Y-106802244D01*
X141051000Y-107052541D01*
X141051000Y-107130421D01*
X139395200Y-105474622D01*
X139395200Y-101789378D01*
X139411578Y-101773000D01*
X139581459Y-101773000D01*
X139831756Y-101669324D01*
X140023324Y-101477756D01*
X140127000Y-101227459D01*
X140127000Y-100956541D01*
X140023324Y-100706244D01*
X139831756Y-100514676D01*
X139581459Y-100411000D01*
X139310541Y-100411000D01*
X139060244Y-100514676D01*
X138868676Y-100706244D01*
X138765000Y-100956541D01*
X138765000Y-101126422D01*
X138646552Y-101244870D01*
X138608378Y-101270377D01*
X138582871Y-101308551D01*
X138582870Y-101308552D01*
X138507327Y-101421610D01*
X138471843Y-101600000D01*
X138480801Y-101645035D01*
X138480800Y-105618970D01*
X138471843Y-105664000D01*
X138480800Y-105709029D01*
X138507327Y-105842390D01*
X138608377Y-105993623D01*
X138646554Y-106019132D01*
X141076870Y-108449449D01*
X141102378Y-108487624D01*
X141140552Y-108513131D01*
X141253610Y-108588674D01*
X141432000Y-108624158D01*
X141477030Y-108615201D01*
X141822006Y-108615201D01*
X141916676Y-108843756D01*
X142108244Y-109035324D01*
X142358541Y-109139000D01*
X142629459Y-109139000D01*
X142879756Y-109035324D01*
X143071324Y-108843756D01*
X143175000Y-108593459D01*
X143175000Y-108328515D01*
X143306800Y-108273922D01*
X143306800Y-108776621D01*
X142528422Y-109555000D01*
X142358541Y-109555000D01*
X142108244Y-109658676D01*
X141916676Y-109850244D01*
X141813000Y-110100541D01*
X141813000Y-110371459D01*
X141916676Y-110621756D01*
X142108244Y-110813324D01*
X142358541Y-110917000D01*
X142528422Y-110917000D01*
X142578171Y-110966749D01*
X142496120Y-111048800D01*
X141983880Y-111048800D01*
X141863756Y-110928676D01*
X141613459Y-110825000D01*
X141342541Y-110825000D01*
X141092244Y-110928676D01*
X140900676Y-111120244D01*
X140797000Y-111370541D01*
X140797000Y-111641459D01*
X140900676Y-111891756D01*
X141092244Y-112083324D01*
X141342541Y-112187000D01*
X141613459Y-112187000D01*
X141863756Y-112083324D01*
X141983880Y-111963200D01*
X142496120Y-111963200D01*
X142616244Y-112083324D01*
X142866541Y-112187000D01*
X143137459Y-112187000D01*
X143387756Y-112083324D01*
X143541251Y-111929829D01*
X143662868Y-112051446D01*
X143688377Y-112089623D01*
X143839609Y-112190673D01*
X143972970Y-112217200D01*
X143972974Y-112217200D01*
X144017999Y-112226156D01*
X144063024Y-112217200D01*
X148695827Y-112217200D01*
X148700424Y-112240312D01*
X148972499Y-112647501D01*
X149379688Y-112919576D01*
X149738761Y-112991000D01*
X149981239Y-112991000D01*
X150340312Y-112919576D01*
X150689001Y-112686590D01*
X150689001Y-113414394D01*
X150608056Y-113322348D01*
X150176982Y-113110499D01*
X149987000Y-113170807D01*
X149987000Y-114173000D01*
X150007000Y-114173000D01*
X150007000Y-114427000D01*
X149987000Y-114427000D01*
X149987000Y-114447000D01*
X149733000Y-114447000D01*
X149733000Y-114427000D01*
X148731373Y-114427000D01*
X148670511Y-114616980D01*
X148794755Y-114916964D01*
X148981219Y-115129000D01*
X138398464Y-115129000D01*
X138398464Y-113983020D01*
X148670511Y-113983020D01*
X148731373Y-114173000D01*
X149733000Y-114173000D01*
X149733000Y-113170807D01*
X149543018Y-113110499D01*
X149111944Y-113322348D01*
X148794755Y-113683036D01*
X148670511Y-113983020D01*
X138398464Y-113983020D01*
X138398464Y-113450000D01*
X138368894Y-113301341D01*
X138284686Y-113175314D01*
X138158659Y-113091106D01*
X138010000Y-113061536D01*
X136331000Y-113061536D01*
X136331000Y-112686590D01*
X136679688Y-112919576D01*
X137038761Y-112991000D01*
X137281239Y-112991000D01*
X137640312Y-112919576D01*
X138047501Y-112647501D01*
X138319576Y-112240312D01*
X138415116Y-111760000D01*
X138319576Y-111279688D01*
X138047501Y-110872499D01*
X137640312Y-110600424D01*
X137281239Y-110529000D01*
X137038761Y-110529000D01*
X136679688Y-110600424D01*
X136331000Y-110833410D01*
X136331000Y-110146590D01*
X136679688Y-110379576D01*
X137038761Y-110451000D01*
X137281239Y-110451000D01*
X137640312Y-110379576D01*
X137810476Y-110265876D01*
X137852676Y-110367756D01*
X138044244Y-110559324D01*
X138294541Y-110663000D01*
X138565459Y-110663000D01*
X138815756Y-110559324D01*
X138938000Y-110437080D01*
X139060244Y-110559324D01*
X139310541Y-110663000D01*
X139581459Y-110663000D01*
X139831756Y-110559324D01*
X140023324Y-110367756D01*
X140127000Y-110117459D01*
X140127000Y-109846541D01*
X140023324Y-109596244D01*
X139903200Y-109476120D01*
X139903200Y-108757029D01*
X139912157Y-108711999D01*
X139876673Y-108533609D01*
X139873000Y-108528112D01*
X139873000Y-108322541D01*
X139769324Y-108072244D01*
X139577756Y-107880676D01*
X139327459Y-107777000D01*
X139056541Y-107777000D01*
X138811000Y-107878706D01*
X138565459Y-107777000D01*
X138294541Y-107777000D01*
X138044244Y-107880676D01*
X137852676Y-108072244D01*
X137810476Y-108174124D01*
X137640312Y-108060424D01*
X137281239Y-107989000D01*
X137038761Y-107989000D01*
X136679688Y-108060424D01*
X136331000Y-108293410D01*
X136331000Y-107606590D01*
X136679688Y-107839576D01*
X137038761Y-107911000D01*
X137281239Y-107911000D01*
X137640312Y-107839576D01*
X138047501Y-107567501D01*
X138319576Y-107160312D01*
X138415116Y-106680000D01*
X138319576Y-106199688D01*
X138047501Y-105792499D01*
X137640312Y-105520424D01*
X137281239Y-105449000D01*
X137038761Y-105449000D01*
X136679688Y-105520424D01*
X136331000Y-105753410D01*
X136331000Y-105066590D01*
X136679688Y-105299576D01*
X137038761Y-105371000D01*
X137281239Y-105371000D01*
X137640312Y-105299576D01*
X138047501Y-105027501D01*
X138319576Y-104620312D01*
X138415116Y-104140000D01*
X138319576Y-103659688D01*
X138047501Y-103252499D01*
X137640312Y-102980424D01*
X137281239Y-102909000D01*
X137038761Y-102909000D01*
X136679688Y-102980424D01*
X136331000Y-103213410D01*
X136331000Y-102526590D01*
X136679688Y-102759576D01*
X137038761Y-102831000D01*
X137281239Y-102831000D01*
X137640312Y-102759576D01*
X138047501Y-102487501D01*
X138319576Y-102080312D01*
X138415116Y-101600000D01*
X138319576Y-101119688D01*
X138047501Y-100712499D01*
X137640312Y-100440424D01*
X137281239Y-100369000D01*
X137038761Y-100369000D01*
X136679688Y-100440424D01*
X136331000Y-100673410D01*
X136331000Y-99986590D01*
X136679688Y-100219576D01*
X137038761Y-100291000D01*
X137281239Y-100291000D01*
X137640312Y-100219576D01*
X138047501Y-99947501D01*
X138319576Y-99540312D01*
X138415116Y-99060000D01*
X138319576Y-98579688D01*
X138047501Y-98172499D01*
X137640312Y-97900424D01*
X137281239Y-97829000D01*
X137038761Y-97829000D01*
X136679688Y-97900424D01*
X136331000Y-98133410D01*
X136331000Y-97446590D01*
X136679688Y-97679576D01*
X137038761Y-97751000D01*
X137281239Y-97751000D01*
X137640312Y-97679576D01*
X138047501Y-97407501D01*
X138319576Y-97000312D01*
X138415116Y-96520000D01*
X138319576Y-96039688D01*
X138086590Y-95691000D01*
X148621536Y-95691000D01*
X148621536Y-95910400D01*
X148621536Y-95910400D01*
G37*
X148621536Y-95910400D02*
X148612836Y-95910400D01*
X148552800Y-95898458D01*
X148492763Y-95910400D01*
X148314946Y-95945770D01*
X148113303Y-96080503D01*
X148079292Y-96131404D01*
X147154978Y-97055719D01*
X147104075Y-97089731D01*
X146969343Y-97291374D01*
X146969342Y-97291375D01*
X146922030Y-97529228D01*
X146933972Y-97589265D01*
X146933973Y-100276163D01*
X146923786Y-100300757D01*
X146881324Y-100198244D01*
X146689756Y-100006676D01*
X146439459Y-99903000D01*
X146168541Y-99903000D01*
X145918244Y-100006676D01*
X145726676Y-100198244D01*
X145623000Y-100448541D01*
X145623000Y-100719459D01*
X145726676Y-100969756D01*
X145918244Y-101161324D01*
X146168541Y-101265000D01*
X146248619Y-101265000D01*
X146291301Y-101307682D01*
X146291300Y-104459620D01*
X146234676Y-104516244D01*
X146131000Y-104766541D01*
X146131000Y-105037459D01*
X146234676Y-105287756D01*
X146426244Y-105479324D01*
X146676541Y-105583000D01*
X146933973Y-105583000D01*
X146933973Y-107336600D01*
X146881024Y-107464431D01*
X146881024Y-107735349D01*
X146964401Y-107936639D01*
X146964401Y-108292017D01*
X146947459Y-108285000D01*
X146676541Y-108285000D01*
X146426244Y-108388676D01*
X146369620Y-108445300D01*
X146311994Y-108445300D01*
X146260710Y-108435099D01*
X146057542Y-108475511D01*
X146001241Y-108513131D01*
X145885306Y-108590596D01*
X145856255Y-108634074D01*
X145107428Y-109382902D01*
X145083975Y-109406355D01*
X145003896Y-109406355D01*
X144753599Y-109510031D01*
X144562031Y-109701599D01*
X144458355Y-109951896D01*
X144458355Y-110222814D01*
X144562031Y-110473111D01*
X144753599Y-110664679D01*
X145003896Y-110768355D01*
X145274814Y-110768355D01*
X145525111Y-110664679D01*
X145716679Y-110473111D01*
X145820355Y-110222814D01*
X145820355Y-110142735D01*
X146423005Y-109540085D01*
X146426244Y-109543324D01*
X146676541Y-109647000D01*
X146947459Y-109647000D01*
X146964400Y-109639983D01*
X146964400Y-109928165D01*
X146893000Y-110100541D01*
X146893000Y-110371459D01*
X146996676Y-110621756D01*
X147188244Y-110813324D01*
X147438541Y-110917000D01*
X147709459Y-110917000D01*
X147959756Y-110813324D01*
X148151324Y-110621756D01*
X148255000Y-110371459D01*
X148255000Y-110100541D01*
X148183600Y-109928165D01*
X148183600Y-107878812D01*
X148243024Y-107735349D01*
X148243024Y-107464431D01*
X148153172Y-107247508D01*
X148153172Y-100891835D01*
X148224572Y-100719459D01*
X148224572Y-100448541D01*
X148153172Y-100276165D01*
X148153172Y-99376980D01*
X148670511Y-99376980D01*
X148794755Y-99676964D01*
X149111944Y-100037652D01*
X149543018Y-100249501D01*
X149733000Y-100189193D01*
X149733000Y-99187000D01*
X148731373Y-99187000D01*
X148670511Y-99376980D01*
X148153172Y-99376980D01*
X148153172Y-98743020D01*
X148670511Y-98743020D01*
X148731373Y-98933000D01*
X149733000Y-98933000D01*
X149733000Y-97930807D01*
X149543018Y-97870499D01*
X149111944Y-98082348D01*
X148794755Y-98443036D01*
X148670511Y-98743020D01*
X148153172Y-98743020D01*
X148153172Y-97781731D01*
X148621536Y-97313368D01*
X148621536Y-97370000D01*
X148651106Y-97518659D01*
X148735314Y-97644686D01*
X148861341Y-97728894D01*
X149010000Y-97758464D01*
X150689000Y-97758464D01*
X150689000Y-98174393D01*
X150608056Y-98082348D01*
X150176982Y-97870499D01*
X149987000Y-97930807D01*
X149987000Y-98933000D01*
X150007000Y-98933000D01*
X150007000Y-99187000D01*
X149987000Y-99187000D01*
X149987000Y-100189193D01*
X150176982Y-100249501D01*
X150608056Y-100037652D01*
X150689000Y-99945607D01*
X150689000Y-100673410D01*
X150340312Y-100440424D01*
X149981239Y-100369000D01*
X149738761Y-100369000D01*
X149379688Y-100440424D01*
X148972499Y-100712499D01*
X148700424Y-101119688D01*
X148604884Y-101600000D01*
X148700424Y-102080312D01*
X148972499Y-102487501D01*
X149379688Y-102759576D01*
X149738761Y-102831000D01*
X149981239Y-102831000D01*
X150340312Y-102759576D01*
X150689000Y-102526590D01*
X150689000Y-103213410D01*
X150340312Y-102980424D01*
X149981239Y-102909000D01*
X149738761Y-102909000D01*
X149379688Y-102980424D01*
X148972499Y-103252499D01*
X148700424Y-103659688D01*
X148604884Y-104140000D01*
X148700424Y-104620312D01*
X148972499Y-105027501D01*
X149379688Y-105299576D01*
X149738761Y-105371000D01*
X149981239Y-105371000D01*
X150340312Y-105299576D01*
X150689000Y-105066590D01*
X150689001Y-105753410D01*
X150340312Y-105520424D01*
X149981239Y-105449000D01*
X149738761Y-105449000D01*
X149379688Y-105520424D01*
X148972499Y-105792499D01*
X148700424Y-106199688D01*
X148604884Y-106680000D01*
X148700424Y-107160312D01*
X148972499Y-107567501D01*
X149379688Y-107839576D01*
X149738761Y-107911000D01*
X149981239Y-107911000D01*
X150340312Y-107839576D01*
X150689001Y-107606590D01*
X150689001Y-108293410D01*
X150340312Y-108060424D01*
X149981239Y-107989000D01*
X149738761Y-107989000D01*
X149379688Y-108060424D01*
X148972499Y-108332499D01*
X148700424Y-108739688D01*
X148604884Y-109220000D01*
X148700424Y-109700312D01*
X148972499Y-110107501D01*
X149379688Y-110379576D01*
X149738761Y-110451000D01*
X149981239Y-110451000D01*
X150340312Y-110379576D01*
X150689001Y-110146590D01*
X150689001Y-110833410D01*
X150340312Y-110600424D01*
X149981239Y-110529000D01*
X149738761Y-110529000D01*
X149379688Y-110600424D01*
X148972499Y-110872499D01*
X148700424Y-111279688D01*
X148695827Y-111302800D01*
X144207378Y-111302800D01*
X143175000Y-110270422D01*
X143175000Y-110201578D01*
X144055449Y-109321130D01*
X144093623Y-109295623D01*
X144194673Y-109144391D01*
X144221200Y-109011030D01*
X144221200Y-109011029D01*
X144230157Y-108966001D01*
X144221200Y-108920971D01*
X144221200Y-101899030D01*
X144230157Y-101854000D01*
X144194673Y-101675609D01*
X144144153Y-101600000D01*
X144093623Y-101524377D01*
X144055449Y-101498870D01*
X143683000Y-101126422D01*
X143683000Y-100956541D01*
X143579324Y-100706244D01*
X143387756Y-100514676D01*
X143137459Y-100411000D01*
X142866541Y-100411000D01*
X142616244Y-100514676D01*
X142424676Y-100706244D01*
X142321000Y-100956541D01*
X142321000Y-101227459D01*
X142424676Y-101477756D01*
X142616244Y-101669324D01*
X142866541Y-101773000D01*
X143036422Y-101773000D01*
X143306801Y-102043380D01*
X143306801Y-104799143D01*
X143137459Y-104729000D01*
X142866541Y-104729000D01*
X142616244Y-104832676D01*
X142424676Y-105024244D01*
X142321000Y-105274541D01*
X142321000Y-105545459D01*
X142424676Y-105795756D01*
X142544800Y-105915880D01*
X142544801Y-106100298D01*
X142424676Y-106220423D01*
X142321000Y-106470720D01*
X142321000Y-106730800D01*
X142237880Y-106730800D01*
X142117756Y-106610676D01*
X141867459Y-106507000D01*
X141596541Y-106507000D01*
X141346244Y-106610676D01*
X141154676Y-106802244D01*
X141051000Y-107052541D01*
X141051000Y-107130421D01*
X139395200Y-105474622D01*
X139395200Y-101789378D01*
X139411578Y-101773000D01*
X139581459Y-101773000D01*
X139831756Y-101669324D01*
X140023324Y-101477756D01*
X140127000Y-101227459D01*
X140127000Y-100956541D01*
X140023324Y-100706244D01*
X139831756Y-100514676D01*
X139581459Y-100411000D01*
X139310541Y-100411000D01*
X139060244Y-100514676D01*
X138868676Y-100706244D01*
X138765000Y-100956541D01*
X138765000Y-101126422D01*
X138646552Y-101244870D01*
X138608378Y-101270377D01*
X138582871Y-101308551D01*
X138582870Y-101308552D01*
X138507327Y-101421610D01*
X138471843Y-101600000D01*
X138480801Y-101645035D01*
X138480800Y-105618970D01*
X138471843Y-105664000D01*
X138480800Y-105709029D01*
X138507327Y-105842390D01*
X138608377Y-105993623D01*
X138646554Y-106019132D01*
X141076870Y-108449449D01*
X141102378Y-108487624D01*
X141140552Y-108513131D01*
X141253610Y-108588674D01*
X141432000Y-108624158D01*
X141477030Y-108615201D01*
X141822006Y-108615201D01*
X141916676Y-108843756D01*
X142108244Y-109035324D01*
X142358541Y-109139000D01*
X142629459Y-109139000D01*
X142879756Y-109035324D01*
X143071324Y-108843756D01*
X143175000Y-108593459D01*
X143175000Y-108328515D01*
X143306800Y-108273922D01*
X143306800Y-108776621D01*
X142528422Y-109555000D01*
X142358541Y-109555000D01*
X142108244Y-109658676D01*
X141916676Y-109850244D01*
X141813000Y-110100541D01*
X141813000Y-110371459D01*
X141916676Y-110621756D01*
X142108244Y-110813324D01*
X142358541Y-110917000D01*
X142528422Y-110917000D01*
X142578171Y-110966749D01*
X142496120Y-111048800D01*
X141983880Y-111048800D01*
X141863756Y-110928676D01*
X141613459Y-110825000D01*
X141342541Y-110825000D01*
X141092244Y-110928676D01*
X140900676Y-111120244D01*
X140797000Y-111370541D01*
X140797000Y-111641459D01*
X140900676Y-111891756D01*
X141092244Y-112083324D01*
X141342541Y-112187000D01*
X141613459Y-112187000D01*
X141863756Y-112083324D01*
X141983880Y-111963200D01*
X142496120Y-111963200D01*
X142616244Y-112083324D01*
X142866541Y-112187000D01*
X143137459Y-112187000D01*
X143387756Y-112083324D01*
X143541251Y-111929829D01*
X143662868Y-112051446D01*
X143688377Y-112089623D01*
X143839609Y-112190673D01*
X143972970Y-112217200D01*
X143972974Y-112217200D01*
X144017999Y-112226156D01*
X144063024Y-112217200D01*
X148695827Y-112217200D01*
X148700424Y-112240312D01*
X148972499Y-112647501D01*
X149379688Y-112919576D01*
X149738761Y-112991000D01*
X149981239Y-112991000D01*
X150340312Y-112919576D01*
X150689001Y-112686590D01*
X150689001Y-113414394D01*
X150608056Y-113322348D01*
X150176982Y-113110499D01*
X149987000Y-113170807D01*
X149987000Y-114173000D01*
X150007000Y-114173000D01*
X150007000Y-114427000D01*
X149987000Y-114427000D01*
X149987000Y-114447000D01*
X149733000Y-114447000D01*
X149733000Y-114427000D01*
X148731373Y-114427000D01*
X148670511Y-114616980D01*
X148794755Y-114916964D01*
X148981219Y-115129000D01*
X138398464Y-115129000D01*
X138398464Y-113983020D01*
X148670511Y-113983020D01*
X148731373Y-114173000D01*
X149733000Y-114173000D01*
X149733000Y-113170807D01*
X149543018Y-113110499D01*
X149111944Y-113322348D01*
X148794755Y-113683036D01*
X148670511Y-113983020D01*
X138398464Y-113983020D01*
X138398464Y-113450000D01*
X138368894Y-113301341D01*
X138284686Y-113175314D01*
X138158659Y-113091106D01*
X138010000Y-113061536D01*
X136331000Y-113061536D01*
X136331000Y-112686590D01*
X136679688Y-112919576D01*
X137038761Y-112991000D01*
X137281239Y-112991000D01*
X137640312Y-112919576D01*
X138047501Y-112647501D01*
X138319576Y-112240312D01*
X138415116Y-111760000D01*
X138319576Y-111279688D01*
X138047501Y-110872499D01*
X137640312Y-110600424D01*
X137281239Y-110529000D01*
X137038761Y-110529000D01*
X136679688Y-110600424D01*
X136331000Y-110833410D01*
X136331000Y-110146590D01*
X136679688Y-110379576D01*
X137038761Y-110451000D01*
X137281239Y-110451000D01*
X137640312Y-110379576D01*
X137810476Y-110265876D01*
X137852676Y-110367756D01*
X138044244Y-110559324D01*
X138294541Y-110663000D01*
X138565459Y-110663000D01*
X138815756Y-110559324D01*
X138938000Y-110437080D01*
X139060244Y-110559324D01*
X139310541Y-110663000D01*
X139581459Y-110663000D01*
X139831756Y-110559324D01*
X140023324Y-110367756D01*
X140127000Y-110117459D01*
X140127000Y-109846541D01*
X140023324Y-109596244D01*
X139903200Y-109476120D01*
X139903200Y-108757029D01*
X139912157Y-108711999D01*
X139876673Y-108533609D01*
X139873000Y-108528112D01*
X139873000Y-108322541D01*
X139769324Y-108072244D01*
X139577756Y-107880676D01*
X139327459Y-107777000D01*
X139056541Y-107777000D01*
X138811000Y-107878706D01*
X138565459Y-107777000D01*
X138294541Y-107777000D01*
X138044244Y-107880676D01*
X137852676Y-108072244D01*
X137810476Y-108174124D01*
X137640312Y-108060424D01*
X137281239Y-107989000D01*
X137038761Y-107989000D01*
X136679688Y-108060424D01*
X136331000Y-108293410D01*
X136331000Y-107606590D01*
X136679688Y-107839576D01*
X137038761Y-107911000D01*
X137281239Y-107911000D01*
X137640312Y-107839576D01*
X138047501Y-107567501D01*
X138319576Y-107160312D01*
X138415116Y-106680000D01*
X138319576Y-106199688D01*
X138047501Y-105792499D01*
X137640312Y-105520424D01*
X137281239Y-105449000D01*
X137038761Y-105449000D01*
X136679688Y-105520424D01*
X136331000Y-105753410D01*
X136331000Y-105066590D01*
X136679688Y-105299576D01*
X137038761Y-105371000D01*
X137281239Y-105371000D01*
X137640312Y-105299576D01*
X138047501Y-105027501D01*
X138319576Y-104620312D01*
X138415116Y-104140000D01*
X138319576Y-103659688D01*
X138047501Y-103252499D01*
X137640312Y-102980424D01*
X137281239Y-102909000D01*
X137038761Y-102909000D01*
X136679688Y-102980424D01*
X136331000Y-103213410D01*
X136331000Y-102526590D01*
X136679688Y-102759576D01*
X137038761Y-102831000D01*
X137281239Y-102831000D01*
X137640312Y-102759576D01*
X138047501Y-102487501D01*
X138319576Y-102080312D01*
X138415116Y-101600000D01*
X138319576Y-101119688D01*
X138047501Y-100712499D01*
X137640312Y-100440424D01*
X137281239Y-100369000D01*
X137038761Y-100369000D01*
X136679688Y-100440424D01*
X136331000Y-100673410D01*
X136331000Y-99986590D01*
X136679688Y-100219576D01*
X137038761Y-100291000D01*
X137281239Y-100291000D01*
X137640312Y-100219576D01*
X138047501Y-99947501D01*
X138319576Y-99540312D01*
X138415116Y-99060000D01*
X138319576Y-98579688D01*
X138047501Y-98172499D01*
X137640312Y-97900424D01*
X137281239Y-97829000D01*
X137038761Y-97829000D01*
X136679688Y-97900424D01*
X136331000Y-98133410D01*
X136331000Y-97446590D01*
X136679688Y-97679576D01*
X137038761Y-97751000D01*
X137281239Y-97751000D01*
X137640312Y-97679576D01*
X138047501Y-97407501D01*
X138319576Y-97000312D01*
X138415116Y-96520000D01*
X138319576Y-96039688D01*
X138086590Y-95691000D01*
X148621536Y-95691000D01*
X148621536Y-95910400D01*
M02*
