%TF.GenerationSoftware,KiCad,Pcbnew,6.0.0-rc1-unknown-2c0fe8f~66~ubuntu18.04.1*%
%TF.CreationDate,2018-10-10T11:30:18+02:00*%
%TF.ProjectId,stspin220,73747370696E3232302E6B696361645F,rev?*%
%TF.SameCoordinates,Original*%
%TF.FileFunction,Legend,Bot*%
%TF.FilePolarity,Positive*%
%FSLAX46Y46*%
G04 Gerber Fmt 4.6, Leading zero omitted, Abs format (unit mm)*
G04 Created by KiCad (PCBNEW 6.0.0-rc1-unknown-2c0fe8f~66~ubuntu18.04.1) date Wed Oct 10 11:30:18 2018*
%MOMM*%
%LPD*%
G01*
G04 APERTURE LIST*
%ADD10C,0.120000*%
%ADD11O,1.802000X1.802000*%
%ADD12R,1.802000X1.802000*%
G04 APERTURE END LIST*
D10*
X151190000Y-95190000D02*
X149860000Y-95190000D01*
X151190000Y-96520000D02*
X151190000Y-95190000D01*
X151190000Y-97790000D02*
X148530000Y-97790000D01*
X148530000Y-97790000D02*
X148530000Y-115630000D01*
X151190000Y-97790000D02*
X151190000Y-115630000D01*
X151190000Y-115630000D02*
X148530000Y-115630000D01*
X135830000Y-115630000D02*
X137160000Y-115630000D01*
X135830000Y-114300000D02*
X135830000Y-115630000D01*
X135830000Y-113030000D02*
X138490000Y-113030000D01*
X138490000Y-113030000D02*
X138490000Y-95190000D01*
X135830000Y-113030000D02*
X135830000Y-95190000D01*
X135830000Y-95190000D02*
X138490000Y-95190000D01*
%LPC*%
D11*
X149860000Y-114300000D03*
X149860000Y-111760000D03*
X149860000Y-109220000D03*
X149860000Y-106680000D03*
X149860000Y-104140000D03*
X149860000Y-101600000D03*
X149860000Y-99060000D03*
D12*
X149860000Y-96520000D03*
D11*
X137160000Y-96520000D03*
X137160000Y-99060000D03*
X137160000Y-101600000D03*
X137160000Y-104140000D03*
X137160000Y-106680000D03*
X137160000Y-109220000D03*
X137160000Y-111760000D03*
D12*
X137160000Y-114300000D03*
M02*
