M48
;DRILL file {KiCad 6.0.0-rc1-unknown-2c0fe8f~66~ubuntu18.04.1} date Wed Oct 10 11:35:14 2018
;FORMAT={2:4/ absolute / inch / suppress leading zeros}
FMAT,2
INCH,TZ
T1C0.0118
T2C0.0394
%
G90
G05
M72
T1
X54500Y-38700
X54500Y-39500
X54500Y-42700
X54500Y-43300
X54600Y-43600
X54700Y-44500
X54800Y-42200
X54800Y-42700
X54900Y-39800
X54900Y-43300
X55000Y-37900
X55000Y-41200
X55300Y-44500
X55500Y-38600
X55700Y-43900
X55800Y-42200
X55900Y-45000
X56000Y-41100
X56100Y-42700
X56100Y-43100
X56100Y-43400
X56100Y-44500
X56200Y-38500
X56300Y-42387
X56300Y-39800
X56300Y-41500
X56300Y-41971
X56300Y-43900
X56300Y-45000
X56400Y-44300
X57000Y-39200
X57000Y-42100
X57000Y-42500
X57141Y-43341
X57200Y-38500
X57400Y-42100
X57400Y-42500
X57500Y-40200
X57600Y-39600
X57800Y-41300
X57800Y-42900
X57900Y-45000
X58088Y-39600
X58095Y-42362
X58100Y-43400
X58300Y-45000
X58400Y-41100
X58400Y-41900
X58500Y-39400
X58600Y-43500
T2
X59000Y-38000
X59000Y-39000
X59000Y-40000
X59000Y-41000
X59000Y-42000
X59000Y-43000
X59000Y-44000
X59000Y-45000
X54000Y-38000
X54000Y-39000
X54000Y-40000
X54000Y-41000
X54000Y-42000
X54000Y-43000
X54000Y-44000
X54000Y-45000
T0
M30
