%TF.GenerationSoftware,KiCad,Pcbnew,6.0.0-rc1-unknown-2c0fe8f~66~ubuntu18.04.1*%
%TF.CreationDate,2018-10-10T11:30:18+02:00*%
%TF.ProjectId,stspin220,73747370696E3232302E6B696361645F,rev?*%
%TF.SameCoordinates,Original*%
%TF.FileFunction,Soldermask,Bot*%
%TF.FilePolarity,Negative*%
%FSLAX46Y46*%
G04 Gerber Fmt 4.6, Leading zero omitted, Abs format (unit mm)*
G04 Created by KiCad (PCBNEW 6.0.0-rc1-unknown-2c0fe8f~66~ubuntu18.04.1) date Wed Oct 10 11:30:18 2018*
%MOMM*%
%LPD*%
G01*
G04 APERTURE LIST*
%ADD10C,0.100000*%
G04 APERTURE END LIST*
D10*
G36*
X149970443Y-113405519D02*
X150036627Y-113412037D01*
X150149853Y-113446384D01*
X150206467Y-113463557D01*
X150345087Y-113537652D01*
X150362991Y-113547222D01*
X150398729Y-113576552D01*
X150500186Y-113659814D01*
X150583448Y-113761271D01*
X150612778Y-113797009D01*
X150612779Y-113797011D01*
X150696443Y-113953533D01*
X150696443Y-113953534D01*
X150747963Y-114123373D01*
X150765359Y-114300000D01*
X150747963Y-114476627D01*
X150713616Y-114589853D01*
X150696443Y-114646467D01*
X150622348Y-114785087D01*
X150612778Y-114802991D01*
X150583448Y-114838729D01*
X150500186Y-114940186D01*
X150398729Y-115023448D01*
X150362991Y-115052778D01*
X150362989Y-115052779D01*
X150206467Y-115136443D01*
X150149853Y-115153616D01*
X150036627Y-115187963D01*
X149970442Y-115194482D01*
X149904260Y-115201000D01*
X149815740Y-115201000D01*
X149749558Y-115194482D01*
X149683373Y-115187963D01*
X149570147Y-115153616D01*
X149513533Y-115136443D01*
X149357011Y-115052779D01*
X149357009Y-115052778D01*
X149321271Y-115023448D01*
X149219814Y-114940186D01*
X149136552Y-114838729D01*
X149107222Y-114802991D01*
X149097652Y-114785087D01*
X149023557Y-114646467D01*
X149006384Y-114589853D01*
X148972037Y-114476627D01*
X148954641Y-114300000D01*
X148972037Y-114123373D01*
X149023557Y-113953534D01*
X149023557Y-113953533D01*
X149107221Y-113797011D01*
X149107222Y-113797009D01*
X149136552Y-113761271D01*
X149219814Y-113659814D01*
X149321271Y-113576552D01*
X149357009Y-113547222D01*
X149374913Y-113537652D01*
X149513533Y-113463557D01*
X149570147Y-113446384D01*
X149683373Y-113412037D01*
X149749557Y-113405519D01*
X149815740Y-113399000D01*
X149904260Y-113399000D01*
X149970443Y-113405519D01*
X149970443Y-113405519D01*
G37*
G36*
X138061000Y-115201000D02*
X136259000Y-115201000D01*
X136259000Y-113399000D01*
X138061000Y-113399000D01*
X138061000Y-115201000D01*
X138061000Y-115201000D01*
G37*
G36*
X149970442Y-110865518D02*
X150036627Y-110872037D01*
X150149853Y-110906384D01*
X150206467Y-110923557D01*
X150345087Y-110997652D01*
X150362991Y-111007222D01*
X150398729Y-111036552D01*
X150500186Y-111119814D01*
X150583448Y-111221271D01*
X150612778Y-111257009D01*
X150612779Y-111257011D01*
X150696443Y-111413533D01*
X150696443Y-111413534D01*
X150747963Y-111583373D01*
X150765359Y-111760000D01*
X150747963Y-111936627D01*
X150713616Y-112049853D01*
X150696443Y-112106467D01*
X150622348Y-112245087D01*
X150612778Y-112262991D01*
X150583448Y-112298729D01*
X150500186Y-112400186D01*
X150398729Y-112483448D01*
X150362991Y-112512778D01*
X150362989Y-112512779D01*
X150206467Y-112596443D01*
X150149853Y-112613616D01*
X150036627Y-112647963D01*
X149970442Y-112654482D01*
X149904260Y-112661000D01*
X149815740Y-112661000D01*
X149749558Y-112654482D01*
X149683373Y-112647963D01*
X149570147Y-112613616D01*
X149513533Y-112596443D01*
X149357011Y-112512779D01*
X149357009Y-112512778D01*
X149321271Y-112483448D01*
X149219814Y-112400186D01*
X149136552Y-112298729D01*
X149107222Y-112262991D01*
X149097652Y-112245087D01*
X149023557Y-112106467D01*
X149006384Y-112049853D01*
X148972037Y-111936627D01*
X148954641Y-111760000D01*
X148972037Y-111583373D01*
X149023557Y-111413534D01*
X149023557Y-111413533D01*
X149107221Y-111257011D01*
X149107222Y-111257009D01*
X149136552Y-111221271D01*
X149219814Y-111119814D01*
X149321271Y-111036552D01*
X149357009Y-111007222D01*
X149374913Y-110997652D01*
X149513533Y-110923557D01*
X149570147Y-110906384D01*
X149683373Y-110872037D01*
X149749558Y-110865518D01*
X149815740Y-110859000D01*
X149904260Y-110859000D01*
X149970442Y-110865518D01*
X149970442Y-110865518D01*
G37*
G36*
X137270442Y-110865518D02*
X137336627Y-110872037D01*
X137449853Y-110906384D01*
X137506467Y-110923557D01*
X137645087Y-110997652D01*
X137662991Y-111007222D01*
X137698729Y-111036552D01*
X137800186Y-111119814D01*
X137883448Y-111221271D01*
X137912778Y-111257009D01*
X137912779Y-111257011D01*
X137996443Y-111413533D01*
X137996443Y-111413534D01*
X138047963Y-111583373D01*
X138065359Y-111760000D01*
X138047963Y-111936627D01*
X138013616Y-112049853D01*
X137996443Y-112106467D01*
X137922348Y-112245087D01*
X137912778Y-112262991D01*
X137883448Y-112298729D01*
X137800186Y-112400186D01*
X137698729Y-112483448D01*
X137662991Y-112512778D01*
X137662989Y-112512779D01*
X137506467Y-112596443D01*
X137449853Y-112613616D01*
X137336627Y-112647963D01*
X137270442Y-112654482D01*
X137204260Y-112661000D01*
X137115740Y-112661000D01*
X137049558Y-112654482D01*
X136983373Y-112647963D01*
X136870147Y-112613616D01*
X136813533Y-112596443D01*
X136657011Y-112512779D01*
X136657009Y-112512778D01*
X136621271Y-112483448D01*
X136519814Y-112400186D01*
X136436552Y-112298729D01*
X136407222Y-112262991D01*
X136397652Y-112245087D01*
X136323557Y-112106467D01*
X136306384Y-112049853D01*
X136272037Y-111936627D01*
X136254641Y-111760000D01*
X136272037Y-111583373D01*
X136323557Y-111413534D01*
X136323557Y-111413533D01*
X136407221Y-111257011D01*
X136407222Y-111257009D01*
X136436552Y-111221271D01*
X136519814Y-111119814D01*
X136621271Y-111036552D01*
X136657009Y-111007222D01*
X136674913Y-110997652D01*
X136813533Y-110923557D01*
X136870147Y-110906384D01*
X136983373Y-110872037D01*
X137049558Y-110865518D01*
X137115740Y-110859000D01*
X137204260Y-110859000D01*
X137270442Y-110865518D01*
X137270442Y-110865518D01*
G37*
G36*
X149970443Y-108325519D02*
X150036627Y-108332037D01*
X150149853Y-108366384D01*
X150206467Y-108383557D01*
X150345087Y-108457652D01*
X150362991Y-108467222D01*
X150398729Y-108496552D01*
X150500186Y-108579814D01*
X150583448Y-108681271D01*
X150612778Y-108717009D01*
X150612779Y-108717011D01*
X150696443Y-108873533D01*
X150696443Y-108873534D01*
X150747963Y-109043373D01*
X150765359Y-109220000D01*
X150747963Y-109396627D01*
X150713616Y-109509853D01*
X150696443Y-109566467D01*
X150622348Y-109705087D01*
X150612778Y-109722991D01*
X150583448Y-109758729D01*
X150500186Y-109860186D01*
X150398729Y-109943448D01*
X150362991Y-109972778D01*
X150362989Y-109972779D01*
X150206467Y-110056443D01*
X150149853Y-110073616D01*
X150036627Y-110107963D01*
X149970443Y-110114481D01*
X149904260Y-110121000D01*
X149815740Y-110121000D01*
X149749557Y-110114481D01*
X149683373Y-110107963D01*
X149570147Y-110073616D01*
X149513533Y-110056443D01*
X149357011Y-109972779D01*
X149357009Y-109972778D01*
X149321271Y-109943448D01*
X149219814Y-109860186D01*
X149136552Y-109758729D01*
X149107222Y-109722991D01*
X149097652Y-109705087D01*
X149023557Y-109566467D01*
X149006384Y-109509853D01*
X148972037Y-109396627D01*
X148954641Y-109220000D01*
X148972037Y-109043373D01*
X149023557Y-108873534D01*
X149023557Y-108873533D01*
X149107221Y-108717011D01*
X149107222Y-108717009D01*
X149136552Y-108681271D01*
X149219814Y-108579814D01*
X149321271Y-108496552D01*
X149357009Y-108467222D01*
X149374913Y-108457652D01*
X149513533Y-108383557D01*
X149570147Y-108366384D01*
X149683373Y-108332037D01*
X149749557Y-108325519D01*
X149815740Y-108319000D01*
X149904260Y-108319000D01*
X149970443Y-108325519D01*
X149970443Y-108325519D01*
G37*
G36*
X137270443Y-108325519D02*
X137336627Y-108332037D01*
X137449853Y-108366384D01*
X137506467Y-108383557D01*
X137645087Y-108457652D01*
X137662991Y-108467222D01*
X137698729Y-108496552D01*
X137800186Y-108579814D01*
X137883448Y-108681271D01*
X137912778Y-108717009D01*
X137912779Y-108717011D01*
X137996443Y-108873533D01*
X137996443Y-108873534D01*
X138047963Y-109043373D01*
X138065359Y-109220000D01*
X138047963Y-109396627D01*
X138013616Y-109509853D01*
X137996443Y-109566467D01*
X137922348Y-109705087D01*
X137912778Y-109722991D01*
X137883448Y-109758729D01*
X137800186Y-109860186D01*
X137698729Y-109943448D01*
X137662991Y-109972778D01*
X137662989Y-109972779D01*
X137506467Y-110056443D01*
X137449853Y-110073616D01*
X137336627Y-110107963D01*
X137270443Y-110114481D01*
X137204260Y-110121000D01*
X137115740Y-110121000D01*
X137049557Y-110114481D01*
X136983373Y-110107963D01*
X136870147Y-110073616D01*
X136813533Y-110056443D01*
X136657011Y-109972779D01*
X136657009Y-109972778D01*
X136621271Y-109943448D01*
X136519814Y-109860186D01*
X136436552Y-109758729D01*
X136407222Y-109722991D01*
X136397652Y-109705087D01*
X136323557Y-109566467D01*
X136306384Y-109509853D01*
X136272037Y-109396627D01*
X136254641Y-109220000D01*
X136272037Y-109043373D01*
X136323557Y-108873534D01*
X136323557Y-108873533D01*
X136407221Y-108717011D01*
X136407222Y-108717009D01*
X136436552Y-108681271D01*
X136519814Y-108579814D01*
X136621271Y-108496552D01*
X136657009Y-108467222D01*
X136674913Y-108457652D01*
X136813533Y-108383557D01*
X136870147Y-108366384D01*
X136983373Y-108332037D01*
X137049557Y-108325519D01*
X137115740Y-108319000D01*
X137204260Y-108319000D01*
X137270443Y-108325519D01*
X137270443Y-108325519D01*
G37*
G36*
X137270443Y-105785519D02*
X137336627Y-105792037D01*
X137449853Y-105826384D01*
X137506467Y-105843557D01*
X137645087Y-105917652D01*
X137662991Y-105927222D01*
X137698729Y-105956552D01*
X137800186Y-106039814D01*
X137883448Y-106141271D01*
X137912778Y-106177009D01*
X137912779Y-106177011D01*
X137996443Y-106333533D01*
X137996443Y-106333534D01*
X138047963Y-106503373D01*
X138065359Y-106680000D01*
X138047963Y-106856627D01*
X138013616Y-106969853D01*
X137996443Y-107026467D01*
X137922348Y-107165087D01*
X137912778Y-107182991D01*
X137883448Y-107218729D01*
X137800186Y-107320186D01*
X137698729Y-107403448D01*
X137662991Y-107432778D01*
X137662989Y-107432779D01*
X137506467Y-107516443D01*
X137449853Y-107533616D01*
X137336627Y-107567963D01*
X137270443Y-107574481D01*
X137204260Y-107581000D01*
X137115740Y-107581000D01*
X137049557Y-107574481D01*
X136983373Y-107567963D01*
X136870147Y-107533616D01*
X136813533Y-107516443D01*
X136657011Y-107432779D01*
X136657009Y-107432778D01*
X136621271Y-107403448D01*
X136519814Y-107320186D01*
X136436552Y-107218729D01*
X136407222Y-107182991D01*
X136397652Y-107165087D01*
X136323557Y-107026467D01*
X136306384Y-106969853D01*
X136272037Y-106856627D01*
X136254641Y-106680000D01*
X136272037Y-106503373D01*
X136323557Y-106333534D01*
X136323557Y-106333533D01*
X136407221Y-106177011D01*
X136407222Y-106177009D01*
X136436552Y-106141271D01*
X136519814Y-106039814D01*
X136621271Y-105956552D01*
X136657009Y-105927222D01*
X136674913Y-105917652D01*
X136813533Y-105843557D01*
X136870147Y-105826384D01*
X136983373Y-105792037D01*
X137049557Y-105785519D01*
X137115740Y-105779000D01*
X137204260Y-105779000D01*
X137270443Y-105785519D01*
X137270443Y-105785519D01*
G37*
G36*
X149970443Y-105785519D02*
X150036627Y-105792037D01*
X150149853Y-105826384D01*
X150206467Y-105843557D01*
X150345087Y-105917652D01*
X150362991Y-105927222D01*
X150398729Y-105956552D01*
X150500186Y-106039814D01*
X150583448Y-106141271D01*
X150612778Y-106177009D01*
X150612779Y-106177011D01*
X150696443Y-106333533D01*
X150696443Y-106333534D01*
X150747963Y-106503373D01*
X150765359Y-106680000D01*
X150747963Y-106856627D01*
X150713616Y-106969853D01*
X150696443Y-107026467D01*
X150622348Y-107165087D01*
X150612778Y-107182991D01*
X150583448Y-107218729D01*
X150500186Y-107320186D01*
X150398729Y-107403448D01*
X150362991Y-107432778D01*
X150362989Y-107432779D01*
X150206467Y-107516443D01*
X150149853Y-107533616D01*
X150036627Y-107567963D01*
X149970443Y-107574481D01*
X149904260Y-107581000D01*
X149815740Y-107581000D01*
X149749557Y-107574481D01*
X149683373Y-107567963D01*
X149570147Y-107533616D01*
X149513533Y-107516443D01*
X149357011Y-107432779D01*
X149357009Y-107432778D01*
X149321271Y-107403448D01*
X149219814Y-107320186D01*
X149136552Y-107218729D01*
X149107222Y-107182991D01*
X149097652Y-107165087D01*
X149023557Y-107026467D01*
X149006384Y-106969853D01*
X148972037Y-106856627D01*
X148954641Y-106680000D01*
X148972037Y-106503373D01*
X149023557Y-106333534D01*
X149023557Y-106333533D01*
X149107221Y-106177011D01*
X149107222Y-106177009D01*
X149136552Y-106141271D01*
X149219814Y-106039814D01*
X149321271Y-105956552D01*
X149357009Y-105927222D01*
X149374913Y-105917652D01*
X149513533Y-105843557D01*
X149570147Y-105826384D01*
X149683373Y-105792037D01*
X149749557Y-105785519D01*
X149815740Y-105779000D01*
X149904260Y-105779000D01*
X149970443Y-105785519D01*
X149970443Y-105785519D01*
G37*
G36*
X149970443Y-103245519D02*
X150036627Y-103252037D01*
X150149853Y-103286384D01*
X150206467Y-103303557D01*
X150345087Y-103377652D01*
X150362991Y-103387222D01*
X150398729Y-103416552D01*
X150500186Y-103499814D01*
X150583448Y-103601271D01*
X150612778Y-103637009D01*
X150612779Y-103637011D01*
X150696443Y-103793533D01*
X150696443Y-103793534D01*
X150747963Y-103963373D01*
X150765359Y-104140000D01*
X150747963Y-104316627D01*
X150713616Y-104429853D01*
X150696443Y-104486467D01*
X150622348Y-104625087D01*
X150612778Y-104642991D01*
X150583448Y-104678729D01*
X150500186Y-104780186D01*
X150398729Y-104863448D01*
X150362991Y-104892778D01*
X150362989Y-104892779D01*
X150206467Y-104976443D01*
X150149853Y-104993616D01*
X150036627Y-105027963D01*
X149970442Y-105034482D01*
X149904260Y-105041000D01*
X149815740Y-105041000D01*
X149749557Y-105034481D01*
X149683373Y-105027963D01*
X149570147Y-104993616D01*
X149513533Y-104976443D01*
X149357011Y-104892779D01*
X149357009Y-104892778D01*
X149321271Y-104863448D01*
X149219814Y-104780186D01*
X149136552Y-104678729D01*
X149107222Y-104642991D01*
X149097652Y-104625087D01*
X149023557Y-104486467D01*
X149006384Y-104429853D01*
X148972037Y-104316627D01*
X148954641Y-104140000D01*
X148972037Y-103963373D01*
X149023557Y-103793534D01*
X149023557Y-103793533D01*
X149107221Y-103637011D01*
X149107222Y-103637009D01*
X149136552Y-103601271D01*
X149219814Y-103499814D01*
X149321271Y-103416552D01*
X149357009Y-103387222D01*
X149374913Y-103377652D01*
X149513533Y-103303557D01*
X149570147Y-103286384D01*
X149683373Y-103252037D01*
X149749558Y-103245518D01*
X149815740Y-103239000D01*
X149904260Y-103239000D01*
X149970443Y-103245519D01*
X149970443Y-103245519D01*
G37*
G36*
X137270443Y-103245519D02*
X137336627Y-103252037D01*
X137449853Y-103286384D01*
X137506467Y-103303557D01*
X137645087Y-103377652D01*
X137662991Y-103387222D01*
X137698729Y-103416552D01*
X137800186Y-103499814D01*
X137883448Y-103601271D01*
X137912778Y-103637009D01*
X137912779Y-103637011D01*
X137996443Y-103793533D01*
X137996443Y-103793534D01*
X138047963Y-103963373D01*
X138065359Y-104140000D01*
X138047963Y-104316627D01*
X138013616Y-104429853D01*
X137996443Y-104486467D01*
X137922348Y-104625087D01*
X137912778Y-104642991D01*
X137883448Y-104678729D01*
X137800186Y-104780186D01*
X137698729Y-104863448D01*
X137662991Y-104892778D01*
X137662989Y-104892779D01*
X137506467Y-104976443D01*
X137449853Y-104993616D01*
X137336627Y-105027963D01*
X137270442Y-105034482D01*
X137204260Y-105041000D01*
X137115740Y-105041000D01*
X137049557Y-105034481D01*
X136983373Y-105027963D01*
X136870147Y-104993616D01*
X136813533Y-104976443D01*
X136657011Y-104892779D01*
X136657009Y-104892778D01*
X136621271Y-104863448D01*
X136519814Y-104780186D01*
X136436552Y-104678729D01*
X136407222Y-104642991D01*
X136397652Y-104625087D01*
X136323557Y-104486467D01*
X136306384Y-104429853D01*
X136272037Y-104316627D01*
X136254641Y-104140000D01*
X136272037Y-103963373D01*
X136323557Y-103793534D01*
X136323557Y-103793533D01*
X136407221Y-103637011D01*
X136407222Y-103637009D01*
X136436552Y-103601271D01*
X136519814Y-103499814D01*
X136621271Y-103416552D01*
X136657009Y-103387222D01*
X136674913Y-103377652D01*
X136813533Y-103303557D01*
X136870147Y-103286384D01*
X136983373Y-103252037D01*
X137049558Y-103245518D01*
X137115740Y-103239000D01*
X137204260Y-103239000D01*
X137270443Y-103245519D01*
X137270443Y-103245519D01*
G37*
G36*
X149970443Y-100705519D02*
X150036627Y-100712037D01*
X150149853Y-100746384D01*
X150206467Y-100763557D01*
X150345087Y-100837652D01*
X150362991Y-100847222D01*
X150398729Y-100876552D01*
X150500186Y-100959814D01*
X150583448Y-101061271D01*
X150612778Y-101097009D01*
X150612779Y-101097011D01*
X150696443Y-101253533D01*
X150696443Y-101253534D01*
X150747963Y-101423373D01*
X150765359Y-101600000D01*
X150747963Y-101776627D01*
X150713616Y-101889853D01*
X150696443Y-101946467D01*
X150622348Y-102085087D01*
X150612778Y-102102991D01*
X150583448Y-102138729D01*
X150500186Y-102240186D01*
X150398729Y-102323448D01*
X150362991Y-102352778D01*
X150362989Y-102352779D01*
X150206467Y-102436443D01*
X150149853Y-102453616D01*
X150036627Y-102487963D01*
X149970442Y-102494482D01*
X149904260Y-102501000D01*
X149815740Y-102501000D01*
X149749558Y-102494482D01*
X149683373Y-102487963D01*
X149570147Y-102453616D01*
X149513533Y-102436443D01*
X149357011Y-102352779D01*
X149357009Y-102352778D01*
X149321271Y-102323448D01*
X149219814Y-102240186D01*
X149136552Y-102138729D01*
X149107222Y-102102991D01*
X149097652Y-102085087D01*
X149023557Y-101946467D01*
X149006384Y-101889853D01*
X148972037Y-101776627D01*
X148954641Y-101600000D01*
X148972037Y-101423373D01*
X149023557Y-101253534D01*
X149023557Y-101253533D01*
X149107221Y-101097011D01*
X149107222Y-101097009D01*
X149136552Y-101061271D01*
X149219814Y-100959814D01*
X149321271Y-100876552D01*
X149357009Y-100847222D01*
X149374913Y-100837652D01*
X149513533Y-100763557D01*
X149570147Y-100746384D01*
X149683373Y-100712037D01*
X149749557Y-100705519D01*
X149815740Y-100699000D01*
X149904260Y-100699000D01*
X149970443Y-100705519D01*
X149970443Y-100705519D01*
G37*
G36*
X137270443Y-100705519D02*
X137336627Y-100712037D01*
X137449853Y-100746384D01*
X137506467Y-100763557D01*
X137645087Y-100837652D01*
X137662991Y-100847222D01*
X137698729Y-100876552D01*
X137800186Y-100959814D01*
X137883448Y-101061271D01*
X137912778Y-101097009D01*
X137912779Y-101097011D01*
X137996443Y-101253533D01*
X137996443Y-101253534D01*
X138047963Y-101423373D01*
X138065359Y-101600000D01*
X138047963Y-101776627D01*
X138013616Y-101889853D01*
X137996443Y-101946467D01*
X137922348Y-102085087D01*
X137912778Y-102102991D01*
X137883448Y-102138729D01*
X137800186Y-102240186D01*
X137698729Y-102323448D01*
X137662991Y-102352778D01*
X137662989Y-102352779D01*
X137506467Y-102436443D01*
X137449853Y-102453616D01*
X137336627Y-102487963D01*
X137270442Y-102494482D01*
X137204260Y-102501000D01*
X137115740Y-102501000D01*
X137049558Y-102494482D01*
X136983373Y-102487963D01*
X136870147Y-102453616D01*
X136813533Y-102436443D01*
X136657011Y-102352779D01*
X136657009Y-102352778D01*
X136621271Y-102323448D01*
X136519814Y-102240186D01*
X136436552Y-102138729D01*
X136407222Y-102102991D01*
X136397652Y-102085087D01*
X136323557Y-101946467D01*
X136306384Y-101889853D01*
X136272037Y-101776627D01*
X136254641Y-101600000D01*
X136272037Y-101423373D01*
X136323557Y-101253534D01*
X136323557Y-101253533D01*
X136407221Y-101097011D01*
X136407222Y-101097009D01*
X136436552Y-101061271D01*
X136519814Y-100959814D01*
X136621271Y-100876552D01*
X136657009Y-100847222D01*
X136674913Y-100837652D01*
X136813533Y-100763557D01*
X136870147Y-100746384D01*
X136983373Y-100712037D01*
X137049557Y-100705519D01*
X137115740Y-100699000D01*
X137204260Y-100699000D01*
X137270443Y-100705519D01*
X137270443Y-100705519D01*
G37*
G36*
X149970443Y-98165519D02*
X150036627Y-98172037D01*
X150149853Y-98206384D01*
X150206467Y-98223557D01*
X150345087Y-98297652D01*
X150362991Y-98307222D01*
X150398729Y-98336552D01*
X150500186Y-98419814D01*
X150583448Y-98521271D01*
X150612778Y-98557009D01*
X150612779Y-98557011D01*
X150696443Y-98713533D01*
X150696443Y-98713534D01*
X150747963Y-98883373D01*
X150765359Y-99060000D01*
X150747963Y-99236627D01*
X150713616Y-99349853D01*
X150696443Y-99406467D01*
X150622348Y-99545087D01*
X150612778Y-99562991D01*
X150583448Y-99598729D01*
X150500186Y-99700186D01*
X150398729Y-99783448D01*
X150362991Y-99812778D01*
X150362989Y-99812779D01*
X150206467Y-99896443D01*
X150149853Y-99913616D01*
X150036627Y-99947963D01*
X149970443Y-99954481D01*
X149904260Y-99961000D01*
X149815740Y-99961000D01*
X149749557Y-99954481D01*
X149683373Y-99947963D01*
X149570147Y-99913616D01*
X149513533Y-99896443D01*
X149357011Y-99812779D01*
X149357009Y-99812778D01*
X149321271Y-99783448D01*
X149219814Y-99700186D01*
X149136552Y-99598729D01*
X149107222Y-99562991D01*
X149097652Y-99545087D01*
X149023557Y-99406467D01*
X149006384Y-99349853D01*
X148972037Y-99236627D01*
X148954641Y-99060000D01*
X148972037Y-98883373D01*
X149023557Y-98713534D01*
X149023557Y-98713533D01*
X149107221Y-98557011D01*
X149107222Y-98557009D01*
X149136552Y-98521271D01*
X149219814Y-98419814D01*
X149321271Y-98336552D01*
X149357009Y-98307222D01*
X149374913Y-98297652D01*
X149513533Y-98223557D01*
X149570147Y-98206384D01*
X149683373Y-98172037D01*
X149749557Y-98165519D01*
X149815740Y-98159000D01*
X149904260Y-98159000D01*
X149970443Y-98165519D01*
X149970443Y-98165519D01*
G37*
G36*
X137270443Y-98165519D02*
X137336627Y-98172037D01*
X137449853Y-98206384D01*
X137506467Y-98223557D01*
X137645087Y-98297652D01*
X137662991Y-98307222D01*
X137698729Y-98336552D01*
X137800186Y-98419814D01*
X137883448Y-98521271D01*
X137912778Y-98557009D01*
X137912779Y-98557011D01*
X137996443Y-98713533D01*
X137996443Y-98713534D01*
X138047963Y-98883373D01*
X138065359Y-99060000D01*
X138047963Y-99236627D01*
X138013616Y-99349853D01*
X137996443Y-99406467D01*
X137922348Y-99545087D01*
X137912778Y-99562991D01*
X137883448Y-99598729D01*
X137800186Y-99700186D01*
X137698729Y-99783448D01*
X137662991Y-99812778D01*
X137662989Y-99812779D01*
X137506467Y-99896443D01*
X137449853Y-99913616D01*
X137336627Y-99947963D01*
X137270443Y-99954481D01*
X137204260Y-99961000D01*
X137115740Y-99961000D01*
X137049557Y-99954481D01*
X136983373Y-99947963D01*
X136870147Y-99913616D01*
X136813533Y-99896443D01*
X136657011Y-99812779D01*
X136657009Y-99812778D01*
X136621271Y-99783448D01*
X136519814Y-99700186D01*
X136436552Y-99598729D01*
X136407222Y-99562991D01*
X136397652Y-99545087D01*
X136323557Y-99406467D01*
X136306384Y-99349853D01*
X136272037Y-99236627D01*
X136254641Y-99060000D01*
X136272037Y-98883373D01*
X136323557Y-98713534D01*
X136323557Y-98713533D01*
X136407221Y-98557011D01*
X136407222Y-98557009D01*
X136436552Y-98521271D01*
X136519814Y-98419814D01*
X136621271Y-98336552D01*
X136657009Y-98307222D01*
X136674913Y-98297652D01*
X136813533Y-98223557D01*
X136870147Y-98206384D01*
X136983373Y-98172037D01*
X137049557Y-98165519D01*
X137115740Y-98159000D01*
X137204260Y-98159000D01*
X137270443Y-98165519D01*
X137270443Y-98165519D01*
G37*
G36*
X137270442Y-95625518D02*
X137336627Y-95632037D01*
X137449853Y-95666384D01*
X137506467Y-95683557D01*
X137645087Y-95757652D01*
X137662991Y-95767222D01*
X137698729Y-95796552D01*
X137800186Y-95879814D01*
X137883448Y-95981271D01*
X137912778Y-96017009D01*
X137912779Y-96017011D01*
X137996443Y-96173533D01*
X137996443Y-96173534D01*
X138047963Y-96343373D01*
X138065359Y-96520000D01*
X138047963Y-96696627D01*
X138013616Y-96809853D01*
X137996443Y-96866467D01*
X137922348Y-97005087D01*
X137912778Y-97022991D01*
X137883448Y-97058729D01*
X137800186Y-97160186D01*
X137698729Y-97243448D01*
X137662991Y-97272778D01*
X137662989Y-97272779D01*
X137506467Y-97356443D01*
X137449853Y-97373616D01*
X137336627Y-97407963D01*
X137270442Y-97414482D01*
X137204260Y-97421000D01*
X137115740Y-97421000D01*
X137049558Y-97414482D01*
X136983373Y-97407963D01*
X136870147Y-97373616D01*
X136813533Y-97356443D01*
X136657011Y-97272779D01*
X136657009Y-97272778D01*
X136621271Y-97243448D01*
X136519814Y-97160186D01*
X136436552Y-97058729D01*
X136407222Y-97022991D01*
X136397652Y-97005087D01*
X136323557Y-96866467D01*
X136306384Y-96809853D01*
X136272037Y-96696627D01*
X136254641Y-96520000D01*
X136272037Y-96343373D01*
X136323557Y-96173534D01*
X136323557Y-96173533D01*
X136407221Y-96017011D01*
X136407222Y-96017009D01*
X136436552Y-95981271D01*
X136519814Y-95879814D01*
X136621271Y-95796552D01*
X136657009Y-95767222D01*
X136674913Y-95757652D01*
X136813533Y-95683557D01*
X136870147Y-95666384D01*
X136983373Y-95632037D01*
X137049558Y-95625518D01*
X137115740Y-95619000D01*
X137204260Y-95619000D01*
X137270442Y-95625518D01*
X137270442Y-95625518D01*
G37*
G36*
X150761000Y-97421000D02*
X148959000Y-97421000D01*
X148959000Y-95619000D01*
X150761000Y-95619000D01*
X150761000Y-97421000D01*
X150761000Y-97421000D01*
G37*
M02*
